ISO-10303-21;
HEADER;
FILE_DESCRIPTION (( 'STEP AP203' ),
    '1' );
FILE_NAME ('steering column (transmission) thing.STEP',
    '2026-07-08T14:46:06',
    ( '' ),
    ( '' ),
    'SwSTEP 2.0',
    'SolidWorks 2025',
    '' );
FILE_SCHEMA (( 'CONFIG_CONTROL_DESIGN' ));
ENDSEC;

DATA;
#1 = EDGE_CURVE ( 'NONE', #388, #550, #121, .T. ) ;
#2 = CARTESIAN_POINT ( 'NONE',  ( 10.15862687412524679, 15.00000000000000178, 14.27287085196505245 ) ) ;
#3 = EDGE_CURVE ( 'NONE', #554, #372, #311, .T. ) ;
#4 = CARTESIAN_POINT ( 'NONE',  ( -24.04665262582588525, 7.308380026651940753, 5.401539806469334515 ) ) ;
#5 = LINE ( 'NONE', #273, #149 ) ;
#6 = PERSON ( 'UNSPECIFIED', 'UNSPECIFIED', 'UNSPECIFIED', ('UNSPECIFIED'), ('UNSPECIFIED'), ('UNSPECIFIED') ) ;
#7 = ORIENTED_EDGE ( 'NONE', *, *, #481, .T. ) ;
#8 = ADVANCED_FACE ( 'NONE', ( #36 ), #580, .T. ) ;
#9 = CARTESIAN_POINT ( 'NONE',  ( -24.01687384393474645, 7.928092191760908847, 5.412689190326540611 ) ) ;
#10 =( BOUNDED_CURVE ( )  B_SPLINE_CURVE ( 3, ( #507, #614, #132, #244 ),
 .UNSPECIFIED., .F., .T. ) 
 B_SPLINE_CURVE_WITH_KNOTS ( ( 4, 4 ),
 ( 0.000000000000000000, 1.677735335510716519 ),
 .UNSPECIFIED. ) 
 CURVE ( )  GEOMETRIC_REPRESENTATION_ITEM ( )  RATIONAL_B_SPLINE_CURVE ( ( 1.000000000000000000, 0.7788703874494334878, 0.7788703874494334878, 1.000000000000000000 ) ) 
 REPRESENTATION_ITEM ( '' )  );
#11 = CARTESIAN_POINT ( 'NONE',  ( -22.27864258850241086, 11.07499682052221779, 5.880822006088630260 ) ) ;
#12 = CARTESIAN_POINT ( 'NONE',  ( -16.06888305282937424, 3.544557335780099017, 6.105404202511938827 ) ) ;
#13 = VERTEX_POINT ( 'NONE', #260 ) ;
#14 = VECTOR ( 'NONE', #248, 1000.000000000000000 ) ;
#15 = DIRECTION ( 'NONE',  ( 0.000000000000000000, 0.000000000000000000, -1.000000000000000000 ) ) ;
#16 = CARTESIAN_POINT ( 'NONE',  ( -6.868390146362537863, 15.00000000000000000, 9.910066147959778249 ) ) ;
#17 = CARTESIAN_POINT ( 'NONE',  ( -14.78130722553333420, 15.00000000000000178, 2.119442564422644892 ) ) ;
#18 = UNCERTAINTY_MEASURE_WITH_UNIT (LENGTH_MEASURE( 1.000000000000000082E-05 ), #62, 'distance_accuracy_value', 'NONE');
#19 = CARTESIAN_POINT ( 'NONE',  ( -28.58611242842813027, 0.000000000000000000, 5.053092140437565805E-16 ) ) ;
#20 = CALENDAR_DATE ( 2026, 8, 7 ) ;
#21 = CYLINDRICAL_SURFACE ( 'NONE', #544, 12.05753682389518389 ) ;
#22 = PERSON_AND_ORGANIZATION ( #6, #573 ) ;
#23 = VECTOR ( 'NONE', #636, 1000.000000000000000 ) ;
#24 = CARTESIAN_POINT ( 'NONE',  ( 2.311340175704043709, 15.00000000000000000, -8.196156708193857554 ) ) ;
#25 = AXIS2_PLACEMENT_3D ( 'NONE', #366, #90, #140 ) ;
#26 = APPROVAL_STATUS ( 'not_yet_approved' ) ;
#27 = CARTESIAN_POINT ( 'NONE',  ( -24.67740038701073502, 0.000000000000000000, 6.424777029778894644 ) ) ;
#28 =( NAMED_UNIT ( * ) SI_UNIT ( $, .STERADIAN. ) SOLID_ANGLE_UNIT ( ) );
#29 = CARTESIAN_POINT ( 'NONE',  ( -23.81370259838302772, 5.789279984923551226, 5.484970429322002516 ) ) ;
#30 = ORIENTED_EDGE ( 'NONE', *, *, #71, .F. ) ;
#31 = CARTESIAN_POINT ( 'NONE',  ( -14.30665262582588682, 7.308380026628809922, -6.730873057416998151 ) ) ;
#32 = CARTESIAN_POINT ( 'NONE',  ( -19.17665262582588781, 7.308380026652381289, -12.05753682389518389 ) ) ;
#33 = CARTESIAN_POINT ( 'NONE',  ( -24.04665262582588525, 7.308380026652382178, -12.05753682389518389 ) ) ;
#34 = CARTESIAN_POINT ( 'NONE',  ( -20.33378670650451525, 15.00000000000000000, -6.048281911657878318 ) ) ;
#35 = CARTESIAN_POINT ( 'NONE',  ( -11.89327043113411264, 0.000000000000000000, 8.044558362780453109 ) ) ;
#36 = FACE_OUTER_BOUND ( 'NONE', #362, .T. ) ;
#37 = ORIENTED_EDGE ( 'NONE', *, *, #442, .T. ) ;
#38 = CARTESIAN_POINT ( 'NONE',  ( -14.31699363913591228, 7.675074772190875194, -6.728375757946777114 ) ) ;
#39 = CARTESIAN_POINT ( 'NONE',  ( -2.311340175704037492, 15.00000000000000000, 8.196156708193861107 ) ) ;
#40 = B_SPLINE_CURVE_WITH_KNOTS ( 'NONE', 3,
 ( #630, #387, #56, #393, #498, #658, #60, #653, #218, #655, #434, #168, #12, #58, #601, #51, #164, #540, #652, #162, #165 ),
 .UNSPECIFIED., .F., .F.,
 ( 4, 2, 1, 2, 2, 2, 2, 2, 2, 2, 4 ),
 ( 0.007906638662100355999, 0.008400340055987809071, 0.008894041449875263877, 0.009387742843762716949, 0.009881444237650171755, 0.01086884702542507790, 0.01185624981319998231, 0.01284365260097488498, 0.01383105538874978765, 0.01481845817652469033, 0.01580586096429959300 ),
 .UNSPECIFIED. ) ;
#41 = CARTESIAN_POINT ( 'NONE',  ( -20.33378670650451525, 12.03891284223795921, -6.048281911657878318 ) ) ;
#42 = CARTESIAN_POINT ( 'NONE',  ( -20.33378670650451525, 0.000000000000000000, -6.048281911657878318 ) ) ;
#43 = VERTEX_POINT ( 'NONE', #45 ) ;
#44 = CARTESIAN_POINT ( 'NONE',  ( 0.4709106090039660852, 0.000000000000000000, 6.981022480510386430 ) ) ;
#45 = CARTESIAN_POINT ( 'NONE',  ( -28.58611242842813027, 15.00000000000000000, 5.053092140437565805E-16 ) ) ;
#46 = CARTESIAN_POINT ( 'NONE',  ( -16.47285398163878867, 11.36223702494175392, 6.064184676791563255 ) ) ;
#47 = EDGE_CURVE ( 'NONE', #159, #167, #108, .T. ) ;
#48 = B_SPLINE_CURVE_WITH_KNOTS ( 'NONE', 1,
 ( #92, #312 ),
 .UNSPECIFIED., .F., .F.,
 ( 2, 2 ),
 ( 0.000000000000000000, 1.000000000000000000 ),
 .UNSPECIFIED. ) ;
#49 = ORIENTED_EDGE ( 'NONE', *, *, #597, .T. ) ;
#50 = DIRECTION ( 'NONE',  ( 0.000000000000000000, 1.000000000000000000, 0.000000000000000000 ) ) ;
#51 = CARTESIAN_POINT ( 'NONE',  ( -17.19110733904079780, 2.849392452467593539, 6.008691549174661972 ) ) ;
#52 = VERTEX_POINT ( 'NONE', #247 ) ;
#53 = EDGE_CURVE ( 'NONE', #445, #173, #264, .T. ) ;
#54 = VERTEX_POINT ( 'NONE', #693 ) ;
#55 = CARTESIAN_POINT ( 'NONE',  ( -16.07361000409713370, 11.06541594507519832, 6.105961026746498987 ) ) ;
#56 = CARTESIAN_POINT ( 'NONE',  ( -14.31525445824572884, 6.975098889570617189, 6.396433036137097794 ) ) ;
#57 = AXIS2_PLACEMENT_3D ( 'NONE', #32, #689, #361 ) ;
#58 = CARTESIAN_POINT ( 'NONE',  ( -16.32865773946776500, 3.344049951723153669, 6.076649456101375080 ) ) ;
#59 = CARTESIAN_POINT ( 'NONE',  ( -13.31266539945437444, 0.000000000000000000, -6.992932595448082544 ) ) ;
#60 = CARTESIAN_POINT ( 'NONE',  ( -14.58157360284998560, 5.686830413560085340, 6.340962200834033169 ) ) ;
#61 = ORIENTED_EDGE ( 'NONE', *, *, #71, .T. ) ;
#62 =( LENGTH_UNIT ( ) NAMED_UNIT ( * ) SI_UNIT ( .MILLI., .METRE. ) );
#63 = CARTESIAN_POINT ( 'NONE',  ( -6.868390146362537863, 0.000000000000000000, 9.910066147959778249 ) ) ;
#64 = ORIENTED_EDGE ( 'NONE', *, *, #100, .F. ) ;
#65 = CARTESIAN_POINT ( 'NONE',  ( -28.58611242842813027, 0.000000000000000000, 5.053092140437565805E-16 ) ) ;
#66 = ORIENTED_EDGE ( 'NONE', *, *, #125, .F. ) ;
#67 = CARTESIAN_POINT ( 'NONE',  ( 14.78130722553332177, 15.00000000000000178, -2.119442564422649777 ) ) ;
#68 = CARTESIAN_POINT ( 'NONE',  ( -0.4709106090039646975, 0.000000000000000000, -6.981022480510386430 ) ) ;
#69 = ORIENTED_EDGE ( 'NONE', *, *, #500, .T. ) ;
#70 = MECHANICAL_CONTEXT ( 'NONE', #245, 'mechanical' ) ;
#71 = EDGE_CURVE ( 'NONE', #372, #13, #566, .T. ) ;
#72 = DIRECTION ( 'NONE',  ( 0.000000000000000000, 0.000000000000000000, 1.000000000000000000 ) ) ;
#73 =( BOUNDED_SURFACE ( )  B_SPLINE_SURFACE ( 3, 1, ( 
 ( #44, #263 ),
 ( #468, #307 ),
 ( #254, #88 ),
 ( #142, #364 ),
 ( #208, #525 ),
 ( #35, #194 ),
 ( #413, #39 ) ),
 .UNSPECIFIED., .T., .F., .F. ) 
 B_SPLINE_SURFACE_WITH_KNOTS ( ( 4, 3, 4 ),
 ( 2, 2 ),
 ( 0.000000000000000000, 0.5000000000000000000, 1.000000000000000000 ),
 ( 0.000000000000000000, 1.000000000000000000 ),
 .UNSPECIFIED. ) 
 GEOMETRIC_REPRESENTATION_ITEM ( )  RATIONAL_B_SPLINE_SURFACE ( (
 ( 1.000000000000000000, 1.000000000000000000),
 ( 0.3333333333333333703, 0.3333333333333337034),
 ( 0.3333333333333333703, 0.3333333333333337034),
 ( 1.000000000000000000, 1.000000000000000000),
 ( 0.3333333333333333703, 0.3333333333333333703),
 ( 0.3333333333333333703, 0.3333333333333333703),
 ( 1.000000000000000000, 1.000000000000000000) ) ) 
 REPRESENTATION_ITEM ( '' )  SURFACE ( )  );
#74 = CARTESIAN_POINT ( 'NONE',  ( -6.868390146362537863, 0.000000000000000000, 9.910066147959778249 ) ) ;
#75 = CARTESIAN_POINT ( 'NONE',  ( -20.06796278352508267, 2.510762675263698007, 6.049096981854027000 ) ) ;
#76 = CARTESIAN_POINT ( 'NONE',  ( -22.26218620172057427, 11.08570633304826991, -5.882742965495312504 ) ) ;
#77 = LINE ( 'NONE', #296, #14 ) ;
#78 = DIRECTION ( 'NONE',  ( 0.000000000000000000, 1.000000000000000000, 0.000000000000000000 ) ) ;
#79 = EDGE_LOOP ( 'NONE', ( #30, #279, #593, #344, #457, #64 ) ) ;
#80 = CARTESIAN_POINT ( 'NONE',  ( -17.78422353223902164, 11.97870033571218329, -6.156366469874216207 ) ) ;
#81 = CARTESIAN_POINT ( 'NONE',  ( -19.45297224204704278, 0.000000000000000000, 6.013730927884667565 ) ) ;
#82 = CARTESIAN_POINT ( 'NONE',  ( -18.87243514229836450, 2.434015871636299622, -6.077364227284978604 ) ) ;
#83 = APPROVAL ( #285, 'UNSPECIFIED' ) ;
#84 = ORIENTED_EDGE ( 'NONE', *, *, #383, .T. ) ;
#85 = CARTESIAN_POINT ( 'NONE',  ( -24.67740038701073502, 0.000000000000000000, 6.424777029778894644 ) ) ;
#86 = PRODUCT ( 'steering column (transmission) thing', 'steering column (transmission) thing', '', ( #70 ) ) ;
#87 = ORIENTED_EDGE ( 'NONE', *, *, #96, .F. ) ;
#88 = CARTESIAN_POINT ( 'NONE',  ( 14.78130722553332177, 15.00000000000000178, -2.119442564422649777 ) ) ;
#89 = CARTESIAN_POINT ( 'NONE',  ( -11.89327043113411442, 0.000000000000000000, 8.044558362780453109 ) ) ;
#90 = DIRECTION ( 'NONE',  ( 0.000000000000000000, 1.000000000000000000, 0.000000000000000000 ) ) ;
#91 = EDGE_LOOP ( 'NONE', ( #319, #117, #543, #226 ) ) ;
#92 = CARTESIAN_POINT ( 'NONE',  ( 0.4709106090039659187, 0.000000000000000000, 6.981022480510387318 ) ) ;
#93 = ORIENTED_EDGE ( 'NONE', *, *, #531, .T. ) ;
#94 = APPROVAL_PERSON_ORGANIZATION ( #419, #158, #687 ) ;
#95 = CARTESIAN_POINT ( 'NONE',  ( -16.76640994964082410, 3.060564878134007127, -6.269694772720580289 ) ) ;
#96 = EDGE_CURVE ( 'NONE', #372, #155, #195, .T. ) ;
#97 = CARTESIAN_POINT ( 'NONE',  ( -19.45297224204704278, 12.17053463851854467, 6.013730927884667565 ) ) ;
#98 = AXIS2_PLACEMENT_3D ( 'NONE', #682, #196, #629 ) ;
#99 = CARTESIAN_POINT ( 'NONE',  ( -12.45593841292662241, 0.000000000000000000, 5.621160287565239777 ) ) ;
#100 = EDGE_CURVE ( 'NONE', #13, #595, #181, .T. ) ;
#101 = ORIENTED_EDGE ( 'NONE', *, *, #151, .T. ) ;
#102 = CARTESIAN_POINT ( 'NONE',  ( 2.311340175704043709, 15.00000000000000000, -8.196156708193857554 ) ) ;
#103 = PLANE ( 'NONE',  #681 ) ;
#104 = ORIENTED_EDGE ( 'NONE', *, *, #627, .F. ) ;
#105 = VERTEX_POINT ( 'NONE', #102 ) ;
#106 = CARTESIAN_POINT ( 'NONE',  ( -19.17665262582588781, 7.308380026652381289, -12.05753682389518389 ) ) ;
#107 = CLOSED_SHELL ( 'NONE', ( #193, #345, #8, #405, #620, #654, #581, #576, #274, #634, #433, #523, #295 ) ) ;
#108 = B_SPLINE_CURVE_WITH_KNOTS ( 'NONE', 2,
 ( #474, #690, #637 ),
 .UNSPECIFIED., .F., .F.,
 ( 3, 3 ),
 ( 0.000000000000000000, 1.000000000000000000 ),
 .UNSPECIFIED. ) ;
#109 = CARTESIAN_POINT ( 'NONE',  ( -23.81409624267288905, 8.826699998784546253, 5.484847492554121295 ) ) ;
#110 = EDGE_LOOP ( 'NONE', ( #49, #370, #281, #605, #144, #603, #184 ) ) ;
#111 = EDGE_CURVE ( 'NONE', #645, #340, #397, .T. ) ;
#112 = CARTESIAN_POINT ( 'NONE',  ( -20.66869714746671605, 11.95436454093385414, 6.047243880818947481 ) ) ;
#113 = ORIENTED_EDGE ( 'NONE', *, *, #151, .F. ) ;
#114 = APPROVAL_ROLE ( '' ) ;
#115 = CARTESIAN_POINT ( 'NONE',  ( -0.4709106090039653081, 0.000000000000000000, -6.981022480510386430 ) ) ;
#116 = EDGE_CURVE ( 'NONE', #304, #105, #437, .T. ) ;
#117 = ORIENTED_EDGE ( 'NONE', *, *, #454, .T. ) ;
#118 = CARTESIAN_POINT ( 'NONE',  ( -25.16788719328702584, 15.00000000000000000, -6.048281911657878318 ) ) ;
#119 = ORIENTED_EDGE ( 'NONE', *, *, #166, .T. ) ;
#120 = CARTESIAN_POINT ( 'NONE',  ( 1.476622387698457963E-15, 15.00000000000000000, 12.05753682389518389 ) ) ;
#121 =( BOUNDED_CURVE ( )  B_SPLINE_CURVE ( 3, ( #589, #89, #252, #520 ),
 .UNSPECIFIED., .F., .T. ) 
 B_SPLINE_CURVE_WITH_KNOTS ( ( 4, 4 ),
 ( 6.207158764962713349, 9.348751418552506465 ),
 .UNSPECIFIED. ) 
 CURVE ( )  GEOMETRIC_REPRESENTATION_ITEM ( )  RATIONAL_B_SPLINE_CURVE ( ( 1.000000000000000000, 0.3333333333333333703, 0.3333333333333333703, 1.000000000000000000 ) ) 
 REPRESENTATION_ITEM ( '' )  );
#122 = ORIENTED_EDGE ( 'NONE', *, *, #1, .F. ) ;
#123 = CARTESIAN_POINT ( 'NONE',  ( -19.45297224204704278, 0.000000000000000000, 6.013730927884667565 ) ) ;
#124 = VERTEX_POINT ( 'NONE', #592 ) ;
#125 = EDGE_CURVE ( 'NONE', #418, #220, #470, .T. ) ;
#126 = CARTESIAN_POINT ( 'NONE',  ( 11.89327043113411619, 0.000000000000000000, -8.044558362780451333 ) ) ;
#127 = CC_DESIGN_PERSON_AND_ORGANIZATION_ASSIGNMENT ( #232, #227, ( #509 ) ) ;
#128 = CARTESIAN_POINT ( 'NONE',  ( -19.45297224204704278, 15.00000000000000000, 6.013730927884667565 ) ) ;
#129 = EDGE_LOOP ( 'NONE', ( #448, #505, #148, #662, #66, #169, #271 ) ) ;
#130 = LINE ( 'NONE', #175, #157 ) ;
#131 = DIRECTION ( 'NONE',  ( 0.000000000000000000, 0.000000000000000000, -1.000000000000000000 ) ) ;
#132 = CARTESIAN_POINT ( 'NONE',  ( -24.67740038701073502, 15.00000000000000000, 6.424777029778894644 ) ) ;
#133 = COORDINATED_UNIVERSAL_TIME_OFFSET ( 5, 0, .BEHIND. ) ;
#134 = CARTESIAN_POINT ( 'NONE',  ( -20.66467659873210039, 2.661085038853574947, 6.047372841255579168 ) ) ;
#135 = CARTESIAN_POINT ( 'NONE',  ( -21.36096222357873131, 2.922032921807410588, -6.010850349324387665 ) ) ;
#136 = CARTESIAN_POINT ( 'NONE',  ( -24.67740038701073502, 15.00000000000000000, 6.424777029778894644 ) ) ;
#137 = APPROVAL_PERSON_ORGANIZATION ( #241, #83, #114 ) ;
#138 = CARTESIAN_POINT ( 'NONE',  ( 0.4709106090039659187, 0.000000000000000000, 6.981022480510387318 ) ) ;
#139 = CARTESIAN_POINT ( 'NONE',  ( -19.60742191777641708, 2.443566360117773062, -6.051379544841327451 ) ) ;
#140 = DIRECTION ( 'NONE',  ( 0.000000000000000000, 0.000000000000000000, 1.000000000000000000 ) ) ;
#141 = EDGE_LOOP ( 'NONE', ( #87, #438, #556, #7, #440, #332 ) ) ;
#142 = CARTESIAN_POINT ( 'NONE',  ( -0.4709106090039653081, 0.000000000000000000, -6.981022480510386430 ) ) ;
#143 = CARTESIAN_POINT ( 'NONE',  ( -24.02365917113027649, 6.763970296692221496, -5.410121594041140014 ) ) ;
#144 = ORIENTED_EDGE ( 'NONE', *, *, #125, .T. ) ;
#145 = CARTESIAN_POINT ( 'NONE',  ( -14.96896815352062582, 9.767261316183120101, -6.581065900256719559 ) ) ;
#146 =( BOUNDED_SURFACE ( )  B_SPLINE_SURFACE ( 3, 1, ( 
 ( #284, #19 ),
 ( #590, #253 ),
 ( #136, #85 ),
 ( #192, #363 ) ),
 .UNSPECIFIED., .F., .F., .T. ) 
 B_SPLINE_SURFACE_WITH_KNOTS ( ( 4, 4 ),
 ( 2, 2 ),
 ( 0.000000000000000000, 1.000000000000000000 ),
 ( 0.000000000000000000, 1.000000000000000000 ),
 .UNSPECIFIED. ) 
 GEOMETRIC_REPRESENTATION_ITEM ( )  RATIONAL_B_SPLINE_SURFACE ( (
 ( 1.000000000000000000, 1.000000000000000000),
 ( 0.7788703874494334878, 0.7788703874494334878),
 ( 0.7788703874494334878, 0.7788703874494334878),
 ( 1.000000000000000000, 1.000000000000000000) ) ) 
 REPRESENTATION_ITEM ( '' )  SURFACE ( )  );
#147 = CARTESIAN_POINT ( 'NONE',  ( -6.868390146362527204, 15.00000000000000000, -9.910066147959785354 ) ) ;
#148 = ORIENTED_EDGE ( 'NONE', *, *, #233, .F. ) ;
#149 = VECTOR ( 'NONE', #490, 1000.000000000000000 ) ;
#150 = CARTESIAN_POINT ( 'NONE',  ( -18.13710541158939549, 12.07664102475328782, -6.124982018276260654 ) ) ;
#151 = EDGE_CURVE ( 'NONE', #52, #445, #368, .T. ) ;
#152 = CYLINDRICAL_SURFACE ( 'NONE', #455, 12.05753682389518389 ) ;
#153 = CARTESIAN_POINT ( 'NONE',  ( -17.43432551426469956, 2.745760216674261400, -6.189472565991784414 ) ) ;
#154 = CARTESIAN_POINT ( 'NONE',  ( -14.30665262582666486, 7.640558063790480858, 6.398301505728418270 ) ) ;
#155 = VERTEX_POINT ( 'NONE', #4 ) ;
#156 = CARTESIAN_POINT ( 'NONE',  ( 2.311340175704043709, 15.00000000000000000, -8.196156708193857554 ) ) ;
#157 = VECTOR ( 'NONE', #570, 1000.000000000000000 ) ;
#158 = APPROVAL ( #26, 'UNSPECIFIED' ) ;
#159 = VERTEX_POINT ( 'NONE', #217 ) ;
#160 = CARTESIAN_POINT ( 'NONE',  ( -15.61654528564683808, 3.965411500037476777, -6.452683744821884559 ) ) ;
#161 = ADVANCED_BREP_SHAPE_REPRESENTATION ( 'steering column (transmission) thing', ( #467, #484 ), #535 ) ;
#162 = CARTESIAN_POINT ( 'NONE',  ( -19.12011778918946447, 2.427309065551531031, 5.995056030937957026 ) ) ;
#163 = ORIENTED_EDGE ( 'NONE', *, *, #318, .F. ) ;
#164 = CARTESIAN_POINT ( 'NONE',  ( -17.80835205193994852, 2.623007702907741212, 5.984146256399799135 ) ) ;
#165 = CARTESIAN_POINT ( 'NONE',  ( -19.45297224204704278, 2.446225414786220131, 6.013730927884667565 ) ) ;
#166 = EDGE_CURVE ( 'NONE', #220, #231, #533, .T. ) ;
#167 = VERTEX_POINT ( 'NONE', #676 ) ;
#168 = CARTESIAN_POINT ( 'NONE',  ( -15.59201959814210170, 3.995526419260930773, 6.166803424282742085 ) ) ;
#169 = ORIENTED_EDGE ( 'NONE', *, *, #587, .F. ) ;
#170 = LINE ( 'NONE', #564, #355 ) ;
#171 = DIRECTION ( 'NONE',  ( 0.000000000000000000, 0.000000000000000000, 1.000000000000000000 ) ) ;
#172 = CARTESIAN_POINT ( 'NONE',  ( -22.93063775133107995, 10.42596739014903306, 5.743293180382685215 ) ) ;
#173 = VERTEX_POINT ( 'NONE', #453 ) ;
#174 = COORDINATED_UNIVERSAL_TIME_OFFSET ( 5, 0, .BEHIND. ) ;
#175 = CARTESIAN_POINT ( 'NONE',  ( -19.45297224204704278, 15.00000000000000000, 6.013730927884667565 ) ) ;
#176 = EDGE_CURVE ( 'NONE', #521, #418, #130, .T. ) ;
#177 = ORIENTED_EDGE ( 'NONE', *, *, #600, .T. ) ;
#178 = ORIENTED_EDGE ( 'NONE', *, *, #261, .T. ) ;
#179 = COORDINATED_UNIVERSAL_TIME_OFFSET ( 5, 0, .BEHIND. ) ;
#180 = AXIS2_PLACEMENT_3D ( 'NONE', #443, #78, #171 ) ;
#181 = B_SPLINE_CURVE_WITH_KNOTS ( 'NONE', 3,
 ( #414, #628, #139, #82, #486, #427, #153, #95, #596, #314, #160, #381, #272, #650, #594, #266, #265, #644 ),
 .UNSPECIFIED., .F., .F.,
 ( 4, 2, 2, 2, 2, 2, 2, 2, 4 ),
 ( 0.000000000000000000, 0.001101180061416764250, 0.002202360122833528500, 0.003303540184250292749, 0.004404720245667056999, 0.005505900307083821249, 0.006607080368500585499, 0.007708260429917349749, 0.008809440491334113998 ),
 .UNSPECIFIED. ) ;
#182 = FACE_OUTER_BOUND ( 'NONE', #91, .T. ) ;
#183 = CARTESIAN_POINT ( 'NONE',  ( -20.33378670650451525, 12.03891284223795921, -6.048281911657878318 ) ) ;
#184 = ORIENTED_EDGE ( 'NONE', *, *, #442, .F. ) ;
#185 = CALENDAR_DATE ( 2026, 8, 7 ) ;
#186 = CARTESIAN_POINT ( 'NONE',  ( -21.78266110459942340, 3.182869241912499536, 5.957244091117799734 ) ) ;
#187 = CARTESIAN_POINT ( 'NONE',  ( -0.4709106090039646975, 0.000000000000000000, -6.981022480510386430 ) ) ;
#188 = PERSON_AND_ORGANIZATION ( #6, #573 ) ;
#189 = CARTESIAN_POINT ( 'NONE',  ( 0.000000000000000000, 0.000000000000000000, 0.000000000000000000 ) ) ;
#190 = CARTESIAN_POINT ( 'NONE',  ( -22.83841751024048605, 4.086402597327913000, -5.764428274112234796 ) ) ;
#191 = CC_DESIGN_DATE_AND_TIME_ASSIGNMENT ( #237, #663, ( #509 ) ) ;
#192 = CARTESIAN_POINT ( 'NONE',  ( -19.45297224204704278, 15.00000000000000000, 6.013730927884667565 ) ) ;
#193 = ADVANCED_FACE ( 'NONE', ( #182 ), #656, .F. ) ;
#194 = CARTESIAN_POINT ( 'NONE',  ( -14.78130722553333420, 14.99999999999999822, 2.119442564422644892 ) ) ;
#195 = LINE ( 'NONE', #33, #425 ) ;
#196 = DIRECTION ( 'NONE',  ( 0.000000000000000000, -1.000000000000000000, 0.000000000000000000 ) ) ;
#197 = B_SPLINE_CURVE_WITH_KNOTS ( 'NONE', 3,
 ( #31, #678, #38, #624, #257, #476, #300, #635, #145, #688, #202, #577, #359, #420, #262, #479, #424, #249, #640, #80, #150, #371, #518, #671, #341, #458, #557 ),
 .UNSPECIFIED., .F., .F.,
 ( 4, 2, 2, 2, 2, 2, 2, 2, 2, 2, 1, 2, 2, 4 ),
 ( 0.008809440491334113998, 0.009359815930104480042, 0.009910191368874842616, 0.01101094224641556776, 0.01156131768518593207, 0.01211169312395629638, 0.01266206856272666242, 0.01321244400149702673, 0.01431319487903776055, 0.01486357031780813007, 0.01541394575657849958, 0.01596432119534887256, 0.01651469663411923861, 0.01761544751165997069 ),
 .UNSPECIFIED. ) ;
#198 = CARTESIAN_POINT ( 'NONE',  ( -24.04665262582588525, 7.308380026652377737, -5.401539806469335403 ) ) ;
#199 = CARTESIAN_POINT ( 'NONE',  ( -24.04665262582588525, 7.308380026652377737, -5.401539806469335403 ) ) ;
#200 = ORIENTED_EDGE ( 'NONE', *, *, #250, .F. ) ;
#201 = B_SPLINE_CURVE_WITH_KNOTS ( 'NONE', 2,
 ( #225, #382, #16 ),
 .UNSPECIFIED., .F., .F.,
 ( 3, 3 ),
 ( 0.000000000000000000, 1.000000000000000000 ),
 .UNSPECIFIED. ) ;
#202 = CARTESIAN_POINT ( 'NONE',  ( -15.27302690373044314, 10.22588173973730008, -6.518861504679312802 ) ) ;
#203 =( BOUNDED_CURVE ( )  B_SPLINE_CURVE ( 3, ( #68, #449, #407, #618 ),
 .UNSPECIFIED., .F., .F. ) 
 B_SPLINE_CURVE_WITH_KNOTS ( ( 4, 4 ),
 ( 3.065566111372920233, 6.207158764962713349 ),
 .UNSPECIFIED. ) 
 CURVE ( )  GEOMETRIC_REPRESENTATION_ITEM ( )  RATIONAL_B_SPLINE_CURVE ( ( 1.000000000000000000, 0.3333333333333333703, 0.3333333333333333703, 1.000000000000000000 ) ) 
 REPRESENTATION_ITEM ( '' )  );
#204 = DIRECTION ( 'NONE',  ( 0.000000000000000000, 0.000000000000000000, 1.000000000000000000 ) ) ;
#205 = CARTESIAN_POINT ( 'NONE',  ( -22.84190567470635003, 10.52642493906686028, -5.763614277758250637 ) ) ;
#206 = EDGE_CURVE ( 'NONE', #173, #159, #411, .T. ) ;
#207 = CARTESIAN_POINT ( 'NONE',  ( -13.02424237247522321, 0.000000000000000000, -6.006691161087337250 ) ) ;
#208 = CARTESIAN_POINT ( 'NONE',  ( -12.83509164914204526, 0.000000000000000000, -5.917486598240321527 ) ) ;
#209 = CARTESIAN_POINT ( 'NONE',  ( -22.65604095538216356, 3.890409569800899359, -5.805805122118546713 ) ) ;
#210 = AXIS2_PLACEMENT_3D ( 'NONE', #526, #255, #131 ) ;
#211 = APPLICATION_CONTEXT ( 'configuration controlled 3d designs of mechanical parts and assemblies' ) ;
#212 = CARTESIAN_POINT ( 'NONE',  ( -14.47343748858763313, 8.614323603078293701, 6.362893129674472625 ) ) ;
#213 = B_SPLINE_CURVE_WITH_KNOTS ( 'NONE', 2,
 ( #519, #679, #473 ),
 .UNSPECIFIED., .F., .F.,
 ( 3, 3 ),
 ( 0.000000000000000000, 1.000000000000000000 ),
 .UNSPECIFIED. ) ;
#214 = CARTESIAN_POINT ( 'NONE',  ( -14.57460742982676472, 8.935131326733884549, 6.341932204667088513 ) ) ;
#215 = APPROVAL ( #451, 'UNSPECIFIED' ) ;
#216 = ORIENTED_EDGE ( 'NONE', *, *, #233, .T. ) ;
#217 = CARTESIAN_POINT ( 'NONE',  ( -6.868390146362527204, 0.000000000000000000, -9.910066147959785354 ) ) ;
#218 = CARTESIAN_POINT ( 'NONE',  ( -14.83664303449882915, 5.074373913858776675, 6.291387180630120035 ) ) ;
#219 = ORIENTED_EDGE ( 'NONE', *, *, #116, .F. ) ;
#220 = VERTEX_POINT ( 'NONE', #63 ) ;
#221 = CARTESIAN_POINT ( 'NONE',  ( -19.45297224204704278, 2.446225414786220131, 6.013730927884667565 ) ) ;
#222 = CYLINDRICAL_SURFACE ( 'NONE', #242, 4.869999999999999218 ) ;
#223 = EDGE_CURVE ( 'NONE', #52, #231, #459, .T. ) ;
#224 = AXIS2_PLACEMENT_3D ( 'NONE', #189, #336, #246 ) ;
#225 = CARTESIAN_POINT ( 'NONE',  ( -19.45297224204704278, 15.00000000000000000, 6.013730927884667565 ) ) ;
#226 = ORIENTED_EDGE ( 'NONE', *, *, #325, .F. ) ;
#227 = PERSON_AND_ORGANIZATION_ROLE ( 'creator' ) ;
#228 = SECURITY_CLASSIFICATION ( '', '', #335 ) ;
#229 = CARTESIAN_POINT ( 'NONE',  ( -2.311340175704037492, 15.00000000000000000, 8.196156708193861107 ) ) ;
#230 = LINE ( 'NONE', #493, #497 ) ;
#231 = VERTEX_POINT ( 'NONE', #565 ) ;
#232 = PERSON_AND_ORGANIZATION ( #6, #573 ) ;
#233 = EDGE_CURVE ( 'NONE', #231, #173, #623, .T. ) ;
#234 = CARTESIAN_POINT ( 'NONE',  ( -2.311340175704037492, 15.00000000000000000, 8.196156708193861107 ) ) ;
#235 = CARTESIAN_POINT ( 'NONE',  ( -28.58611242842812672, 15.00000000000000000, -3.543001514793314488 ) ) ;
#236 = ORIENTED_EDGE ( 'NONE', *, *, #100, .T. ) ;
#237 = DATE_AND_TIME ( #185, #512 ) ;
#238 = FACE_OUTER_BOUND ( 'NONE', #428, .T. ) ;
#239 = LINE ( 'NONE', #572, #315 ) ;
#240 = ORIENTED_EDGE ( 'NONE', *, *, #597, .F. ) ;
#241 = PERSON_AND_ORGANIZATION ( #6, #573 ) ;
#242 = AXIS2_PLACEMENT_3D ( 'NONE', #106, #328, #546 ) ;
#243 = CARTESIAN_POINT ( 'NONE',  ( -19.76357652822558819, 2.463877271628460264, 6.038168565368190244 ) ) ;
#244 = CARTESIAN_POINT ( 'NONE',  ( -19.45297224204704278, 15.00000000000000000, 6.013730927884667565 ) ) ;
#245 = APPLICATION_CONTEXT ( 'configuration controlled 3d designs of mechanical parts and assemblies' ) ;
#246 = DIRECTION ( 'NONE',  ( 0.000000000000000000, 0.000000000000000000, 1.000000000000000000 ) ) ;
#247 = CARTESIAN_POINT ( 'NONE',  ( 1.476622387698457963E-15, 15.00000000000000000, 12.05753682389518389 ) ) ;
#248 = DIRECTION ( 'NONE',  ( -0.000000000000000000, -1.000000000000000000, -0.000000000000000000 ) ) ;
#249 = CARTESIAN_POINT ( 'NONE',  ( -17.26344904833037219, 11.79058428611685372, -6.209978095675730891 ) ) ;
#250 = EDGE_CURVE ( 'NONE', #105, #304, #607, .T. ) ;
#251 = CARTESIAN_POINT ( 'NONE',  ( -19.45297224204704278, 15.00000000000000000, 6.013730927884667565 ) ) ;
#252 = CARTESIAN_POINT ( 'NONE',  ( -12.83509164914204526, 0.000000000000000000, -5.917486598240321527 ) ) ;
#253 = CARTESIAN_POINT ( 'NONE',  ( -28.58611242842812672, 0.000000000000000000, 3.851079264062132523 ) ) ;
#254 = CARTESIAN_POINT ( 'NONE',  ( 11.89327043113411619, 0.000000000000000000, -8.044558362780451333 ) ) ;
#255 = DIRECTION ( 'NONE',  ( -0.000000000000000000, -1.000000000000000000, -0.000000000000000000 ) ) ;
#256 = ORIENTED_EDGE ( 'NONE', *, *, #558, .T. ) ;
#257 = CARTESIAN_POINT ( 'NONE',  ( -14.38997271942504064, 8.224262476892574725, -6.710929215485285759 ) ) ;
#258 = ORIENTED_EDGE ( 'NONE', *, *, #500, .F. ) ;
#259 = CARTESIAN_POINT ( 'NONE',  ( -2.311340175704037492, 15.00000000000000000, 8.196156708193861107 ) ) ;
#260 = CARTESIAN_POINT ( 'NONE',  ( -20.33378670650451525, 2.577847211066803368, -6.048281911657878318 ) ) ;
#261 = EDGE_CURVE ( 'NONE', #521, #155, #302, .T. ) ;
#262 = CARTESIAN_POINT ( 'NONE',  ( -16.02373434775021721, 11.02451103022748491, -6.382566726283165792 ) ) ;
#263 = CARTESIAN_POINT ( 'NONE',  ( -2.311340175704037492, 15.00000000000000000, 8.196156708193861107 ) ) ;
#264 = LINE ( 'NONE', #464, #552 ) ;
#265 = CARTESIAN_POINT ( 'NONE',  ( -14.30665262582766850, 6.941185543433381788, -6.730873057416570049 ) ) ;
#266 = CARTESIAN_POINT ( 'NONE',  ( -14.34926773002107581, 6.567944142829285070, -6.720497854664213122 ) ) ;
#267 = CC_DESIGN_PERSON_AND_ORGANIZATION_ASSIGNMENT ( #354, #551, ( #228 ) ) ;
#268 = ORIENTED_EDGE ( 'NONE', *, *, #53, .F. ) ;
#269 = DIRECTION ( 'NONE',  ( 0.000000000000000000, 0.000000000000000000, 1.000000000000000000 ) ) ;
#270 = CARTESIAN_POINT ( 'NONE',  ( -19.76343431976287590, 12.15289086348179737, 6.038157376730384662 ) ) ;
#271 = ORIENTED_EDGE ( 'NONE', *, *, #383, .F. ) ;
#272 = CARTESIAN_POINT ( 'NONE',  ( -14.96063424715258172, 4.842912045794586895, -6.582458891030690040 ) ) ;
#273 = CARTESIAN_POINT ( 'NONE',  ( -6.868390146362527204, 15.00000000000000000, -9.910066147959785354 ) ) ;
#274 = ADVANCED_FACE ( 'NONE', ( #506 ), #21, .T. ) ;
#275 = CARTESIAN_POINT ( 'NONE',  ( -0.4709106090039646975, 0.000000000000000000, -6.981022480510386430 ) ) ;
#276 = DIRECTION ( 'NONE',  ( -0.000000000000000000, -0.000000000000000000, 1.000000000000000000 ) ) ;
#277 = ORIENTED_EDGE ( 'NONE', *, *, #318, .T. ) ;
#278 = VECTOR ( 'NONE', #560, 1000.000000000000000 ) ;
#279 = ORIENTED_EDGE ( 'NONE', *, *, #96, .T. ) ;
#280 = DIRECTION ( 'NONE',  ( 0.000000000000000000, -0.000000000000000000, -1.000000000000000000 ) ) ;
#281 = ORIENTED_EDGE ( 'NONE', *, *, #429, .T. ) ;
#282 = CARTESIAN_POINT ( 'NONE',  ( -22.51290300864723193, 3.747619103556834474, 5.835793375815232054 ) ) ;
#283 = PRODUCT_DEFINITION_FORMATION_WITH_SPECIFIED_SOURCE ( 'ANY', '', #86, .NOT_KNOWN. ) ;
#284 = CARTESIAN_POINT ( 'NONE',  ( -28.58611242842813027, 15.00000000000000000, 5.053092140437565805E-16 ) ) ;
#285 = APPROVAL_STATUS ( 'not_yet_approved' ) ;
#286 = CARTESIAN_POINT ( 'NONE',  ( -2.311340175704037492, 15.00000000000000000, 8.196156708193861107 ) ) ;
#287 = CARTESIAN_POINT ( 'NONE',  ( -20.33378670650451525, 15.00000000000000000, -6.048281911657878318 ) ) ;
#288 = EDGE_LOOP ( 'NONE', ( #122, #563 ) ) ;
#289 = PERSON_AND_ORGANIZATION ( #6, #573 ) ;
#290 = CARTESIAN_POINT ( 'NONE',  ( 10.15862687412524679, 15.00000000000000178, 14.27287085196505245 ) ) ;
#291 = CARTESIAN_POINT ( 'NONE',  ( -25.16788719328702584, 15.00000000000000000, -6.048281911657879206 ) ) ;
#292 = PERSON_AND_ORGANIZATION_ROLE ( 'design_owner' ) ;
#293 = CARTESIAN_POINT ( 'NONE',  ( -23.44872412355587699, 4.950180969216583016, 5.602367007114624542 ) ) ;
#294 = CARTESIAN_POINT ( 'NONE',  ( -22.04941975485305150, 11.25023210232509818, -5.918582500071933872 ) ) ;
#295 = ADVANCED_FACE ( 'NONE', ( #238 ), #73, .F. ) ;
#296 = CARTESIAN_POINT ( 'NONE',  ( -20.33378670650451525, 15.00000000000000000, -6.048281911657878318 ) ) ;
#297 = B_SPLINE_SURFACE_WITH_KNOTS ( 'NONE', 2, 1, ( 
 ( #691, #466 ),
 ( #528, #207 ),
 ( #522, #42 ) ),
 .UNSPECIFIED., .F., .F., .F.,
 ( 3, 3 ),
 ( 2, 2 ),
 ( 0.000000000000000000, 1.000000000000000000 ),
 ( 0.000000000000000000, 1.000000000000000000 ),
 .UNSPECIFIED. ) ;
#298 = DIRECTION ( 'NONE',  ( -0.000000000000000000, -1.000000000000000000, -0.000000000000000000 ) ) ;
#299 = CC_DESIGN_SECURITY_CLASSIFICATION ( #228, ( #283 ) ) ;
#300 = CARTESIAN_POINT ( 'NONE',  ( -14.63737554032763022, 9.110195209143812534, -6.653137971636379433 ) ) ;
#301 = CARTESIAN_POINT ( 'NONE',  ( -20.33378670650451525, 0.000000000000000000, -6.048281911657878318 ) ) ;
#302 = B_SPLINE_CURVE_WITH_KNOTS ( 'NONE', 3,
 ( #342, #243, #75, #134, #672, #356, #186, #406, #282, #502, #616, #293, #513, #29, #447, #665, #392, #463 ),
 .UNSPECIFIED., .F., .F.,
 ( 4, 2, 2, 2, 2, 2, 2, 2, 4 ),
 ( 0.000000000000000000, 0.0009224719903571286734, 0.001844943980714257347, 0.002767415971071386128, 0.003689887961428514693, 0.004612359951785644126, 0.005534831942142773992, 0.006457303932499902990, 0.007379775922857032856 ),
 .UNSPECIFIED. ) ;
#303 = CARTESIAN_POINT ( 'NONE',  ( -23.57852812685642618, 5.207820029919253635, -5.562066146189008187 ) ) ;
#304 = VERTEX_POINT ( 'NONE', #259 ) ;
#305 = LINE ( 'NONE', #34, #639 ) ;
#306 = ORIENTED_EDGE ( 'NONE', *, *, #325, .T. ) ;
#307 = CARTESIAN_POINT ( 'NONE',  ( 10.15862687412524679, 15.00000000000000178, 14.27287085196505245 ) ) ;
#308 = CARTESIAN_POINT ( 'NONE',  ( -23.68898960535517162, 9.160326693655868269, -5.526278311838549229 ) ) ;
#309 = APPROVAL_DATE_TIME ( #567, #158 ) ;
#310 = FACE_OUTER_BOUND ( 'NONE', #450, .T. ) ;
#311 = B_SPLINE_CURVE_WITH_KNOTS ( 'NONE', 3,
 ( #41, #517, #469, #294, #76, #622, #205, #514, #480, #313, #308, #422, #530, #684 ),
 .UNSPECIFIED., .F., .F.,
 ( 4, 2, 2, 2, 2, 2, 4 ),
 ( 0.000000000000000000, 0.001622358270662109005, 0.002433537405993161772, 0.003244716541324214974, 0.004055895676655267741, 0.004867074811986320942, 0.006489433082648423008 ),
 .UNSPECIFIED. ) ;
#312 = CARTESIAN_POINT ( 'NONE',  ( -2.311340175704037492, 15.00000000000000000, 8.196156708193861107 ) ) ;
#313 = CARTESIAN_POINT ( 'NONE',  ( -23.57914963063879910, 9.407566866813839468, -5.561866207736273715 ) ) ;
#314 = CARTESIAN_POINT ( 'NONE',  ( -15.88155538488983076, 3.703839016725801514, -6.405168228527280405 ) ) ;
#315 = VECTOR ( 'NONE', #673, 1000.000000000000000 ) ;
#316 = CARTESIAN_POINT ( 'NONE',  ( -2.311340175704037492, 15.00000000000000000, 8.196156708193861107 ) ) ;
#317 =( BOUNDED_CURVE ( )  B_SPLINE_CURVE ( 3, ( #287, #118, #235, #504 ),
 .UNSPECIFIED., .F., .T. ) 
 B_SPLINE_CURVE_WITH_KNOTS ( ( 4, 4 ),
 ( 4.712388980384689674, 6.283185307179586232 ),
 .UNSPECIFIED. ) 
 CURVE ( )  GEOMETRIC_REPRESENTATION_ITEM ( )  RATIONAL_B_SPLINE_CURVE ( ( 1.000000000000000000, 0.8047378541243649375, 0.8047378541243649375, 1.000000000000000000 ) ) 
 REPRESENTATION_ITEM ( '' )  );
#318 = EDGE_CURVE ( 'NONE', #334, #54, #213, .T. ) ;
#319 = ORIENTED_EDGE ( 'NONE', *, *, #1, .T. ) ;
#320 = CARTESIAN_POINT ( 'NONE',  ( -6.868390146362537863, 0.000000000000000000, 9.910066147959778249 ) ) ;
#321 = CARTESIAN_POINT ( 'NONE',  ( -21.51782530446701358, 11.58989171888929803, 5.989262647781054660 ) ) ;
#322 = ORIENTED_EDGE ( 'NONE', *, *, #651, .F. ) ;
#323 = CARTESIAN_POINT ( 'NONE',  ( -16.33534900734224138, 11.26706492850755836, 6.077640099445399180 ) ) ;
#324 = CARTESIAN_POINT ( 'NONE',  ( -24.04665262582588525, 7.308380026651940753, 5.401539806469334515 ) ) ;
#325 = EDGE_CURVE ( 'NONE', #388, #304, #48, .T. ) ;
#326 = ORIENTED_EDGE ( 'NONE', *, *, #3, .T. ) ;
#327 = AXIS2_PLACEMENT_3D ( 'NONE', #488, #50, #269 ) ;
#328 = DIRECTION ( 'NONE',  ( -0.000000000000000000, -0.000000000000000000, 1.000000000000000000 ) ) ;
#329 = CC_DESIGN_PERSON_AND_ORGANIZATION_ASSIGNMENT ( #22, #292, ( #86 ) ) ;
#330 = ORIENTED_EDGE ( 'NONE', *, *, #176, .F. ) ;
#331 = CARTESIAN_POINT ( 'NONE',  ( 0.000000000000000000, 15.00000000000000000, -12.05753682389518389 ) ) ;
#332 = ORIENTED_EDGE ( 'NONE', *, *, #495, .F. ) ;
#333 = CARTESIAN_POINT ( 'NONE',  ( -20.07274503997195225, 12.10508591161255687, 6.049198786957944662 ) ) ;
#334 = VERTEX_POINT ( 'NONE', #147 ) ;
#335 = SECURITY_CLASSIFICATION_LEVEL ( 'unclassified' ) ;
#336 = DIRECTION ( 'NONE',  ( 0.000000000000000000, 1.000000000000000000, 0.000000000000000000 ) ) ;
#337 = AXIS2_PLACEMENT_3D ( 'NONE', #683, #529, #204 ) ;
#338 = EDGE_LOOP ( 'NONE', ( #686, #633, #435, #119 ) ) ;
#339 = CARTESIAN_POINT ( 'NONE',  ( -20.33378670650451525, 15.00000000000000000, -6.048281911657878318 ) ) ;
#340 = VERTEX_POINT ( 'NONE', #369 ) ;
#341 = CARTESIAN_POINT ( 'NONE',  ( -19.60639618238552728, 12.17347115839509009, -6.051366677181960085 ) ) ;
#342 = CARTESIAN_POINT ( 'NONE',  ( -19.45297224204704278, 2.446225414786220131, 6.013730927884667565 ) ) ;
#343 = CARTESIAN_POINT ( 'NONE',  ( -28.58611242842813027, 15.00000000000000000, 5.053092140437565805E-16 ) ) ;
#344 = ORIENTED_EDGE ( 'NONE', *, *, #429, .F. ) ;
#345 = ADVANCED_FACE ( 'NONE', ( #516 ), #477, .F. ) ;
#346 = APPROVAL_DATE_TIME ( #462, #83 ) ;
#347 = CARTESIAN_POINT ( 'NONE',  ( -12.83509164914204526, 0.000000000000000000, -5.917486598240321527 ) ) ;
#348 = CARTESIAN_POINT ( 'NONE',  ( -6.868390146362537863, 15.00000000000000000, 9.910066147959778249 ) ) ;
#349 = DIRECTION ( 'NONE',  ( 0.000000000000000000, 0.000000000000000000, 1.000000000000000000 ) ) ;
#350 = EDGE_CURVE ( 'NONE', #124, #52, #648, .T. ) ;
#351 = CARTESIAN_POINT ( 'NONE',  ( -23.17184756888304165, 4.510509766833547651, -5.680819668042645709 ) ) ;
#352 = SHAPE_DEFINITION_REPRESENTATION ( #360, #161 ) ;
#353 = CARTESIAN_POINT ( 'NONE',  ( -20.33378670650451525, 0.000000000000000000, -6.048281911657878318 ) ) ;
#354 = PERSON_AND_ORGANIZATION ( #6, #573 ) ;
#355 = VECTOR ( 'NONE', #606, 1000.000000000000000 ) ;
#356 = CARTESIAN_POINT ( 'NONE',  ( -21.51886145788020244, 3.027484489419273839, 5.989135682056539345 ) ) ;
#357 = CARTESIAN_POINT ( 'NONE',  ( -20.86734110192264424, 2.708359776754980963, -6.048281911657876542 ) ) ;
#358 = COORDINATED_UNIVERSAL_TIME_OFFSET ( 5, 0, .BEHIND. ) ;
#359 = CARTESIAN_POINT ( 'NONE',  ( -15.62426619884333157, 10.64468708966872867, -6.452050469033854263 ) ) ;
#360 = PRODUCT_DEFINITION_SHAPE ( 'NONE', 'NONE',  #509 ) ;
#361 = DIRECTION ( 'NONE',  ( 1.000000000000000000, 0.000000000000000000, 0.000000000000000000 ) ) ;
#362 = EDGE_LOOP ( 'NONE', ( #113, #582, #216, #268 ) ) ;
#363 = CARTESIAN_POINT ( 'NONE',  ( -19.45297224204704278, 0.000000000000000000, 6.013730927884667565 ) ) ;
#364 = CARTESIAN_POINT ( 'NONE',  ( 2.311340175704043709, 15.00000000000000000, -8.196156708193857554 ) ) ;
#365 = DIRECTION ( 'NONE',  ( -0.000000000000000000, -0.000000000000000000, 1.000000000000000000 ) ) ;
#366 = CARTESIAN_POINT ( 'NONE',  ( 0.000000000000000000, 15.00000000000000000, 0.000000000000000000 ) ) ;
#367 = ORIENTED_EDGE ( 'NONE', *, *, #47, .T. ) ;
#368 = CIRCLE ( 'NONE', #327, 12.05753682389518389 ) ;
#369 = CARTESIAN_POINT ( 'NONE',  ( -14.30665262582588326, 7.308380026662895546, 6.398301505728584360 ) ) ;
#370 = ORIENTED_EDGE ( 'NONE', *, *, #111, .T. ) ;
#371 = CARTESIAN_POINT ( 'NONE',  ( -18.49880342029300095, 12.13448575761106341, -6.100498097820431731 ) ) ;
#372 = VERTEX_POINT ( 'NONE', #198 ) ;
#373 = DIRECTION ( 'NONE',  ( -0.000000000000000000, -1.000000000000000000, -0.000000000000000000 ) ) ;
#374 = CARTESIAN_POINT ( 'NONE',  ( -17.81164944374685533, 11.99484385939739006, 5.984039487589226880 ) ) ;
#375 = ORIENTED_EDGE ( 'NONE', *, *, #53, .T. ) ;
#376 = CARTESIAN_POINT ( 'NONE',  ( -14.30665262582588326, 7.308380026662895546, 6.398301505728584360 ) ) ;
#377 = EDGE_CURVE ( 'NONE', #43, #478, #421, .T. ) ;
#378 = EDGE_LOOP ( 'NONE', ( #499, #534, #177, #326, #61, #485, #84 ) ) ;
#379 = CARTESIAN_POINT ( 'NONE',  ( -19.45297224204704278, 0.000000000000000000, 6.013730927884667565 ) ) ;
#380 = VERTEX_POINT ( 'NONE', #251 ) ;
#381 = CARTESIAN_POINT ( 'NONE',  ( -15.15851581185117603, 4.532703642828844082, -6.540921551455126881 ) ) ;
#382 = CARTESIAN_POINT ( 'NONE',  ( -12.45593841292662241, 15.00000000000000000, 5.621160287565239777 ) ) ;
#383 = EDGE_CURVE ( 'NONE', #167, #478, #638, .T. ) ;
#384 = ORIENTED_EDGE ( 'NONE', *, *, #651, .T. ) ;
#385 = CARTESIAN_POINT ( 'NONE',  ( -23.90021674045209110, 8.533013303527605231, 5.454492883994798369 ) ) ;
#386 = CIRCLE ( 'NONE', #25, 12.05753682389518389 ) ;
#387 = CARTESIAN_POINT ( 'NONE',  ( -14.30665262582559905, 7.142446798187643608, 6.398301505728653638 ) ) ;
#388 = VERTEX_POINT ( 'NONE', #138 ) ;
#389 = CARTESIAN_POINT ( 'NONE',  ( -21.78495451707444630, 11.43227442933988769, 5.956901302736405057 ) ) ;
#390 = DATE_AND_TIME ( #659, #578 ) ;
#391 = CC_DESIGN_PERSON_AND_ORGANIZATION_ASSIGNMENT ( #188, #408, ( #283 ) ) ;
#392 = CARTESIAN_POINT ( 'NONE',  ( -24.04665262582585328, 7.000860374129318942, 5.401539806469346061 ) ) ;
#393 = CARTESIAN_POINT ( 'NONE',  ( -14.34907834380354252, 6.645963985449663269, 6.389162340148669905 ) ) ;
#394 = ORIENTED_EDGE ( 'NONE', *, *, #587, .T. ) ;
#395 = DATE_TIME_ROLE ( 'classification_date' ) ;
#396 = CARTESIAN_POINT ( 'NONE',  ( -11.89327043113411264, 0.000000000000000000, 8.044558362780453109 ) ) ;
#397 = B_SPLINE_CURVE_WITH_KNOTS ( 'NONE', 3,
 ( #97, #432, #532, #647, #374, #541, #483, #46, #323, #55, #642, #591, #694, #539, #537, #214, #212, #430, #154, #376 ),
 .UNSPECIFIED., .F., .F.,
 ( 4, 2, 2, 2, 2, 2, 2, 2, 2, 4 ),
 ( 0.000000000000000000, 0.0009883298327625408136, 0.001976659665525081627, 0.002964989498287622007, 0.003459154414668893715, 0.003953319331050165857, 0.004941649163812712742, 0.005929978996575259627, 0.006918308829337808247, 0.007906638662100355999 ),
 .UNSPECIFIED. ) ;
#398 = CARTESIAN_POINT ( 'NONE',  ( -12.45593841292662241, 0.000000000000000000, 5.621160287565239777 ) ) ;
#399 = CALENDAR_DATE ( 2026, 8, 7 ) ;
#400 = CARTESIAN_POINT ( 'NONE',  ( 0.4709106090039660852, 0.000000000000000000, 6.981022480510386430 ) ) ;
#401 = CARTESIAN_POINT ( 'NONE',  ( -12.45593841292662241, 15.00000000000000000, 5.621160287565239777 ) ) ;
#402 = ORIENTED_EDGE ( 'NONE', *, *, #454, .F. ) ;
#403 = LOCAL_TIME ( 10, 46, 6.000000000000000000, #179 ) ;
#404 = COORDINATED_UNIVERSAL_TIME_OFFSET ( 5, 0, .BEHIND. ) ;
#405 = ADVANCED_FACE ( 'NONE', ( #641 ), #152, .T. ) ;
#406 = CARTESIAN_POINT ( 'NONE',  ( -22.28003423607463773, 3.542727094209648264, 5.880618164002121340 ) ) ;
#407 = CARTESIAN_POINT ( 'NONE',  ( 12.83509164914205058, 0.000000000000000000, 5.917486598240320639 ) ) ;
#408 = PERSON_AND_ORGANIZATION_ROLE ( 'creator' ) ;
#409 = CARTESIAN_POINT ( 'NONE',  ( 0.000000000000000000, 0.000000000000000000, 0.000000000000000000 ) ) ;
#410 = CARTESIAN_POINT ( 'NONE',  ( -22.26014899705605998, 3.529396655377472936, -5.883101944025582064 ) ) ;
#411 = CIRCLE ( 'NONE', #224, 12.05753682389518389 ) ;
#412 = DIRECTION ( 'NONE',  ( -0.000000000000000000, -1.000000000000000000, -0.000000000000000000 ) ) ;
#413 = CARTESIAN_POINT ( 'NONE',  ( 0.4709106090039660852, 0.000000000000000000, 6.981022480510386430 ) ) ;
#414 = CARTESIAN_POINT ( 'NONE',  ( -20.33378670650451525, 2.577847211066803368, -6.048281911657878318 ) ) ;
#415 = CARTESIAN_POINT ( 'NONE',  ( -19.45297224204704278, 12.17053463851854467, 6.013730927884667565 ) ) ;
#416 = CARTESIAN_POINT ( 'NONE',  ( 0.000000000000000000, 15.00000000000000000, 0.000000000000000000 ) ) ;
#417 = DIRECTION ( 'NONE',  ( -0.000000000000000000, -1.000000000000000000, -0.000000000000000000 ) ) ;
#418 = VERTEX_POINT ( 'NONE', #81 ) ;
#419 = PERSON_AND_ORGANIZATION ( #6, #573 ) ;
#420 = CARTESIAN_POINT ( 'NONE',  ( -15.88468821576758216, 10.90189703207369476, -6.406025748731985381 ) ) ;
#421 = LINE ( 'NONE', #588, #23 ) ;
#422 = CARTESIAN_POINT ( 'NONE',  ( -23.95624467005921687, 8.389289730426430225, -5.436314665882314046 ) ) ;
#423 = B_SPLINE_SURFACE_WITH_KNOTS ( 'NONE', 2, 1, ( 
 ( #128, #123 ),
 ( #401, #398 ),
 ( #348, #74 ) ),
 .UNSPECIFIED., .F., .F., .F.,
 ( 3, 3 ),
 ( 2, 2 ),
 ( 0.000000000000000000, 1.000000000000000000 ),
 ( 0.000000000000000000, 1.000000000000000000 ),
 .UNSPECIFIED. ) ;
#424 = CARTESIAN_POINT ( 'NONE',  ( -16.76614340865846486, 11.55582127097390455, -6.269763537720479896 ) ) ;
#425 = VECTOR ( 'NONE', #365, 1000.000000000000000 ) ;
#426 = CARTESIAN_POINT ( 'NONE',  ( -28.58611242842812672, 0.000000000000000000, -3.543001514793314488 ) ) ;
#427 = CARTESIAN_POINT ( 'NONE',  ( -17.78297097915520908, 2.627693007750852683, -6.154542144203269949 ) ) ;
#428 = EDGE_LOOP ( 'NONE', ( #402, #93, #306, #667 ) ) ;
#429 = EDGE_CURVE ( 'NONE', #340, #521, #40, .T. ) ;
#430 = CARTESIAN_POINT ( 'NONE',  ( -14.34028616276130919, 7.968138078440578198, 6.390922283127593140 ) ) ;
#431 = CARTESIAN_POINT ( 'NONE',  ( 14.78130722553332355, 15.00000000000000178, -2.119442564422649777 ) ) ;
#432 = CARTESIAN_POINT ( 'NONE',  ( -19.11982325282262352, 12.18946772645908183, 5.995039505888493991 ) ) ;
#433 = ADVANCED_FACE ( 'NONE', ( #609, #494 ), #103, .T. ) ;
#434 = CARTESIAN_POINT ( 'NONE',  ( -15.37329464529287470, 4.249059954730507904, 6.199791042029982435 ) ) ;
#435 = ORIENTED_EDGE ( 'NONE', *, *, #685, .T. ) ;
#436 = CARTESIAN_POINT ( 'NONE',  ( -20.95775479972658317, 11.85151847139555059, 6.034501711400693580 ) ) ;
#437 =( BOUNDED_CURVE ( )  B_SPLINE_CURVE ( 3, ( #316, #2, #431, #156 ),
 .UNSPECIFIED., .F., .T. ) 
 B_SPLINE_CURVE_WITH_KNOTS ( ( 4, 4 ),
 ( 2.786592683734146370, 5.928185337323938597 ),
 .UNSPECIFIED. ) 
 CURVE ( )  GEOMETRIC_REPRESENTATION_ITEM ( )  RATIONAL_B_SPLINE_CURVE ( ( 1.000000000000000000, 0.3333333333333337034, 0.3333333333333337034, 1.000000000000000000 ) ) 
 REPRESENTATION_ITEM ( '' )  );
#438 = ORIENTED_EDGE ( 'NONE', *, *, #3, .F. ) ;
#439 = CARTESIAN_POINT ( 'NONE',  ( -24.04665262582590657, 7.615675353150972882, 5.401539806469323857 ) ) ;
#440 = ORIENTED_EDGE ( 'NONE', *, *, #111, .F. ) ;
#441 = PERSON_AND_ORGANIZATION ( #6, #573 ) ;
#442 = EDGE_CURVE ( 'NONE', #380, #124, #201, .T. ) ;
#443 = CARTESIAN_POINT ( 'NONE',  ( 0.000000000000000000, 0.000000000000000000, 0.000000000000000000 ) ) ;
#444 = CARTESIAN_POINT ( 'NONE',  ( -23.58667389540282855, 9.397133539896408649, 5.559326269884109273 ) ) ;
#445 = VERTEX_POINT ( 'NONE', #331 ) ;
#446 = APPLICATION_PROTOCOL_DEFINITION ( 'international standard', 'config_control_design', 1994, #245 ) ;
#447 = CARTESIAN_POINT ( 'NONE',  ( -23.90105312496174861, 6.086538317849811364, 5.454199382196789792 ) ) ;
#448 = ORIENTED_EDGE ( 'NONE', *, *, #47, .F. ) ;
#449 = CARTESIAN_POINT ( 'NONE',  ( 11.89327043113411619, 0.000000000000000000, -8.044558362780451333 ) ) ;
#450 = EDGE_LOOP ( 'NONE', ( #277, #643, #256, #37, #657, #101, #384 ) ) ;
#451 = APPROVAL_STATUS ( 'not_yet_approved' ) ;
#452 = B_SPLINE_CURVE_WITH_KNOTS ( 'NONE', 3,
 ( #324, #439, #9, #385, #109, #444, #548, #661, #172, #542, #11, #389, #321, #436, #112, #333, #270, #489 ),
 .UNSPECIFIED., .F., .F.,
 ( 4, 2, 2, 2, 2, 2, 2, 2, 4 ),
 ( 0.007379775922857032856, 0.008301574998583268958, 0.009223374074309505927, 0.01014517315003574290, 0.01106697222576197986, 0.01198877130148821510, 0.01291057037721445380, 0.01383236945294068904, 0.01475416852866692601 ),
 .UNSPECIFIED. ) ;
#453 = CARTESIAN_POINT ( 'NONE',  ( 0.000000000000000000, 0.000000000000000000, -12.05753682389518389 ) ) ;
#454 = EDGE_CURVE ( 'NONE', #550, #105, #545, .T. ) ;
#455 = AXIS2_PLACEMENT_3D ( 'NONE', #416, #373, #579 ) ;
#456 = CARTESIAN_POINT ( 'NONE',  ( -28.58611242842813027, 0.000000000000000000, 5.053092140437565805E-16 ) ) ;
#457 = ORIENTED_EDGE ( 'NONE', *, *, #481, .F. ) ;
#458 = CARTESIAN_POINT ( 'NONE',  ( -19.97221097082830354, 12.12735776436573865, -6.046224573259249446 ) ) ;
#459 = LINE ( 'NONE', #120, #278 ) ;
#460 = CC_DESIGN_DATE_AND_TIME_ASSIGNMENT ( #390, #395, ( #228 ) ) ;
#461 = CARTESIAN_POINT ( 'NONE',  ( -19.45297224204704278, 0.000000000000000000, 6.013730927884667565 ) ) ;
#462 = DATE_AND_TIME ( #20, #538 ) ;
#463 = CARTESIAN_POINT ( 'NONE',  ( -24.04665262582588525, 7.308380026651940753, 5.401539806469334515 ) ) ;
#464 = CARTESIAN_POINT ( 'NONE',  ( 0.000000000000000000, 15.00000000000000000, -12.05753682389518389 ) ) ;
#465 = CARTESIAN_POINT ( 'NONE',  ( -14.30665262582588682, 7.308380026628809922, -6.730873057416998151 ) ) ;
#466 = CARTESIAN_POINT ( 'NONE',  ( -6.868390146362537863, 0.000000000000000000, -9.910066147959776472 ) ) ;
#467 = MANIFOLD_SOLID_BREP ( 'Cut-Loft1', #107 ) ;
#468 = CARTESIAN_POINT ( 'NONE',  ( 12.83509164914204703, 0.000000000000000000, 5.917486598240320639 ) ) ;
#469 = CARTESIAN_POINT ( 'NONE',  ( -21.36368907044573362, 11.69359685667591719, -6.010654667229131221 ) ) ;
#470 = B_SPLINE_CURVE_WITH_KNOTS ( 'NONE', 2,
 ( #379, #99, #320 ),
 .UNSPECIFIED., .F., .F.,
 ( 3, 3 ),
 ( 0.000000000000000000, 1.000000000000000000 ),
 .UNSPECIFIED. ) ;
#471 = CC_DESIGN_PERSON_AND_ORGANIZATION_ASSIGNMENT ( #441, #619, ( #283 ) ) ;
#472 = FACE_BOUND ( 'NONE', #482, .T. ) ;
#473 = CARTESIAN_POINT ( 'NONE',  ( -20.33378670650451525, 15.00000000000000000, -6.048281911657878318 ) ) ;
#474 = CARTESIAN_POINT ( 'NONE',  ( -6.868390146362527204, 0.000000000000000000, -9.910066147959785354 ) ) ;
#475 = APPROVAL_PERSON_ORGANIZATION ( #289, #215, #569 ) ;
#476 = CARTESIAN_POINT ( 'NONE',  ( -14.51493449109397638, 8.765179528406202181, -6.681548280328556189 ) ) ;
#477 = CYLINDRICAL_SURFACE ( 'NONE', #57, 4.869999999999999218 ) ;
#478 = VERTEX_POINT ( 'NONE', #604 ) ;
#479 = CARTESIAN_POINT ( 'NONE',  ( -16.45629309993032763, 11.36436785524497850, -6.313768700254680510 ) ) ;
#480 = CARTESIAN_POINT ( 'NONE',  ( -23.32253460327188321, 9.877470896275772461, -5.638590378727148078 ) ) ;
#481 = EDGE_CURVE ( 'NONE', #595, #340, #230, .T. ) ;
#482 = EDGE_LOOP ( 'NONE', ( #219, #200 ) ) ;
#483 = CARTESIAN_POINT ( 'NONE',  ( -16.89497605709125594, 11.62351463860092515, 6.027823734623670049 ) ) ;
#484 = AXIS2_PLACEMENT_3D ( 'NONE', #668, #349, #508 ) ;
#485 = ORIENTED_EDGE ( 'NONE', *, *, #627, .T. ) ;
#486 = CARTESIAN_POINT ( 'NONE',  ( -18.49909162131492479, 2.471842981787940818, -6.098602753986607894 ) ) ;
#487 = ORIENTED_EDGE ( 'NONE', *, *, #600, .F. ) ;
#488 = CARTESIAN_POINT ( 'NONE',  ( 0.000000000000000000, 15.00000000000000000, 0.000000000000000000 ) ) ;
#489 = CARTESIAN_POINT ( 'NONE',  ( -19.45297224204704278, 12.17053463851854467, 6.013730927884667565 ) ) ;
#490 = DIRECTION ( 'NONE',  ( -0.000000000000000000, -1.000000000000000000, -0.000000000000000000 ) ) ;
#491 = ORIENTED_EDGE ( 'NONE', *, *, #377, .T. ) ;
#492 = CC_DESIGN_APPROVAL ( #215, ( #283 ) ) ;
#493 = CARTESIAN_POINT ( 'NONE',  ( -14.30665262582588682, 7.308380026652381289, -12.05753682389518389 ) ) ;
#494 = FACE_OUTER_BOUND ( 'NONE', #129, .T. ) ;
#495 = EDGE_CURVE ( 'NONE', #155, #645, #452, .T. ) ;
#496 = EDGE_LOOP ( 'NONE', ( #104, #236, #646, #487, #163, #69, #367 ) ) ;
#497 = VECTOR ( 'NONE', #276, 1000.000000000000000 ) ;
#498 = CARTESIAN_POINT ( 'NONE',  ( -14.39943812298169590, 6.320404933727973962, 6.378377197247321995 ) ) ;
#499 = ORIENTED_EDGE ( 'NONE', *, *, #377, .F. ) ;
#500 = EDGE_CURVE ( 'NONE', #334, #159, #5, .T. ) ;
#501 = APPLICATION_PROTOCOL_DEFINITION ( 'international standard', 'config_control_design', 1994, #211 ) ;
#502 = CARTESIAN_POINT ( 'NONE',  ( -22.93038872373310610, 4.190840888872692460, 5.743298612038874040 ) ) ;
#503 = ORIENTED_EDGE ( 'NONE', *, *, #558, .F. ) ;
#504 = CARTESIAN_POINT ( 'NONE',  ( -28.58611242842813027, 15.00000000000000000, 5.053092140437565805E-16 ) ) ;
#505 = ORIENTED_EDGE ( 'NONE', *, *, #206, .F. ) ;
#506 = FACE_OUTER_BOUND ( 'NONE', #338, .T. ) ;
#507 = CARTESIAN_POINT ( 'NONE',  ( -28.58611242842813027, 15.00000000000000000, 5.053092140437565805E-16 ) ) ;
#508 = DIRECTION ( 'NONE',  ( 1.000000000000000000, 0.000000000000000000, 0.000000000000000000 ) ) ;
#509 = PRODUCT_DEFINITION ( 'UNKNOWN', '', #283, #669 ) ;
#510 = CARTESIAN_POINT ( 'NONE',  ( -10.15862687412524501, 14.99999999999999822, -14.27287085196507199 ) ) ;
#511 = CARTESIAN_POINT ( 'NONE',  ( -28.58611242842812672, 0.000000000000000000, -3.543001514793314488 ) ) ;
#512 = LOCAL_TIME ( 10, 46, 6.000000000000000000, #133 ) ;
#513 = CARTESIAN_POINT ( 'NONE',  ( -23.58797345855767702, 5.222679689720155949, 5.558906628875852185 ) ) ;
#514 = CARTESIAN_POINT ( 'NONE',  ( -23.17537223431882509, 10.10125210809438911, -5.679873886483110645 ) ) ;
#515 = FACE_OUTER_BOUND ( 'NONE', #649, .T. ) ;
#516 = FACE_OUTER_BOUND ( 'NONE', #79, .T. ) ;
#517 = CARTESIAN_POINT ( 'NONE',  ( -20.86704155902013014, 11.90847354764093247, -6.048281911657878318 ) ) ;
#518 = CARTESIAN_POINT ( 'NONE',  ( -18.86500799573883214, 12.17188223148088611, -6.079671815159349180 ) ) ;
#519 = CARTESIAN_POINT ( 'NONE',  ( -6.868390146362527204, 15.00000000000000000, -9.910066147959785354 ) ) ;
#520 = CARTESIAN_POINT ( 'NONE',  ( -0.4709106090039646975, 0.000000000000000000, -6.981022480510386430 ) ) ;
#521 = VERTEX_POINT ( 'NONE', #221 ) ;
#522 = CARTESIAN_POINT ( 'NONE',  ( -20.33378670650451525, 15.00000000000000000, -6.048281911657878318 ) ) ;
#523 = ADVANCED_FACE ( 'NONE', ( #599 ), #222, .F. ) ;
#524 = ORIENTED_EDGE ( 'NONE', *, *, #495, .T. ) ;
#525 = CARTESIAN_POINT ( 'NONE',  ( -10.15862687412524501, 14.99999999999999822, -14.27287085196507199 ) ) ;
#526 = CARTESIAN_POINT ( 'NONE',  ( 0.000000000000000000, 15.00000000000000000, 0.000000000000000000 ) ) ;
#527 = CALENDAR_DATE ( 2026, 8, 7 ) ;
#528 = CARTESIAN_POINT ( 'NONE',  ( -13.02424237247522321, 15.00000000000000000, -6.006691161087337250 ) ) ;
#529 = DIRECTION ( 'NONE',  ( 0.000000000000000000, 1.000000000000000000, 0.000000000000000000 ) ) ;
#530 = CARTESIAN_POINT ( 'NONE',  ( -24.04665262582589236, 7.856710848580398476, -5.401539806469335403 ) ) ;
#531 = EDGE_CURVE ( 'NONE', #550, #388, #203, .T. ) ;
#532 = CARTESIAN_POINT ( 'NONE',  ( -18.79024060868010437, 12.17420814954483710, 5.984372004866886030 ) ) ;
#533 = CIRCLE ( 'NONE', #180, 12.05753682389518389 ) ;
#534 = ORIENTED_EDGE ( 'NONE', *, *, #547, .F. ) ;
#535 =( GEOMETRIC_REPRESENTATION_CONTEXT ( 3 ) GLOBAL_UNCERTAINTY_ASSIGNED_CONTEXT ( ( #18 ) ) GLOBAL_UNIT_ASSIGNED_CONTEXT ( ( #62, #610, #28 ) ) REPRESENTATION_CONTEXT ( 'NONE', 'WORKASPACE' ) );
#536 = ORIENTED_EDGE ( 'NONE', *, *, #206, .T. ) ;
#537 = CARTESIAN_POINT ( 'NONE',  ( -14.83521781092101754, 9.539317839830367518, 6.291657934037225175 ) ) ;
#538 = LOCAL_TIME ( 10, 46, 6.000000000000000000, #404 ) ;
#539 = CARTESIAN_POINT ( 'NONE',  ( -14.99487425130367590, 9.826181755897286152, 6.262277455628699308 ) ) ;
#540 = CARTESIAN_POINT ( 'NONE',  ( -18.13216937251334215, 2.540117604935019369, 5.978760716420176813 ) ) ;
#541 = CARTESIAN_POINT ( 'NONE',  ( -17.19086363769578085, 11.76739550513349464, 6.008677004740746952 ) ) ;
#542 = CARTESIAN_POINT ( 'NONE',  ( -22.50797869153846165, 10.87405274515195863, 5.836834073562588543 ) ) ;
#543 = ORIENTED_EDGE ( 'NONE', *, *, #250, .T. ) ;
#544 = AXIS2_PLACEMENT_3D ( 'NONE', #574, #298, #15 ) ;
#545 = B_SPLINE_CURVE_WITH_KNOTS ( 'NONE', 1,
 ( #275, #598 ),
 .UNSPECIFIED., .F., .F.,
 ( 2, 2 ),
 ( 0.000000000000000000, 1.000000000000000000 ),
 .UNSPECIFIED. ) ;
#546 = DIRECTION ( 'NONE',  ( 1.000000000000000000, 0.000000000000000000, 0.000000000000000000 ) ) ;
#547 = EDGE_CURVE ( 'NONE', #54, #43, #317, .T. ) ;
#548 = CARTESIAN_POINT ( 'NONE',  ( -23.44506748787588180, 9.672722591121807767, 5.603426249340746956 ) ) ;
#549 = DIRECTION ( 'NONE',  ( 0.000000000000000000, -1.000000000000000000, 0.000000000000000000 ) ) ;
#550 = VERTEX_POINT ( 'NONE', #187 ) ;
#551 = PERSON_AND_ORGANIZATION_ROLE ( 'classification_officer' ) ;
#552 = VECTOR ( 'NONE', #417, 1000.000000000000000 ) ;
#553 = CARTESIAN_POINT ( 'NONE',  ( -10.15862687412524501, 15.00000000000000178, -14.27287085196507199 ) ) ;
#554 = VERTEX_POINT ( 'NONE', #183 ) ;
#555 = CARTESIAN_POINT ( 'NONE',  ( -25.16788719328702584, 0.000000000000000000, -6.048281911657879206 ) ) ;
#556 = ORIENTED_EDGE ( 'NONE', *, *, #675, .F. ) ;
#557 = CARTESIAN_POINT ( 'NONE',  ( -20.33378670650451525, 12.03891284223795921, -6.048281911657878318 ) ) ;
#558 = EDGE_CURVE ( 'NONE', #43, #380, #10, .T. ) ;
#559 =( BOUNDED_SURFACE ( )  B_SPLINE_SURFACE ( 3, 1, ( 
 ( #339, #353 ),
 ( #291, #555 ),
 ( #666, #511 ),
 ( #343, #65 ) ),
 .UNSPECIFIED., .F., .F., .F. ) 
 B_SPLINE_SURFACE_WITH_KNOTS ( ( 4, 4 ),
 ( 2, 2 ),
 ( 0.000000000000000000, 1.000000000000000000 ),
 ( 0.000000000000000000, 1.000000000000000000 ),
 .UNSPECIFIED. ) 
 GEOMETRIC_REPRESENTATION_ITEM ( )  RATIONAL_B_SPLINE_SURFACE ( (
 ( 1.000000000000000000, 1.000000000000000000),
 ( 0.8047378541243649375, 0.8047378541243649375),
 ( 0.8047378541243649375, 0.8047378541243649375),
 ( 1.000000000000000000, 1.000000000000000000) ) ) 
 REPRESENTATION_ITEM ( '' )  SURFACE ( )  );
#560 = DIRECTION ( 'NONE',  ( -0.000000000000000000, -1.000000000000000000, -0.000000000000000000 ) ) ;
#561 = FACE_OUTER_BOUND ( 'NONE', #110, .T. ) ;
#562 = CC_DESIGN_APPROVAL ( #158, ( #228 ) ) ;
#563 = ORIENTED_EDGE ( 'NONE', *, *, #531, .F. ) ;
#564 = CARTESIAN_POINT ( 'NONE',  ( -6.868390146362537863, 15.00000000000000000, 9.910066147959778249 ) ) ;
#565 = CARTESIAN_POINT ( 'NONE',  ( 1.476622387698457963E-15, 0.000000000000000000, 12.05753682389518389 ) ) ;
#566 = B_SPLINE_CURVE_WITH_KNOTS ( 'NONE', 3,
 ( #199, #631, #143, #677, #584, #680, #303, #617, #351, #190, #209, #410, #571, #135, #357, #575 ),
 .UNSPECIFIED., .F., .F.,
 ( 4, 2, 2, 2, 2, 2, 2, 4 ),
 ( 0.006489433082648423008, 0.007300812076401505188, 0.008112191070154586500, 0.008923570063907669547, 0.009734949057660750860, 0.01054632805141383217, 0.01135770704516691348, 0.01298046503267306917 ),
 .UNSPECIFIED. ) ;
#567 = DATE_AND_TIME ( #527, #602 ) ;
#568 = FACE_OUTER_BOUND ( 'NONE', #378, .T. ) ;
#569 = APPROVAL_ROLE ( '' ) ;
#570 = DIRECTION ( 'NONE',  ( -0.000000000000000000, -1.000000000000000000, -0.000000000000000000 ) ) ;
#571 = CARTESIAN_POINT ( 'NONE',  ( -22.04479904895799081, 3.363228137151928365, -5.919287026440235522 ) ) ;
#572 = CARTESIAN_POINT ( 'NONE',  ( -19.45297224204704278, 15.00000000000000000, 6.013730927884667565 ) ) ;
#573 = ORGANIZATION ( 'UNSPECIFIED', 'UNSPECIFIED', '' ) ;
#574 = CARTESIAN_POINT ( 'NONE',  ( 0.000000000000000000, 15.00000000000000000, 0.000000000000000000 ) ) ;
#575 = CARTESIAN_POINT ( 'NONE',  ( -20.33378670650451525, 2.577847211066803368, -6.048281911657878318 ) ) ;
#576 = ADVANCED_FACE ( 'NONE', ( #561 ), #423, .F. ) ;
#577 = CARTESIAN_POINT ( 'NONE',  ( -15.50198530618733272, 10.50946267382645694, -6.474753209648384633 ) ) ;
#578 = LOCAL_TIME ( 10, 46, 6.000000000000000000, #174 ) ;
#579 = DIRECTION ( 'NONE',  ( 0.000000000000000000, 0.000000000000000000, -1.000000000000000000 ) ) ;
#580 = CYLINDRICAL_SURFACE ( 'NONE', #210, 12.05753682389518389 ) ;
#581 = ADVANCED_FACE ( 'NONE', ( #568 ), #559, .F. ) ;
#582 = ORIENTED_EDGE ( 'NONE', *, *, #223, .T. ) ;
#583 = FACE_OUTER_BOUND ( 'NONE', #496, .T. ) ;
#584 = CARTESIAN_POINT ( 'NONE',  ( -23.86629794538201210, 5.967448746854816299, -5.466603236382144182 ) ) ;
#585 = AXIS2_PLACEMENT_3D ( 'NONE', #409, #608, #72 ) ;
#586 = PLANE ( 'NONE',  #98 ) ;
#587 = EDGE_CURVE ( 'NONE', #478, #418, #632, .T. ) ;
#588 = CARTESIAN_POINT ( 'NONE',  ( -28.58611242842813027, 15.00000000000000000, 5.053092140437565805E-16 ) ) ;
#589 = CARTESIAN_POINT ( 'NONE',  ( 0.4709106090039659187, 0.000000000000000000, 6.981022480510387318 ) ) ;
#590 = CARTESIAN_POINT ( 'NONE',  ( -28.58611242842812672, 15.00000000000000000, 3.851079264062132523 ) ) ;
#591 = CARTESIAN_POINT ( 'NONE',  ( -15.59110879723773557, 10.62024712608410759, 6.166933653716393238 ) ) ;
#592 = CARTESIAN_POINT ( 'NONE',  ( -6.868390146362537863, 15.00000000000000000, 9.910066147959778249 ) ) ;
#593 = ORIENTED_EDGE ( 'NONE', *, *, #261, .F. ) ;
#594 = CARTESIAN_POINT ( 'NONE',  ( -14.51499903756199217, 5.852057241922405950, -6.681535008792771180 ) ) ;
#595 = VERTEX_POINT ( 'NONE', #465 ) ;
#596 = CARTESIAN_POINT ( 'NONE',  ( -16.45624282525311344, 3.252550612535636265, -6.313788653059914324 ) ) ;
#597 = EDGE_CURVE ( 'NONE', #380, #645, #239, .T. ) ;
#598 = CARTESIAN_POINT ( 'NONE',  ( 2.311340175704043709, 15.00000000000000000, -8.196156708193857554 ) ) ;
#599 = FACE_OUTER_BOUND ( 'NONE', #141, .T. ) ;
#600 = EDGE_CURVE ( 'NONE', #54, #554, #77, .T. ) ;
#601 = CARTESIAN_POINT ( 'NONE',  ( -16.89266156105837879, 2.994405915490768066, 6.027979613298541040 ) ) ;
#602 = LOCAL_TIME ( 10, 46, 6.000000000000000000, #358 ) ;
#603 = ORIENTED_EDGE ( 'NONE', *, *, #685, .F. ) ;
#604 = CARTESIAN_POINT ( 'NONE',  ( -28.58611242842813027, 0.000000000000000000, 5.053092140437565805E-16 ) ) ;
#605 = ORIENTED_EDGE ( 'NONE', *, *, #176, .T. ) ;
#606 = DIRECTION ( 'NONE',  ( -0.000000000000000000, -1.000000000000000000, -0.000000000000000000 ) ) ;
#607 =( BOUNDED_CURVE ( )  B_SPLINE_CURVE ( 3, ( #24, #553, #17, #229 ),
 .UNSPECIFIED., .F., .F. ) 
 B_SPLINE_CURVE_WITH_KNOTS ( ( 4, 4 ),
 ( 5.928185337323938597, 9.069777990913731713 ),
 .UNSPECIFIED. ) 
 CURVE ( )  GEOMETRIC_REPRESENTATION_ITEM ( )  RATIONAL_B_SPLINE_CURVE ( ( 1.000000000000000000, 0.3333333333333333703, 0.3333333333333333703, 1.000000000000000000 ) ) 
 REPRESENTATION_ITEM ( '' )  );
#608 = DIRECTION ( 'NONE',  ( 0.000000000000000000, 1.000000000000000000, 0.000000000000000000 ) ) ;
#609 = FACE_BOUND ( 'NONE', #288, .T. ) ;
#610 =( NAMED_UNIT ( * ) PLANE_ANGLE_UNIT ( ) SI_UNIT ( $, .RADIAN. ) );
#611 = CARTESIAN_POINT ( 'NONE',  ( 2.311340175704043709, 15.00000000000000000, -8.196156708193857554 ) ) ;
#612 = EDGE_LOOP ( 'NONE', ( #322, #375, #536, #258 ) ) ;
#613 = CARTESIAN_POINT ( 'NONE',  ( 12.83509164914204703, 0.000000000000000000, 5.917486598240320639 ) ) ;
#614 = CARTESIAN_POINT ( 'NONE',  ( -28.58611242842812672, 15.00000000000000000, 3.851079264062132523 ) ) ;
#615 = DATE_AND_TIME ( #399, #403 ) ;
#616 = CARTESIAN_POINT ( 'NONE',  ( -23.11771454709074192, 4.430928270503491362, 5.695207014732851292 ) ) ;
#617 = CARTESIAN_POINT ( 'NONE',  ( -23.32118704311597313, 4.737058442263093028, -5.638979053389388874 ) ) ;
#618 = CARTESIAN_POINT ( 'NONE',  ( 0.4709106090039659187, 0.000000000000000000, 6.981022480510387318 ) ) ;
#619 = PERSON_AND_ORGANIZATION_ROLE ( 'design_supplier' ) ;
#620 = ADVANCED_FACE ( 'NONE', ( #515 ), #146, .F. ) ;
#621 = CARTESIAN_POINT ( 'NONE',  ( -14.78130722553333420, 14.99999999999999822, 2.119442564422644892 ) ) ;
#622 = CARTESIAN_POINT ( 'NONE',  ( -22.65800491165218844, 10.72435686131270138, -5.805382490931891404 ) ) ;
#623 = CIRCLE ( 'NONE', #585, 12.05753682389518389 ) ;
#624 = CARTESIAN_POINT ( 'NONE',  ( -14.35851342649833207, 8.040694958375990353, -6.718437098685620334 ) ) ;
#625 = CC_DESIGN_APPROVAL ( #83, ( #509 ) ) ;
#626 = CARTESIAN_POINT ( 'NONE',  ( -28.58611242842813027, 0.000000000000000000, 5.053092140437565805E-16 ) ) ;
#627 = EDGE_CURVE ( 'NONE', #13, #167, #305, .T. ) ;
#628 = CARTESIAN_POINT ( 'NONE',  ( -19.97208662856703043, 2.489371873619266484, -6.046223865761254146 ) ) ;
#629 = DIRECTION ( 'NONE',  ( 0.000000000000000000, -0.000000000000000000, -1.000000000000000000 ) ) ;
#630 = CARTESIAN_POINT ( 'NONE',  ( -14.30665262582588326, 7.308380026662895546, 6.398301505728584360 ) ) ;
#631 = CARTESIAN_POINT ( 'NONE',  ( -24.04665262582588525, 7.034147066778362323, -5.401539806469337179 ) ) ;
#632 =( BOUNDED_CURVE ( )  B_SPLINE_CURVE ( 3, ( #456, #670, #27, #461 ),
 .UNSPECIFIED., .F., .F. ) 
 B_SPLINE_CURVE_WITH_KNOTS ( ( 4, 4 ),
 ( 0.000000000000000000, 1.677735335510716519 ),
 .UNSPECIFIED. ) 
 CURVE ( )  GEOMETRIC_REPRESENTATION_ITEM ( )  RATIONAL_B_SPLINE_CURVE ( ( 1.000000000000000000, 0.7788703874494334878, 0.7788703874494334878, 1.000000000000000000 ) ) 
 REPRESENTATION_ITEM ( '' )  );
#633 = ORIENTED_EDGE ( 'NONE', *, *, #350, .F. ) ;
#634 = ADVANCED_FACE ( 'NONE', ( #472, #310 ), #586, .F. ) ;
#635 = CARTESIAN_POINT ( 'NONE',  ( -14.87833550227110457, 9.605125225417868506, -6.600448818441736698 ) ) ;
#636 = DIRECTION ( 'NONE',  ( -0.000000000000000000, -1.000000000000000000, -0.000000000000000000 ) ) ;
#637 = CARTESIAN_POINT ( 'NONE',  ( -20.33378670650451525, 0.000000000000000000, -6.048281911657878318 ) ) ;
#638 =( BOUNDED_CURVE ( )  B_SPLINE_CURVE ( 3, ( #301, #692, #426, #626 ),
 .UNSPECIFIED., .F., .T. ) 
 B_SPLINE_CURVE_WITH_KNOTS ( ( 4, 4 ),
 ( 4.712388980384689674, 6.283185307179586232 ),
 .UNSPECIFIED. ) 
 CURVE ( )  GEOMETRIC_REPRESENTATION_ITEM ( )  RATIONAL_B_SPLINE_CURVE ( ( 1.000000000000000000, 0.8047378541243649375, 0.8047378541243649375, 1.000000000000000000 ) ) 
 REPRESENTATION_ITEM ( '' )  );
#639 = VECTOR ( 'NONE', #412, 1000.000000000000000 ) ;
#640 = CARTESIAN_POINT ( 'NONE',  ( -17.43581260796585042, 11.86032758809250076, -6.190982668378940623 ) ) ;
#641 = FACE_OUTER_BOUND ( 'NONE', #612, .T. ) ;
#642 = CARTESIAN_POINT ( 'NONE',  ( -15.94865497456197545, 10.95856539471122737, 6.120877897877459617 ) ) ;
#643 = ORIENTED_EDGE ( 'NONE', *, *, #547, .T. ) ;
#644 = CARTESIAN_POINT ( 'NONE',  ( -14.30665262582588682, 7.308380026628809922, -6.730873057416998151 ) ) ;
#645 = VERTEX_POINT ( 'NONE', #415 ) ;
#646 = ORIENTED_EDGE ( 'NONE', *, *, #675, .T. ) ;
#647 = CARTESIAN_POINT ( 'NONE',  ( -18.13795066343701379, 12.07772964707813657, 5.978756779017400547 ) ) ;
#648 = CIRCLE ( 'NONE', #337, 12.05753682389518389 ) ;
#649 = EDGE_LOOP ( 'NONE', ( #503, #491, #394, #330, #178, #524, #240 ) ) ;
#650 = CARTESIAN_POINT ( 'NONE',  ( -14.63700134606992442, 5.507016767296793347, -6.653214017236726008 ) ) ;
#651 = EDGE_CURVE ( 'NONE', #445, #334, #386, .T. ) ;
#652 = CARTESIAN_POINT ( 'NONE',  ( -18.78939657956252063, 2.442446966750637216, 5.984311572181833405 ) ) ;
#653 = CARTESIAN_POINT ( 'NONE',  ( -14.63986255491499122, 5.530227194726301754, 6.329341777968719107 ) ) ;
#654 = ADVANCED_FACE ( 'NONE', ( #583 ), #297, .F. ) ;
#655 = CARTESIAN_POINT ( 'NONE',  ( -14.99664317041484729, 4.787964945118676319, 6.261981067740215678 ) ) ;
#656 =( BOUNDED_SURFACE ( )  B_SPLINE_SURFACE ( 3, 1, ( 
 ( #400, #234 ),
 ( #613, #290 ),
 ( #126, #67 ),
 ( #115, #611 ),
 ( #347, #510 ),
 ( #396, #621 ),
 ( #660, #286 ) ),
 .UNSPECIFIED., .T., .F., .F. ) 
 B_SPLINE_SURFACE_WITH_KNOTS ( ( 4, 3, 4 ),
 ( 2, 2 ),
 ( 0.000000000000000000, 0.5000000000000000000, 1.000000000000000000 ),
 ( 0.000000000000000000, 1.000000000000000000 ),
 .UNSPECIFIED. ) 
 GEOMETRIC_REPRESENTATION_ITEM ( )  RATIONAL_B_SPLINE_SURFACE ( (
 ( 1.000000000000000000, 1.000000000000000000),
 ( 0.3333333333333333703, 0.3333333333333337034),
 ( 0.3333333333333333703, 0.3333333333333337034),
 ( 1.000000000000000000, 1.000000000000000000),
 ( 0.3333333333333333703, 0.3333333333333333703),
 ( 0.3333333333333333703, 0.3333333333333333703),
 ( 1.000000000000000000, 1.000000000000000000) ) ) 
 REPRESENTATION_ITEM ( '' )  SURFACE ( )  );
#657 = ORIENTED_EDGE ( 'NONE', *, *, #350, .T. ) ;
#658 = CARTESIAN_POINT ( 'NONE',  ( -14.48227772654535173, 6.001850777030378836, 6.361128236759300947 ) ) ;
#659 = CALENDAR_DATE ( 2026, 8, 7 ) ;
#660 = CARTESIAN_POINT ( 'NONE',  ( 0.4709106090039660852, 0.000000000000000000, 6.981022480510386430 ) ) ;
#661 = CARTESIAN_POINT ( 'NONE',  ( -23.11757913022509570, 10.18563209827471283, 5.695210957667728557 ) ) ;
#662 = ORIENTED_EDGE ( 'NONE', *, *, #166, .F. ) ;
#663 = DATE_TIME_ROLE ( 'creation_date' ) ;
#664 = PRODUCT_RELATED_PRODUCT_CATEGORY ( 'detail', '', ( #86 ) ) ;
#665 = CARTESIAN_POINT ( 'NONE',  ( -24.01778866324505657, 6.694980397694076935, 5.412355060011560859 ) ) ;
#666 = CARTESIAN_POINT ( 'NONE',  ( -28.58611242842812672, 15.00000000000000000, -3.543001514793314488 ) ) ;
#667 = ORIENTED_EDGE ( 'NONE', *, *, #116, .T. ) ;
#668 = CARTESIAN_POINT ( 'NONE',  ( 0.000000000000000000, 0.000000000000000000, 0.000000000000000000 ) ) ;
#669 = DESIGN_CONTEXT ( 'detailed design', #211, 'design' ) ;
#670 = CARTESIAN_POINT ( 'NONE',  ( -28.58611242842812672, 0.000000000000000000, 3.851079264062132523 ) ) ;
#671 = CARTESIAN_POINT ( 'NONE',  ( -19.05145574851469448, 12.18028402335152371, -6.071060057760747419 ) ) ;
#672 = CARTESIAN_POINT ( 'NONE',  ( -20.96013355021920432, 2.766221442236732830, 6.034352578447969684 ) ) ;
#673 = DIRECTION ( 'NONE',  ( -0.000000000000000000, -1.000000000000000000, -0.000000000000000000 ) ) ;
#674 = APPROVAL_DATE_TIME ( #615, #215 ) ;
#675 = EDGE_CURVE ( 'NONE', #595, #554, #197, .T. ) ;
#676 = CARTESIAN_POINT ( 'NONE',  ( -20.33378670650451525, 0.000000000000000000, -6.048281911657878318 ) ) ;
#677 = CARTESIAN_POINT ( 'NONE',  ( -23.93372823892478607, 6.231307134245098744, -5.442570450112950375 ) ) ;
#678 = CARTESIAN_POINT ( 'NONE',  ( -14.30665262582500397, 7.491905711377162547, -6.730873057417211314 ) ) ;
#679 = CARTESIAN_POINT ( 'NONE',  ( -13.02424237247522321, 15.00000000000000000, -6.006691161087337250 ) ) ;
#680 = CARTESIAN_POINT ( 'NONE',  ( -23.68782823120566405, 5.453611960882271958, -5.526658512364794440 ) ) ;
#681 = AXIS2_PLACEMENT_3D ( 'NONE', #59, #549, #280 ) ;
#682 = CARTESIAN_POINT ( 'NONE',  ( -13.31266539945437444, 15.00000000000000000, -6.992932595448082544 ) ) ;
#683 = CARTESIAN_POINT ( 'NONE',  ( 0.000000000000000000, 15.00000000000000000, 0.000000000000000000 ) ) ;
#684 = CARTESIAN_POINT ( 'NONE',  ( -24.04665262582588525, 7.308380026652377737, -5.401539806469335403 ) ) ;
#685 = EDGE_CURVE ( 'NONE', #124, #220, #170, .T. ) ;
#686 = ORIENTED_EDGE ( 'NONE', *, *, #223, .F. ) ;
#687 = APPROVAL_ROLE ( '' ) ;
#688 = CARTESIAN_POINT ( 'NONE',  ( -15.16634880554997089, 10.07752593894438498, -6.540268528979358287 ) ) ;
#689 = DIRECTION ( 'NONE',  ( -0.000000000000000000, -0.000000000000000000, 1.000000000000000000 ) ) ;
#690 = CARTESIAN_POINT ( 'NONE',  ( -13.02424237247522321, 0.000000000000000000, -6.006691161087337250 ) ) ;
#691 = CARTESIAN_POINT ( 'NONE',  ( -6.868390146362537863, 15.00000000000000000, -9.910066147959776472 ) ) ;
#692 = CARTESIAN_POINT ( 'NONE',  ( -25.16788719328702584, 0.000000000000000000, -6.048281911657878318 ) ) ;
#693 = CARTESIAN_POINT ( 'NONE',  ( -20.33378670650451525, 15.00000000000000000, -6.048281911657878318 ) ) ;
#694 = CARTESIAN_POINT ( 'NONE',  ( -15.37426903957869584, 10.36917648908633360, 6.199625849487315321 ) ) ;
ENDSEC;
END-ISO-10303-21;
