ISO-10303-21;
HEADER;
FILE_DESCRIPTION (( 'STEP AP203' ),
    '1' );
FILE_NAME ('Throttle.STEP',
    '2026-07-08T14:43:44',
    ( '' ),
    ( '' ),
    'SwSTEP 2.0',
    'SolidWorks 2025',
    '' );
FILE_SCHEMA (( 'CONFIG_CONTROL_DESIGN' ));
ENDSEC;

DATA;
#1 = ORIENTED_EDGE ( 'NONE', *, *, #428, .T. ) ;
#2 = FACE_OUTER_BOUND ( 'NONE', #700, .T. ) ;
#3 = VERTEX_POINT ( 'NONE', #529 ) ;
#4 = VECTOR ( 'NONE', #298, 1000.000000000000114 ) ;
#5 = CARTESIAN_POINT ( 'NONE',  ( 0.000000000000000000, 0.000000000000000000, -13.75000000000000000 ) ) ;
#6 = CARTESIAN_POINT ( 'NONE',  ( 0.000000000000000000, 2.000000000000000000, -13.75000000000000000 ) ) ;
#7 = DIRECTION ( 'NONE',  ( -0.7071067811865483499, 0.000000000000000000, -0.7071067811865466846 ) ) ;
#8 = DIRECTION ( 'NONE',  ( 0.000000000000000000, 1.000000000000000000, 0.000000000000000000 ) ) ;
#9 = ADVANCED_FACE ( 'NONE', ( #926 ), #1107, .T. ) ;
#10 = ORIENTED_EDGE ( 'NONE', *, *, #49, .F. ) ;
#11 = DIRECTION ( 'NONE',  ( -0.000000000000000000, -1.000000000000000000, -0.000000000000000000 ) ) ;
#12 = APPLICATION_CONTEXT ( 'configuration controlled 3d designs of mechanical parts and assemblies' ) ;
#13 = ORIENTED_EDGE ( 'NONE', *, *, #566, .F. ) ;
#14 = CARTESIAN_POINT ( 'NONE',  ( -1.928568816076461800, 2.000000000000000000, 9.141992718397773388E-13 ) ) ;
#15 = ORIENTED_EDGE ( 'NONE', *, *, #109, .T. ) ;
#16 = DIRECTION ( 'NONE',  ( -0.000000000000000000, -1.000000000000000000, -0.000000000000000000 ) ) ;
#17 = ADVANCED_FACE ( 'NONE', ( #1213 ), #811, .F. ) ;
#18 = CIRCLE ( 'NONE', #1158, 19.50000000000000000 ) ;
#19 = DIRECTION ( 'NONE',  ( -0.000000000000000000, -1.000000000000000000, -0.000000000000000000 ) ) ;
#20 = PRODUCT_DEFINITION_FORMATION_WITH_SPECIFIED_SOURCE ( 'ANY', '', #195, .NOT_KNOWN. ) ;
#21 = PERSON_AND_ORGANIZATION ( #879, #1159 ) ;
#22 = EDGE_LOOP ( 'NONE', ( #822, #343, #657, #502 ) ) ;
#23 = DIRECTION ( 'NONE',  ( 0.9941626175087385775, 0.000000000000000000, -0.1078920291225144434 ) ) ;
#24 = ORIENTED_EDGE ( 'NONE', *, *, #810, .F. ) ;
#25 = VERTEX_POINT ( 'NONE', #807 ) ;
#26 = AXIS2_PLACEMENT_3D ( 'NONE', #67, #462, #854 ) ;
#27 = CARTESIAN_POINT ( 'NONE',  ( 0.000000000000000000, 2.000000000000000000, 0.000000000000000000 ) ) ;
#28 = ORIENTED_EDGE ( 'NONE', *, *, #782, .F. ) ;
#29 = ORIENTED_EDGE ( 'NONE', *, *, #683, .T. ) ;
#30 = DIRECTION ( 'NONE',  ( -0.000000000000000000, -1.000000000000000000, -0.000000000000000000 ) ) ;
#31 = CARTESIAN_POINT ( 'NONE',  ( 0.000000000000000000, 2.000000000000000000, -13.75000000000000000 ) ) ;
#32 = ADVANCED_FACE ( 'NONE', ( #152 ), #47, .F. ) ;
#33 = ORIENTED_EDGE ( 'NONE', *, *, #1132, .F. ) ;
#34 = CARTESIAN_POINT ( 'NONE',  ( 4.651398908852252356E-15, 4.000000000000000000, 4.651398908852255512E-15 ) ) ;
#35 = VERTEX_POINT ( 'NONE', #231 ) ;
#36 = VERTEX_POINT ( 'NONE', #624 ) ;
#37 = LINE ( 'NONE', #532, #38 ) ;
#38 = VECTOR ( 'NONE', #341, 1000.000000000000000 ) ;
#39 = DIRECTION ( 'NONE',  ( -0.000000000000000000, -1.000000000000000000, -0.000000000000000000 ) ) ;
#40 = AXIS2_PLACEMENT_3D ( 'NONE', #568, #158, #1052 ) ;
#41 = ORIENTED_EDGE ( 'NONE', *, *, #1101, .F. ) ;
#42 = ORIENTED_EDGE ( 'NONE', *, *, #620, .T. ) ;
#43 = DIRECTION ( 'NONE',  ( -0.000000000000000000, -1.000000000000000000, -0.000000000000000000 ) ) ;
#44 = MECHANICAL_CONTEXT ( 'NONE', #463, 'mechanical' ) ;
#45 = CIRCLE ( 'NONE', #189, 19.49999999999999645 ) ;
#46 = ORIENTED_EDGE ( 'NONE', *, *, #786, .F. ) ;
#47 = PLANE ( 'NONE',  #421 ) ;
#48 = ORIENTED_EDGE ( 'NONE', *, *, #885, .T. ) ;
#49 = EDGE_CURVE ( 'NONE', #1047, #984, #726, .T. ) ;
#50 = CARTESIAN_POINT ( 'NONE',  ( -5.303300858899163472, 2.000000000000000000, 7.424621202458819624 ) ) ;
#51 = COORDINATED_UNIVERSAL_TIME_OFFSET ( 5, 0, .BEHIND. ) ;
#52 = CARTESIAN_POINT ( 'NONE',  ( 0.000000000000000000, 2.000000000000000000, -1.500000000000000666 ) ) ;
#53 = APPROVAL_STATUS ( 'not_yet_approved' ) ;
#54 = CARTESIAN_POINT ( 'NONE',  ( -19.48435854898021091, 4.000000000000000000, 0.7808789501463498928 ) ) ;
#55 = ORIENTED_EDGE ( 'NONE', *, *, #737, .T. ) ;
#56 = EDGE_CURVE ( 'NONE', #681, #72, #918, .T. ) ;
#57 = PLANE ( 'NONE',  #1039 ) ;
#58 = CALENDAR_DATE ( 2026, 8, 7 ) ;
#59 = ORIENTED_EDGE ( 'NONE', *, *, #235, .T. ) ;
#60 = ADVANCED_FACE ( 'NONE', ( #215 ), #129, .T. ) ;
#61 = CIRCLE ( 'NONE', #948, 19.49999999999999645 ) ;
#62 = CIRCLE ( 'NONE', #461, 3.935437875520471973 ) ;
#63 = DIRECTION ( 'NONE',  ( -0.000000000000000000, -1.000000000000000000, -0.000000000000000000 ) ) ;
#64 = VERTEX_POINT ( 'NONE', #1227 ) ;
#65 = CARTESIAN_POINT ( 'NONE',  ( -7.495331880577491113, 4.000000000000000000, -5.515432893255113100 ) ) ;
#66 = ADVANCED_FACE ( 'NONE', ( #1044 ), #1135, .T. ) ;
#67 = CARTESIAN_POINT ( 'NONE',  ( 4.651398908852252356E-15, 2.000000000000000000, 4.651398908852255512E-15 ) ) ;
#68 = DIRECTION ( 'NONE',  ( 0.000000000000000000, 1.000000000000000000, 0.000000000000000000 ) ) ;
#69 = CARTESIAN_POINT ( 'NONE',  ( 7.424621202458785874, 2.000000000000000000, -5.303300858899208770 ) ) ;
#70 = VECTOR ( 'NONE', #981, 1000.000000000000000 ) ;
#71 = DIRECTION ( 'NONE',  ( 0.9941626175087385775, 0.000000000000000000, 0.1078920291225144157 ) ) ;
#72 = VERTEX_POINT ( 'NONE', #1051 ) ;
#73 = CARTESIAN_POINT ( 'NONE',  ( -7.424621202458773439, 2.000000000000000000, 5.303300858899222980 ) ) ;
#74 = ORIENTED_EDGE ( 'NONE', *, *, #678, .T. ) ;
#75 = DIRECTION ( 'NONE',  ( 0.000000000000000000, 0.000000000000000000, 1.000000000000000000 ) ) ;
#76 = FACE_OUTER_BOUND ( 'NONE', #749, .T. ) ;
#77 = EDGE_CURVE ( 'NONE', #1266, #136, #650, .T. ) ;
#78 = DIRECTION ( 'NONE',  ( -0.000000000000000000, -1.000000000000000000, -0.000000000000000000 ) ) ;
#79 = ORIENTED_EDGE ( 'NONE', *, *, #1262, .T. ) ;
#80 = DIRECTION ( 'NONE',  ( 0.000000000000000000, 1.000000000000000000, -0.000000000000000000 ) ) ;
#81 = EDGE_LOOP ( 'NONE', ( #741, #942, #415, #510 ) ) ;
#82 = FACE_OUTER_BOUND ( 'NONE', #938, .T. ) ;
#83 = CIRCLE ( 'NONE', #342, 19.50000000000000000 ) ;
#84 = AXIS2_PLACEMENT_3D ( 'NONE', #167, #75, #953 ) ;
#85 = ADVANCED_FACE ( 'NONE', ( #870 ), #175, .T. ) ;
#86 = PRODUCT_DEFINITION ( 'UNKNOWN', '', #20, #486 ) ;
#87 = ORIENTED_EDGE ( 'NONE', *, *, #1169, .F. ) ;
#88 = FACE_OUTER_BOUND ( 'NONE', #508, .T. ) ;
#89 = APPROVAL_PERSON_ORGANIZATION ( #863, #715, #941 ) ;
#90 = PERSON_AND_ORGANIZATION ( #879, #1159 ) ;
#91 = AXIS2_PLACEMENT_3D ( 'NONE', #967, #955, #446 ) ;
#92 = VECTOR ( 'NONE', #366, 1000.000000000000000 ) ;
#93 = CARTESIAN_POINT ( 'NONE',  ( 0.000000000000000000, 4.000000000000000000, 0.000000000000000000 ) ) ;
#94 = EDGE_CURVE ( 'NONE', #1279, #604, #166, .T. ) ;
#95 = ORIENTED_EDGE ( 'NONE', *, *, #244, .T. ) ;
#96 = DIRECTION ( 'NONE',  ( -0.000000000000000000, -1.000000000000000000, -0.000000000000000000 ) ) ;
#97 = CARTESIAN_POINT ( 'NONE',  ( -12.68706691308763723, 0.000000000000000000, 14.80838725664739286 ) ) ;
#98 = ORIENTED_EDGE ( 'NONE', *, *, #574, .T. ) ;
#99 = DIRECTION ( 'NONE',  ( -0.000000000000000000, -1.000000000000000000, -0.000000000000000000 ) ) ;
#100 = ORIENTED_EDGE ( 'NONE', *, *, #844, .F. ) ;
#101 = ADVANCED_FACE ( 'NONE', ( #1246 ), #573, .T. ) ;
#102 = CARTESIAN_POINT ( 'NONE',  ( -19.15407925001478873, 2.000000000000000000, 3.478119516491232410 ) ) ;
#103 = ORIENTED_EDGE ( 'NONE', *, *, #259, .F. ) ;
#104 = AXIS2_PLACEMENT_3D ( 'NONE', #693, #1197, #306 ) ;
#105 = DIRECTION ( 'NONE',  ( -0.000000000000000000, -1.000000000000000000, -0.000000000000000000 ) ) ;
#106 =( GEOMETRIC_REPRESENTATION_CONTEXT ( 3 ) GLOBAL_UNCERTAINTY_ASSIGNED_CONTEXT ( ( #585 ) ) GLOBAL_UNIT_ASSIGNED_CONTEXT ( ( #906, #182, #584 ) ) REPRESENTATION_CONTEXT ( 'NONE', 'WORKASPACE' ) );
#107 = CARTESIAN_POINT ( 'NONE',  ( 14.74294916645985865, 2.000000000000000000, 12.76305017913746376 ) ) ;
#108 = CARTESIAN_POINT ( 'NONE',  ( 0.000000000000000000, 2.000000000000000000, 0.000000000000000000 ) ) ;
#109 = EDGE_CURVE ( 'NONE', #1114, #408, #266, .T. ) ;
#110 = LINE ( 'NONE', #482, #241 ) ;
#111 = FACE_OUTER_BOUND ( 'NONE', #1129, .T. ) ;
#112 = ORIENTED_EDGE ( 'NONE', *, *, #1233, .T. ) ;
#113 = DIRECTION ( 'NONE',  ( 0.7071067811865495711, 0.000000000000000000, 0.7071067811865455743 ) ) ;
#114 = VECTOR ( 'NONE', #666, 1000.000000000000114 ) ;
#115 = VECTOR ( 'NONE', #384, 1000.000000000000114 ) ;
#116 = ORIENTED_EDGE ( 'NONE', *, *, #620, .F. ) ;
#117 = DIRECTION ( 'NONE',  ( 0.000000000000000000, 1.000000000000000000, -0.000000000000000000 ) ) ;
#118 = DIRECTION ( 'NONE',  ( -0.7071067811865451302, 0.000000000000000000, 0.7071067811865500152 ) ) ;
#119 = EDGE_CURVE ( 'NONE', #1279, #1114, #251, .T. ) ;
#120 = CARTESIAN_POINT ( 'NONE',  ( -5.515432893255166391, 4.000000000000000000, -7.495331880577451145 ) ) ;
#121 = LINE ( 'NONE', #1105, #1249 ) ;
#122 = VERTEX_POINT ( 'NONE', #278 ) ;
#123 = CARTESIAN_POINT ( 'NONE',  ( 7.424621202458785874, 2.000000000000000000, -5.303300858899208770 ) ) ;
#124 = DIRECTION ( 'NONE',  ( -0.000000000000000000, -1.000000000000000000, -0.000000000000000000 ) ) ;
#125 = VECTOR ( 'NONE', #249, 1000.000000000000000 ) ;
#126 = ORIENTED_EDGE ( 'NONE', *, *, #317, .T. ) ;
#127 = DIRECTION ( 'NONE',  ( 0.7071067811865461294, 0.000000000000000000, -0.7071067811865489050 ) ) ;
#128 = SECURITY_CLASSIFICATION ( '', '', #436 ) ;
#129 = PLANE ( 'NONE',  #1165 ) ;
#130 = EDGE_LOOP ( 'NONE', ( #813, #468, #667, #703 ) ) ;
#131 = ORIENTED_EDGE ( 'NONE', *, *, #154, .T. ) ;
#132 = ADVANCED_FACE ( 'NONE', ( #82 ), #359, .F. ) ;
#133 = DIRECTION ( 'NONE',  ( -0.000000000000000000, -1.000000000000000000, 0.000000000000000000 ) ) ;
#134 = AXIS2_PLACEMENT_3D ( 'NONE', #1189, #1010, #1205 ) ;
#135 = ORIENTED_EDGE ( 'NONE', *, *, #1018, .T. ) ;
#136 = VERTEX_POINT ( 'NONE', #1164 ) ;
#137 = DIRECTION ( 'NONE',  ( 0.000000000000000000, 0.000000000000000000, 1.000000000000000000 ) ) ;
#138 = ORIENTED_EDGE ( 'NONE', *, *, #310, .T. ) ;
#139 = CARTESIAN_POINT ( 'NONE',  ( -19.48435854898021091, 4.000000000000000000, 0.7808789501463498928 ) ) ;
#140 = ORIENTED_EDGE ( 'NONE', *, *, #581, .F. ) ;
#141 = CARTESIAN_POINT ( 'NONE',  ( -0.4073723582264481280, 2.000000000000000000, 1.443623137024696357 ) ) ;
#142 = CIRCLE ( 'NONE', #674, 19.49999999999999289 ) ;
#143 = AXIS2_PLACEMENT_3D ( 'NONE', #637, #68, #764 ) ;
#144 = EDGE_CURVE ( 'NONE', #36, #963, #181, .T. ) ;
#145 = ORIENTED_EDGE ( 'NONE', *, *, #411, .F. ) ;
#146 = ORIENTED_EDGE ( 'NONE', *, *, #1132, .T. ) ;
#147 = DIRECTION ( 'NONE',  ( -0.9941626175087385775, 0.000000000000000000, -0.1078920291225144018 ) ) ;
#148 = ORIENTED_EDGE ( 'NONE', *, *, #803, .T. ) ;
#149 = ORIENTED_EDGE ( 'NONE', *, *, #853, .T. ) ;
#150 = DIRECTION ( 'NONE',  ( 0.000000000000000000, 0.000000000000000000, 1.000000000000000000 ) ) ;
#151 = CARTESIAN_POINT ( 'NONE',  ( -13.46901206811584117, 2.000000000000000000, -17.47604504938341563 ) ) ;
#152 = FACE_OUTER_BOUND ( 'NONE', #701, .T. ) ;
#153 = LINE ( 'NONE', #432, #592 ) ;
#154 = EDGE_CURVE ( 'NONE', #64, #1060, #1069, .T. ) ;
#155 = ORIENTED_EDGE ( 'NONE', *, *, #317, .F. ) ;
#156 = FACE_OUTER_BOUND ( 'NONE', #524, .T. ) ;
#157 = DIRECTION ( 'NONE',  ( 0.000000000000000000, -0.000000000000000000, 1.000000000000000000 ) ) ;
#158 = DIRECTION ( 'NONE',  ( 0.000000000000000000, 1.000000000000000000, 0.000000000000000000 ) ) ;
#159 = CARTESIAN_POINT ( 'NONE',  ( 7.424621202458785874, 2.000000000000000000, -5.303300858899208770 ) ) ;
#160 = ORIENTED_EDGE ( 'NONE', *, *, #1068, .F. ) ;
#161 = DIRECTION ( 'NONE',  ( -0.000000000000000000, -1.000000000000000000, -0.000000000000000000 ) ) ;
#162 = EDGE_CURVE ( 'NONE', #549, #608, #639, .T. ) ;
#163 = ORIENTED_EDGE ( 'NONE', *, *, #144, .F. ) ;
#164 = VECTOR ( 'NONE', #1269, 1000.000000000000000 ) ;
#165 = AXIS2_PLACEMENT_3D ( 'NONE', #1243, #843, #440 ) ;
#166 = LINE ( 'NONE', #1072, #664 ) ;
#167 = CARTESIAN_POINT ( 'NONE',  ( 0.000000000000000000, 0.000000000000000000, 0.000000000000000000 ) ) ;
#168 = ORIENTED_EDGE ( 'NONE', *, *, #375, .T. ) ;
#169 = PLANE ( 'NONE',  #523 ) ;
#170 = ADVANCED_FACE ( 'NONE', ( #747 ), #542, .T. ) ;
#171 = CARTESIAN_POINT ( 'NONE',  ( 0.1501041302090783403, 4.000000000000000000, 1.383122703326839398 ) ) ;
#172 = CARTESIAN_POINT ( 'NONE',  ( 0.000000000000000000, 2.000000000000000000, 0.000000000000000000 ) ) ;
#173 = ORIENTED_EDGE ( 'NONE', *, *, #1018, .F. ) ;
#174 = ORIENTED_EDGE ( 'NONE', *, *, #1007, .F. ) ;
#175 = PLANE ( 'NONE',  #1046 ) ;
#176 = DIRECTION ( 'NONE',  ( 0.000000000000000000, 0.000000000000000000, -1.000000000000000000 ) ) ;
#177 = ORIENTED_EDGE ( 'NONE', *, *, #1116, .T. ) ;
#178 = CARTESIAN_POINT ( 'NONE',  ( -7.424621202458773439, 0.000000000000000000, 5.303300858899222980 ) ) ;
#179 = DIRECTION ( 'NONE',  ( 0.7071067811865474617, 0.000000000000000000, -0.7071067811865474617 ) ) ;
#180 = LINE ( 'NONE', #1170, #282 ) ;
#181 = LINE ( 'NONE', #976, #114 ) ;
#182 =( NAMED_UNIT ( * ) PLANE_ANGLE_UNIT ( ) SI_UNIT ( $, .RADIAN. ) );
#183 = VECTOR ( 'NONE', #541, 1000.000000000000000 ) ;
#184 = EDGE_CURVE ( 'NONE', #295, #25, #577, .T. ) ;
#185 = CC_DESIGN_APPROVAL ( #346, ( #20 ) ) ;
#186 = PLANE ( 'NONE',  #437 ) ;
#187 = ORIENTED_EDGE ( 'NONE', *, *, #779, .F. ) ;
#188 = EDGE_CURVE ( 'NONE', #718, #247, #372, .T. ) ;
#189 = AXIS2_PLACEMENT_3D ( 'NONE', #490, #901, #305 ) ;
#190 = LINE ( 'NONE', #580, #416 ) ;
#191 = CARTESIAN_POINT ( 'NONE',  ( -12.76305017913754369, 4.000000000000000000, -14.74294916645976983 ) ) ;
#192 = CARTESIAN_POINT ( 'NONE',  ( -1.928568816076461800, 4.000000000000000000, 9.141992718397773388E-13 ) ) ;
#193 = DIRECTION ( 'NONE',  ( 0.000000000000000000, 0.000000000000000000, 1.000000000000000000 ) ) ;
#194 = ORIENTED_EDGE ( 'NONE', *, *, #454, .T. ) ;
#195 = PRODUCT ( 'Throttle', 'Throttle', '', ( #44 ) ) ;
#196 = CARTESIAN_POINT ( 'NONE',  ( 19.16850670578934768, 2.000000000000000000, -3.580272429593702288 ) ) ;
#197 = ORIENTED_EDGE ( 'NONE', *, *, #119, .T. ) ;
#198 = EDGE_CURVE ( 'NONE', #876, #1090, #740, .T. ) ;
#199 = CARTESIAN_POINT ( 'NONE',  ( 19.16850670578934768, 0.000000000000000000, -3.580272429593702288 ) ) ;
#200 = DIRECTION ( 'NONE',  ( -0.7071067811865521247, 0.000000000000000000, -0.7071067811865430208 ) ) ;
#201 = CARTESIAN_POINT ( 'NONE',  ( 10.83688036017530010, 2.000000000000000000, 16.21147815775128365 ) ) ;
#202 = CIRCLE ( 'NONE', #165, 12.61897553401446537 ) ;
#203 = DIRECTION ( 'NONE',  ( -0.7071067811865500152, 0.000000000000000000, -0.7071067811865451302 ) ) ;
#204 = EDGE_CURVE ( 'NONE', #722, #999, #452, .T. ) ;
#205 = DIRECTION ( 'NONE',  ( -0.000000000000000000, -1.000000000000000000, -0.000000000000000000 ) ) ;
#206 = CIRCLE ( 'NONE', #134, 1.500000000000000666 ) ;
#207 = CARTESIAN_POINT ( 'NONE',  ( 7.424621202458785874, 0.000000000000000000, -5.303300858899208770 ) ) ;
#208 = ORIENTED_EDGE ( 'NONE', *, *, #1140, .F. ) ;
#209 = DIRECTION ( 'NONE',  ( 0.000000000000000000, 1.000000000000000000, 0.000000000000000000 ) ) ;
#210 = LINE ( 'NONE', #293, #571 ) ;
#211 = VERTEX_POINT ( 'NONE', #274 ) ;
#212 = DIRECTION ( 'NONE',  ( -0.7071067811865489050, 0.000000000000000000, -0.7071067811865461294 ) ) ;
#213 = CARTESIAN_POINT ( 'NONE',  ( 0.000000000000000000, 0.000000000000000000, 1.500000000000000666 ) ) ;
#214 = ORIENTED_EDGE ( 'NONE', *, *, #428, .F. ) ;
#215 = FACE_OUTER_BOUND ( 'NONE', #326, .T. ) ;
#216 = EDGE_CURVE ( 'NONE', #984, #733, #1119, .T. ) ;
#217 = VECTOR ( 'NONE', #369, 1000.000000000000000 ) ;
#218 = ORIENTED_EDGE ( 'NONE', *, *, #419, .F. ) ;
#219 = MANIFOLD_SOLID_BREP ( 'Boss-Extrude2', #1141 ) ;
#220 = DIRECTION ( 'NONE',  ( -0.9941626175087386885, -0.000000000000000000, -0.1078920291225135414 ) ) ;
#221 = AXIS2_PLACEMENT_3D ( 'NONE', #1163, #469, #1278 ) ;
#222 = DIRECTION ( 'NONE',  ( 0.000000000000000000, 0.000000000000000000, -1.000000000000000000 ) ) ;
#223 = DIRECTION ( 'NONE',  ( 0.7071067811865523467, -0.000000000000000000, 0.7071067811865427988 ) ) ;
#224 = DIRECTION ( 'NONE',  ( 0.000000000000000000, 0.000000000000000000, 1.000000000000000000 ) ) ;
#225 = ORIENTED_EDGE ( 'NONE', *, *, #952, .T. ) ;
#226 = AXIS2_PLACEMENT_3D ( 'NONE', #560, #431, #961 ) ;
#227 = CARTESIAN_POINT ( 'NONE',  ( 7.495331880577489336, 2.000000000000000000, 5.515432893255137081 ) ) ;
#228 = EDGE_CURVE ( 'NONE', #1212, #25, #1238, .T. ) ;
#229 = APPROVAL ( #684, 'UNSPECIFIED' ) ;
#230 = CIRCLE ( 'NONE', #1067, 19.50000000000000000 ) ;
#231 = CARTESIAN_POINT ( 'NONE',  ( 1.836970198721030674E-16, 2.000000000000000000, -1.500000000000000666 ) ) ;
#232 = CARTESIAN_POINT ( 'NONE',  ( 0.000000000000000000, 2.000000000000000000, -19.49999999999999289 ) ) ;
#233 = ORIENTED_EDGE ( 'NONE', *, *, #380, .F. ) ;
#234 = CARTESIAN_POINT ( 'NONE',  ( 12.68706691308764789, 0.000000000000000000, -14.80838725664737332 ) ) ;
#235 = EDGE_CURVE ( 'NONE', #35, #518, #874, .T. ) ;
#236 = CALENDAR_DATE ( 2026, 8, 7 ) ;
#237 = VERTEX_POINT ( 'NONE', #1096 ) ;
#238 = DIRECTION ( 'NONE',  ( 0.000000000000000000, 1.000000000000000000, 0.000000000000000000 ) ) ;
#239 = LINE ( 'NONE', #69, #778 ) ;
#240 = LINE ( 'NONE', #50, #838 ) ;
#241 = VECTOR ( 'NONE', #410, 1000.000000000000000 ) ;
#242 = PERSON_AND_ORGANIZATION ( #879, #1159 ) ;
#243 = CC_DESIGN_APPROVAL ( #229, ( #86 ) ) ;
#244 = EDGE_CURVE ( 'NONE', #361, #911, #676, .T. ) ;
#245 = VECTOR ( 'NONE', #820, 1000.000000000000000 ) ;
#246 = CARTESIAN_POINT ( 'NONE',  ( 0.000000000000000000, 2.000000000000000000, 0.000000000000000000 ) ) ;
#247 = VERTEX_POINT ( 'NONE', #97 ) ;
#248 = ORIENTED_EDGE ( 'NONE', *, *, #952, .F. ) ;
#249 = DIRECTION ( 'NONE',  ( -0.000000000000000000, -1.000000000000000000, -0.000000000000000000 ) ) ;
#250 = AXIS2_PLACEMENT_3D ( 'NONE', #921, #1230, #841 ) ;
#251 = LINE ( 'NONE', #171, #1020 ) ;
#252 = CARTESIAN_POINT ( 'NONE',  ( 0.1501041302089240748, 4.000000000000000000, -1.383122703327082759 ) ) ;
#253 = CARTESIAN_POINT ( 'NONE',  ( 0.000000000000000000, 2.000000000000000000, -13.75000000000000000 ) ) ;
#254 = VERTEX_POINT ( 'NONE', #470 ) ;
#255 = LINE ( 'NONE', #772, #1111 ) ;
#256 = ORIENTED_EDGE ( 'NONE', *, *, #77, .F. ) ;
#257 = DIRECTION ( 'NONE',  ( 0.1078920291226427852, -0.000000000000000000, 0.9941626175087246997 ) ) ;
#258 = LINE ( 'NONE', #1239, #527 ) ;
#259 = EDGE_CURVE ( 'NONE', #1121, #35, #1166, .T. ) ;
#260 = DIRECTION ( 'NONE',  ( -0.7071067811865451302, 0.000000000000000000, 0.7071067811865500152 ) ) ;
#261 = ORIENTED_EDGE ( 'NONE', *, *, #310, .F. ) ;
#262 = CARTESIAN_POINT ( 'NONE',  ( 0.000000000000000000, 2.000000000000000000, 1.500000000000000666 ) ) ;
#263 = AXIS2_PLACEMENT_3D ( 'NONE', #1083, #983, #688 ) ;
#264 = DIRECTION ( 'NONE',  ( -0.000000000000000000, -1.000000000000000000, -0.000000000000000000 ) ) ;
#265 = AXIS2_PLACEMENT_3D ( 'NONE', #31, #352, #745 ) ;
#266 = LINE ( 'NONE', #1057, #92 ) ;
#267 = CARTESIAN_POINT ( 'NONE',  ( -13.46901206811584117, 2.000000000000000000, -13.54060717386294499 ) ) ;
#268 = CC_DESIGN_APPROVAL ( #715, ( #128 ) ) ;
#269 = DIRECTION ( 'NONE',  ( 0.000000000000000000, 1.000000000000000000, 0.000000000000000000 ) ) ;
#270 = DIRECTION ( 'NONE',  ( 0.7071067811865500152, -0.000000000000000000, 0.7071067811865450192 ) ) ;
#271 = ORIENTED_EDGE ( 'NONE', *, *, #767, .F. ) ;
#272 = CC_DESIGN_PERSON_AND_ORGANIZATION_ASSIGNMENT ( #1027, #565, ( #86 ) ) ;
#273 = CARTESIAN_POINT ( 'NONE',  ( -14.74294916645986397, 4.000000000000000000, -12.76305017913743534 ) ) ;
#274 = CARTESIAN_POINT ( 'NONE',  ( 1.836970198721030427E-16, 0.000000000000000000, -12.25000000000000000 ) ) ;
#275 = CIRCLE ( 'NONE', #423, 1.499999999999999556 ) ;
#276 = DIRECTION ( 'NONE',  ( 0.000000000000000000, 0.000000000000000000, -1.000000000000000000 ) ) ;
#277 = EDGE_CURVE ( 'NONE', #237, #1078, #230, .T. ) ;
#278 = CARTESIAN_POINT ( 'NONE',  ( 5.303300858899176795, 2.000000000000000000, -7.424621202458806302 ) ) ;
#279 = PLANE ( 'NONE',  #609 ) ;
#280 = EDGE_CURVE ( 'NONE', #999, #638, #884, .T. ) ;
#281 = AXIS2_PLACEMENT_3D ( 'NONE', #814, #1028, #137 ) ;
#282 = VECTOR ( 'NONE', #975, 1000.000000000000000 ) ;
#283 = VERTEX_POINT ( 'NONE', #392 ) ;
#284 = DIRECTION ( 'NONE',  ( -0.1078920291225135414, 0.000000000000000000, 0.9941626175087386885 ) ) ;
#285 = PLANE ( 'NONE',  #680 ) ;
#286 = DIRECTION ( 'NONE',  ( -0.000000000000000000, -1.000000000000000000, -0.000000000000000000 ) ) ;
#287 = AXIS2_PLACEMENT_3D ( 'NONE', #1260, #736, #553 ) ;
#288 = VECTOR ( 'NONE', #322, 1000.000000000000114 ) ;
#289 = ADVANCED_FACE ( 'NONE', ( #790 ), #1190, .F. ) ;
#290 = ORIENTED_EDGE ( 'NONE', *, *, #748, .T. ) ;
#291 = DIRECTION ( 'NONE',  ( -0.000000000000000000, -1.000000000000000000, -0.000000000000000000 ) ) ;
#292 = CARTESIAN_POINT ( 'NONE',  ( 0.000000000000000000, 2.000000000000000000, 0.000000000000000000 ) ) ;
#293 = CARTESIAN_POINT ( 'NONE',  ( -10.67887068750157553, 2.000000000000000000, -16.31599585804125496 ) ) ;
#294 = EDGE_CURVE ( 'NONE', #496, #549, #45, .T. ) ;
#295 = VERTEX_POINT ( 'NONE', #1100 ) ;
#296 = FACE_OUTER_BOUND ( 'NONE', #1082, .T. ) ;
#297 = DIRECTION ( 'NONE',  ( 0.000000000000000000, 0.000000000000000000, -1.000000000000000000 ) ) ;
#298 = DIRECTION ( 'NONE',  ( -0.7071067811865500152, 0.000000000000000000, -0.7071067811865451302 ) ) ;
#299 = AXIS2_PLACEMENT_3D ( 'NONE', #643, #851, #552 ) ;
#300 = PLANE ( 'NONE',  #656 ) ;
#301 = AXIS2_PLACEMENT_3D ( 'NONE', #835, #559, #365 ) ;
#302 = EDGE_LOOP ( 'NONE', ( #904, #313, #1056, #615 ) ) ;
#303 = DIRECTION ( 'NONE',  ( 0.000000000000000000, 0.000000000000000000, 1.000000000000000000 ) ) ;
#304 = EDGE_CURVE ( 'NONE', #694, #1275, #1043, .T. ) ;
#305 = DIRECTION ( 'NONE',  ( 0.000000000000000000, 0.000000000000000000, 1.000000000000000000 ) ) ;
#306 = DIRECTION ( 'NONE',  ( 0.000000000000000000, 0.000000000000000000, -1.000000000000000000 ) ) ;
#307 = VECTOR ( 'NONE', #332, 1000.000000000000000 ) ;
#308 = CARTESIAN_POINT ( 'NONE',  ( 0.000000000000000000, 0.000000000000000000, 0.000000000000000000 ) ) ;
#309 = DIRECTION ( 'NONE',  ( 0.9941626175087385775, 0.000000000000000000, -0.1078920291225144434 ) ) ;
#310 = EDGE_CURVE ( 'NONE', #1047, #1114, #1184, .T. ) ;
#311 = ORIENTED_EDGE ( 'NONE', *, *, #204, .F. ) ;
#312 = ORIENTED_EDGE ( 'NONE', *, *, #558, .T. ) ;
#313 = ORIENTED_EDGE ( 'NONE', *, *, #767, .T. ) ;
#314 = EDGE_LOOP ( 'NONE', ( #775, #478, #794, #791 ) ) ;
#315 = LINE ( 'NONE', #207, #115 ) ;
#316 = FACE_OUTER_BOUND ( 'NONE', #1202, .T. ) ;
#317 = EDGE_CURVE ( 'NONE', #694, #604, #1001, .T. ) ;
#318 = ADVANCED_FACE ( 'NONE', ( #76 ), #376, .F. ) ;
#319 = ORIENTED_EDGE ( 'NONE', *, *, #929, .F. ) ;
#320 = CIRCLE ( 'NONE', #476, 19.49999999999999289 ) ;
#321 = ORIENTED_EDGE ( 'NONE', *, *, #992, .T. ) ;
#322 = DIRECTION ( 'NONE',  ( -0.7071067811865474617, -0.000000000000000000, 0.7071067811865474617 ) ) ;
#323 = CIRCLE ( 'NONE', #344, 3.935437875520471973 ) ;
#324 = ORIENTED_EDGE ( 'NONE', *, *, #581, .T. ) ;
#325 = DIRECTION ( 'NONE',  ( -0.1078920291225144712, 0.000000000000000000, -0.9941626175087386885 ) ) ;
#326 = EDGE_LOOP ( 'NONE', ( #1026, #1015, #1226, #1188 ) ) ;
#327 = ORIENTED_EDGE ( 'NONE', *, *, #825, .T. ) ;
#328 = EDGE_CURVE ( 'NONE', #1073, #638, #857, .T. ) ;
#329 = LINE ( 'NONE', #435, #1061 ) ;
#330 = AXIS2_PLACEMENT_3D ( 'NONE', #781, #286, #686 ) ;
#331 = ORIENTED_EDGE ( 'NONE', *, *, #259, .T. ) ;
#332 = DIRECTION ( 'NONE',  ( -0.000000000000000000, -1.000000000000000000, -0.000000000000000000 ) ) ;
#333 = EDGE_LOOP ( 'NONE', ( #760, #46, #426, #766 ) ) ;
#334 = ORIENTED_EDGE ( 'NONE', *, *, #683, .F. ) ;
#335 = FACE_OUTER_BOUND ( 'NONE', #455, .T. ) ;
#336 = ADVANCED_FACE ( 'NONE', ( #762 ), #285, .F. ) ;
#337 = DIRECTION ( 'NONE',  ( 0.000000000000000000, 1.000000000000000000, 0.000000000000000000 ) ) ;
#338 = DIRECTION ( 'NONE',  ( 0.000000000000000000, 1.000000000000000000, -0.000000000000000000 ) ) ;
#339 = ORIENTED_EDGE ( 'NONE', *, *, #1016, .T. ) ;
#340 = EDGE_LOOP ( 'NONE', ( #473, #516, #1032, #540 ) ) ;
#341 = DIRECTION ( 'NONE',  ( -0.000000000000000000, -1.000000000000000000, -0.000000000000000000 ) ) ;
#342 = AXIS2_PLACEMENT_3D ( 'NONE', #633, #133, #1217 ) ;
#343 = ORIENTED_EDGE ( 'NONE', *, *, #1225, .F. ) ;
#344 = AXIS2_PLACEMENT_3D ( 'NONE', #887, #209, #441 ) ;
#345 = DIRECTION ( 'NONE',  ( -0.000000000000000000, -1.000000000000000000, -0.000000000000000000 ) ) ;
#346 = APPROVAL ( #53, 'UNSPECIFIED' ) ;
#347 = DIRECTION ( 'NONE',  ( 0.000000000000000000, 0.000000000000000000, 1.000000000000000000 ) ) ;
#348 = PLANE ( 'NONE',  #1112 ) ;
#349 = ORIENTED_EDGE ( 'NONE', *, *, #304, .F. ) ;
#350 = CARTESIAN_POINT ( 'NONE',  ( -16.25915344873010326, 2.000000000000000000, -10.76521848968463146 ) ) ;
#351 = ORIENTED_EDGE ( 'NONE', *, *, #1037, .T. ) ;
#352 = DIRECTION ( 'NONE',  ( -0.000000000000000000, -1.000000000000000000, -0.000000000000000000 ) ) ;
#353 = VECTOR ( 'NONE', #570, 1000.000000000000000 ) ;
#354 = EDGE_CURVE ( 'NONE', #122, #999, #551, .T. ) ;
#355 = CARTESIAN_POINT ( 'NONE',  ( 16.36297268748718992, 2.000000000000000000, 10.60674902260575614 ) ) ;
#356 = DIRECTION ( 'NONE',  ( 0.000000000000000000, 0.000000000000000000, 1.000000000000000000 ) ) ;
#357 = CARTESIAN_POINT ( 'NONE',  ( 4.651398908852252356E-15, 4.000000000000000000, 4.651398908852255512E-15 ) ) ;
#358 = ORIENTED_EDGE ( 'NONE', *, *, #454, .F. ) ;
#359 = PLANE ( 'NONE',  #1183 ) ;
#360 = CARTESIAN_POINT ( 'NONE',  ( -13.46901206811584117, 0.000000000000000000, -17.47604504938341563 ) ) ;
#361 = VERTEX_POINT ( 'NONE', #954 ) ;
#362 = CARTESIAN_POINT ( 'NONE',  ( 14.74294916645985687, 4.000000000000000000, 12.76305017913746376 ) ) ;
#363 = ORIENTED_EDGE ( 'NONE', *, *, #244, .F. ) ;
#364 = CARTESIAN_POINT ( 'NONE',  ( 5.303300858899176795, 2.000000000000000000, -7.424621202458806302 ) ) ;
#365 = DIRECTION ( 'NONE',  ( 0.000000000000000000, 0.000000000000000000, 1.000000000000000000 ) ) ;
#366 = DIRECTION ( 'NONE',  ( -0.000000000000000000, -1.000000000000000000, -0.000000000000000000 ) ) ;
#367 = DIRECTION ( 'NONE',  ( 0.000000000000000000, 1.000000000000000000, 0.000000000000000000 ) ) ;
#368 = ORIENTED_EDGE ( 'NONE', *, *, #216, .T. ) ;
#369 = DIRECTION ( 'NONE',  ( -0.000000000000000000, -1.000000000000000000, -0.000000000000000000 ) ) ;
#370 = EDGE_CURVE ( 'NONE', #1090, #808, #1218, .T. ) ;
#371 = ORIENTED_EDGE ( 'NONE', *, *, #491, .F. ) ;
#372 = LINE ( 'NONE', #1253, #617 ) ;
#373 = CIRCLE ( 'NONE', #712, 17.57314784211152414 ) ;
#374 = DIRECTION ( 'NONE',  ( 0.7071067811865473507, -0.000000000000000000, -0.7071067811865477948 ) ) ;
#375 = EDGE_CURVE ( 'NONE', #987, #722, #315, .T. ) ;
#376 = CYLINDRICAL_SURFACE ( 'NONE', #939, 1.500000000000000666 ) ;
#377 = FACE_OUTER_BOUND ( 'NONE', #1282, .T. ) ;
#378 = ORIENTED_EDGE ( 'NONE', *, *, #992, .F. ) ;
#379 = CARTESIAN_POINT ( 'NONE',  ( 1.836970198721030674E-16, 2.000000000000000000, -1.500000000000000666 ) ) ;
#380 = EDGE_CURVE ( 'NONE', #1109, #711, #702, .T. ) ;
#381 = VECTOR ( 'NONE', #374, 1000.000000000000000 ) ;
#382 = PLANE ( 'NONE',  #815 ) ;
#383 = ORIENTED_EDGE ( 'NONE', *, *, #1225, .T. ) ;
#384 = DIRECTION ( 'NONE',  ( -0.7071067811865474617, -0.000000000000000000, 0.7071067811865474617 ) ) ;
#385 = CARTESIAN_POINT ( 'NONE',  ( 5.303300858899176795, 0.000000000000000000, -7.424621202458806302 ) ) ;
#386 = ADVANCED_FACE ( 'NONE', ( #1093 ), #1000, .T. ) ;
#387 = VECTOR ( 'NONE', #859, 1000.000000000000114 ) ;
#388 = AXIS2_PLACEMENT_3D ( 'NONE', #795, #489, #303 ) ;
#389 = CARTESIAN_POINT ( 'NONE',  ( 5.303300858899176795, 2.000000000000000000, -7.424621202458806302 ) ) ;
#390 = ORIENTED_EDGE ( 'NONE', *, *, #188, .F. ) ;
#391 = DIRECTION ( 'NONE',  ( 0.000000000000000000, 1.000000000000000000, 0.000000000000000000 ) ) ;
#392 = CARTESIAN_POINT ( 'NONE',  ( 0.000000000000000000, 0.000000000000000000, -19.49999999999999289 ) ) ;
#393 = FACE_BOUND ( 'NONE', #1009, .T. ) ;
#394 = CARTESIAN_POINT ( 'NONE',  ( 0.000000000000000000, 2.000000000000000000, -13.75000000000000000 ) ) ;
#395 = ORIENTED_EDGE ( 'NONE', *, *, #400, .F. ) ;
#396 = DIRECTION ( 'NONE',  ( 0.000000000000000000, 0.000000000000000000, 1.000000000000000000 ) ) ;
#397 = AXIS2_PLACEMENT_3D ( 'NONE', #562, #971, #1265 ) ;
#398 = LOCAL_TIME ( 10, 43, 44.00000000000000000, #669 ) ;
#399 = LINE ( 'NONE', #389, #704 ) ;
#400 = EDGE_CURVE ( 'NONE', #361, #1228, #1089, .T. ) ;
#401 = FACE_OUTER_BOUND ( 'NONE', #81, .T. ) ;
#402 = ORIENTED_EDGE ( 'NONE', *, *, #1244, .T. ) ;
#403 = VECTOR ( 'NONE', #893, 1000.000000000000114 ) ;
#404 = DIRECTION ( 'NONE',  ( 0.000000000000000000, 1.000000000000000000, 0.000000000000000000 ) ) ;
#405 = DIRECTION ( 'NONE',  ( 0.000000000000000000, 0.000000000000000000, 1.000000000000000000 ) ) ;
#406 = EDGE_CURVE ( 'NONE', #3, #681, #607, .T. ) ;
#407 = CC_DESIGN_PERSON_AND_ORGANIZATION_ASSIGNMENT ( #21, #861, ( #20 ) ) ;
#408 = VERTEX_POINT ( 'NONE', #102 ) ;
#409 = DIRECTION ( 'NONE',  ( 0.000000000000000000, 0.000000000000000000, 1.000000000000000000 ) ) ;
#410 = DIRECTION ( 'NONE',  ( -0.7071067811865450192, 0.000000000000000000, 0.7071067811865500152 ) ) ;
#411 = EDGE_CURVE ( 'NONE', #708, #295, #899, .T. ) ;
#412 = ORIENTED_EDGE ( 'NONE', *, *, #119, .F. ) ;
#413 = ORIENTED_EDGE ( 'NONE', *, *, #1019, .T. ) ;
#414 = DIRECTION ( 'NONE',  ( -0.7071067811865495711, 0.000000000000000000, -0.7071067811865455743 ) ) ;
#415 = ORIENTED_EDGE ( 'NONE', *, *, #406, .F. ) ;
#416 = VECTOR ( 'NONE', #99, 1000.000000000000000 ) ;
#417 = LINE ( 'NONE', #714, #497 ) ;
#418 = LOCAL_TIME ( 10, 43, 44.00000000000000000, #51 ) ;
#419 = EDGE_CURVE ( 'NONE', #984, #408, #373, .T. ) ;
#420 = VERTEX_POINT ( 'NONE', #191 ) ;
#421 = AXIS2_PLACEMENT_3D ( 'NONE', #52, #325, #1122 ) ;
#422 = CARTESIAN_POINT ( 'NONE',  ( 0.000000000000000000, 0.000000000000000000, 0.000000000000000000 ) ) ;
#423 = AXIS2_PLACEMENT_3D ( 'NONE', #5, #391, #409 ) ;
#424 = ORIENTED_EDGE ( 'NONE', *, *, #406, .T. ) ;
#425 = DIRECTION ( 'NONE',  ( 0.7071067811865455743, 0.000000000000000000, -0.7071067811865495711 ) ) ;
#426 = ORIENTED_EDGE ( 'NONE', *, *, #56, .F. ) ;
#427 = CARTESIAN_POINT ( 'NONE',  ( 12.76305017913752415, 4.000000000000000000, 14.74294916645980358 ) ) ;
#428 = EDGE_CURVE ( 'NONE', #1242, #718, #1099, .T. ) ;
#429 = COORDINATED_UNIVERSAL_TIME_OFFSET ( 5, 0, .BEHIND. ) ;
#430 = DIRECTION ( 'NONE',  ( -0.9941626175087246997, 0.000000000000000000, 0.1078920291226427852 ) ) ;
#431 = DIRECTION ( 'NONE',  ( 0.000000000000000000, 1.000000000000000000, -0.000000000000000000 ) ) ;
#432 = CARTESIAN_POINT ( 'NONE',  ( 0.000000000000000000, 0.000000000000000000, 1.500000000000000666 ) ) ;
#433 = LINE ( 'NONE', #1145, #572 ) ;
#434 = ORIENTED_EDGE ( 'NONE', *, *, #354, .T. ) ;
#435 = CARTESIAN_POINT ( 'NONE',  ( 14.80838725664730582, 2.000000000000000000, -12.68706691308772960 ) ) ;
#436 = SECURITY_CLASSIFICATION_LEVEL ( 'unclassified' ) ;
#437 = AXIS2_PLACEMENT_3D ( 'NONE', #357, #750, #849 ) ;
#438 = EDGE_CURVE ( 'NONE', #518, #458, #121, .T. ) ;
#439 = VECTOR ( 'NONE', #536, 1000.000000000000114 ) ;
#440 = DIRECTION ( 'NONE',  ( 0.000000000000000000, 0.000000000000000000, 1.000000000000000000 ) ) ;
#441 = DIRECTION ( 'NONE',  ( 0.000000000000000000, 0.000000000000000000, 1.000000000000000000 ) ) ;
#442 = CARTESIAN_POINT ( 'NONE',  ( 0.000000000000000000, 2.000000000000000000, -15.25000000000000000 ) ) ;
#443 = ORIENTED_EDGE ( 'NONE', *, *, #438, .T. ) ;
#444 = CARTESIAN_POINT ( 'NONE',  ( -7.495331880577491113, 4.000000000000000000, -5.515432893255113100 ) ) ;
#445 = AXIS2_PLACEMENT_3D ( 'NONE', #974, #773, #878 ) ;
#446 = DIRECTION ( 'NONE',  ( 0.000000000000000000, 0.000000000000000000, 1.000000000000000000 ) ) ;
#447 = DIRECTION ( 'NONE',  ( -0.000000000000000000, -1.000000000000000000, -0.000000000000000000 ) ) ;
#448 = ORIENTED_EDGE ( 'NONE', *, *, #1214, .F. ) ;
#449 = DIRECTION ( 'NONE',  ( 0.000000000000000000, 0.000000000000000000, 1.000000000000000000 ) ) ;
#450 = EDGE_LOOP ( 'NONE', ( #233, #600, #842, #33 ) ) ;
#451 = DIRECTION ( 'NONE',  ( -0.000000000000000000, -1.000000000000000000, -0.000000000000000000 ) ) ;
#452 = LINE ( 'NONE', #1268, #387 ) ;
#453 = CARTESIAN_POINT ( 'NONE',  ( 12.68706691308764789, 2.000000000000000000, -14.80838725664737332 ) ) ;
#454 = EDGE_CURVE ( 'NONE', #1060, #1147, #892, .T. ) ;
#455 = EDGE_LOOP ( 'NONE', ( #363, #1066, #321, #788 ) ) ;
#456 = FACE_OUTER_BOUND ( 'NONE', #22, .T. ) ;
#457 = PERSON_AND_ORGANIZATION_ROLE ( 'classification_officer' ) ;
#458 = VERTEX_POINT ( 'NONE', #199 ) ;
#459 = AXIS2_PLACEMENT_3D ( 'NONE', #605, #124, #896 ) ;
#460 = CYLINDRICAL_SURFACE ( 'NONE', #299, 19.49999999999999645 ) ;
#461 = AXIS2_PLACEMENT_3D ( 'NONE', #267, #338, #1136 ) ;
#462 = DIRECTION ( 'NONE',  ( -0.000000000000000000, -1.000000000000000000, 0.000000000000000000 ) ) ;
#463 = APPLICATION_CONTEXT ( 'configuration controlled 3d designs of mechanical parts and assemblies' ) ;
#464 = EDGE_CURVE ( 'NONE', #420, #25, #881, .T. ) ;
#465 = CARTESIAN_POINT ( 'NONE',  ( -13.46901206811584117, 2.000000000000000000, -17.47604504938341563 ) ) ;
#466 = VERTEX_POINT ( 'NONE', #107 ) ;
#467 = LINE ( 'NONE', #178, #164 ) ;
#468 = ORIENTED_EDGE ( 'NONE', *, *, #872, .F. ) ;
#469 = DIRECTION ( 'NONE',  ( 0.000000000000000000, 1.000000000000000000, 0.000000000000000000 ) ) ;
#470 = CARTESIAN_POINT ( 'NONE',  ( -14.74294916645986397, 4.000000000000000000, -12.76305017913743534 ) ) ;
#471 = DIRECTION ( 'NONE',  ( 0.000000000000000000, 0.000000000000000000, 1.000000000000000000 ) ) ;
#472 = PERSON_AND_ORGANIZATION ( #879, #1159 ) ;
#473 = ORIENTED_EDGE ( 'NONE', *, *, #228, .T. ) ;
#474 = DIRECTION ( 'NONE',  ( -0.7071067811865450192, 0.000000000000000000, 0.7071067811865500152 ) ) ;
#475 = ADVANCED_FACE ( 'NONE', ( #401 ), #916, .F. ) ;
#476 = AXIS2_PLACEMENT_3D ( 'NONE', #1182, #880, #500 ) ;
#477 = CIRCLE ( 'NONE', #933, 3.935437875520471973 ) ;
#478 = ORIENTED_EDGE ( 'NONE', *, *, #1140, .T. ) ;
#479 = CARTESIAN_POINT ( 'NONE',  ( 7.424621202458785874, 2.000000000000000000, -5.303300858899208770 ) ) ;
#480 = ORIENTED_EDGE ( 'NONE', *, *, #628, .T. ) ;
#481 = CARTESIAN_POINT ( 'NONE',  ( 1.836970198721030674E-16, 0.000000000000000000, -1.500000000000000666 ) ) ;
#482 = CARTESIAN_POINT ( 'NONE',  ( -5.515432893255166391, 2.000000000000000000, -7.495331880577451145 ) ) ;
#483 = AXIS2_PLACEMENT_3D ( 'NONE', #34, #936, #943 ) ;
#484 = CARTESIAN_POINT ( 'NONE',  ( 13.59992652383124678, 2.000000000000000000, 13.40911359017851723 ) ) ;
#485 = VECTOR ( 'NONE', #579, 1000.000000000000000 ) ;
#486 = DESIGN_CONTEXT ( 'detailed design', #12, 'design' ) ;
#487 = LINE ( 'NONE', #120, #882 ) ;
#488 = ORIENTED_EDGE ( 'NONE', *, *, #1016, .F. ) ;
#489 = DIRECTION ( 'NONE',  ( 0.000000000000000000, 1.000000000000000000, -0.000000000000000000 ) ) ;
#490 = CARTESIAN_POINT ( 'NONE',  ( 0.000000000000000000, 2.000000000000000000, 0.000000000000000000 ) ) ;
#491 = EDGE_CURVE ( 'NONE', #1275, #518, #206, .T. ) ;
#492 = LINE ( 'NONE', #902, #631 ) ;
#493 = ORIENTED_EDGE ( 'NONE', *, *, #280, .T. ) ;
#494 = DIRECTION ( 'NONE',  ( 0.000000000000000000, 1.000000000000000000, 0.000000000000000000 ) ) ;
#495 = DIRECTION ( 'NONE',  ( 0.7071067811865495711, 0.000000000000000000, 0.7071067811865455743 ) ) ;
#496 = VERTEX_POINT ( 'NONE', #784 ) ;
#497 = VECTOR ( 'NONE', #220, 1000.000000000000114 ) ;
#498 = ORIENTED_EDGE ( 'NONE', *, *, #438, .F. ) ;
#499 = CIRCLE ( 'NONE', #1196, 1.499999999999999556 ) ;
#500 = DIRECTION ( 'NONE',  ( 0.000000000000000000, 0.000000000000000000, 1.000000000000000000 ) ) ;
#501 = ADVANCED_FACE ( 'NONE', ( #296 ), #691, .T. ) ;
#502 = ORIENTED_EDGE ( 'NONE', *, *, #655, .T. ) ;
#503 = LINE ( 'NONE', #914, #245 ) ;
#504 = CARTESIAN_POINT ( 'NONE',  ( 5.515432893255160174, 2.000000000000000000, 7.495331880577470685 ) ) ;
#505 = ORIENTED_EDGE ( 'NONE', *, *, #1193, .T. ) ;
#506 = AXIS2_PLACEMENT_3D ( 'NONE', #246, #63, #771 ) ;
#507 = ORIENTED_EDGE ( 'NONE', *, *, #844, .T. ) ;
#508 = EDGE_LOOP ( 'NONE', ( #339, #140, #689, #413 ) ) ;
#509 = AXIS2_PLACEMENT_3D ( 'NONE', #789, #127, #212 ) ;
#510 = ORIENTED_EDGE ( 'NONE', *, *, #903, .T. ) ;
#511 = CARTESIAN_POINT ( 'NONE',  ( 1.836970198721030427E-16, 2.000000000000000000, -12.25000000000000000 ) ) ;
#512 = ADVANCED_FACE ( 'NONE', ( #986 ), #1185, .T. ) ;
#513 = FACE_OUTER_BOUND ( 'NONE', #314, .T. ) ;
#514 = ORIENTED_EDGE ( 'NONE', *, *, #144, .T. ) ;
#515 = ORIENTED_EDGE ( 'NONE', *, *, #184, .F. ) ;
#516 = ORIENTED_EDGE ( 'NONE', *, *, #464, .F. ) ;
#517 = ORIENTED_EDGE ( 'NONE', *, *, #491, .T. ) ;
#518 = VERTEX_POINT ( 'NONE', #481 ) ;
#519 = CARTESIAN_POINT ( 'NONE',  ( 0.1501041302089240748, 4.000000000000000000, -1.383122703327082759 ) ) ;
#520 = EDGE_CURVE ( 'NONE', #211, #136, #275, .T. ) ;
#521 = ORIENTED_EDGE ( 'NONE', *, *, #1053, .T. ) ;
#522 = ORIENTED_EDGE ( 'NONE', *, *, #464, .T. ) ;
#523 = AXIS2_PLACEMENT_3D ( 'NONE', #569, #270, #556 ) ;
#524 = EDGE_LOOP ( 'NONE', ( #126, #1264, #218, #368, #1079, #514, #1033, #1232, #402, #593, #480 ) ) ;
#525 = PERSON_AND_ORGANIZATION_ROLE ( 'creator' ) ;
#526 = FACE_BOUND ( 'NONE', #642, .T. ) ;
#527 = VECTOR ( 'NONE', #956, 1000.000000000000000 ) ;
#528 = CYLINDRICAL_SURFACE ( 'NONE', #761, 12.61897553401446537 ) ;
#529 = CARTESIAN_POINT ( 'NONE',  ( 5.515432893255160174, 4.000000000000000000, 7.495331880577470685 ) ) ;
#530 = ORIENTED_EDGE ( 'NONE', *, *, #558, .F. ) ;
#531 = VERTEX_POINT ( 'NONE', #832 ) ;
#532 = CARTESIAN_POINT ( 'NONE',  ( 19.16850670578935123, 2.000000000000000000, 3.580272429593683636 ) ) ;
#533 = DATE_TIME_ROLE ( 'classification_date' ) ;
#534 = ORIENTED_EDGE ( 'NONE', *, *, #1244, .F. ) ;
#535 = LINE ( 'NONE', #1063, #931 ) ;
#536 = DIRECTION ( 'NONE',  ( -0.7071067811865500152, 0.000000000000000000, -0.7071067811865451302 ) ) ;
#537 = ORIENTED_EDGE ( 'NONE', *, *, #655, .F. ) ;
#538 = ADVANCED_FACE ( 'NONE', ( #928, #156 ), #621, .T. ) ;
#539 = CARTESIAN_POINT ( 'NONE',  ( -19.32097345274790356, 2.000000000000000000, -2.636282389693976658 ) ) ;
#540 = ORIENTED_EDGE ( 'NONE', *, *, #872, .T. ) ;
#541 = DIRECTION ( 'NONE',  ( 0.7071067811865467956, 0.000000000000000000, -0.7071067811865483499 ) ) ;
#542 = PLANE ( 'NONE',  #804 ) ;
#543 = FACE_OUTER_BOUND ( 'NONE', #302, .T. ) ;
#544 = ORIENTED_EDGE ( 'NONE', *, *, #204, .T. ) ;
#545 = EDGE_CURVE ( 'NONE', #1155, #744, #1048, .T. ) ;
#546 = CARTESIAN_POINT ( 'NONE',  ( -7.424621202458773439, 0.000000000000000000, 5.303300858899222980 ) ) ;
#547 = FACE_OUTER_BOUND ( 'NONE', #450, .T. ) ;
#548 = AXIS2_PLACEMENT_3D ( 'NONE', #93, #80, #449 ) ;
#549 = VERTEX_POINT ( 'NONE', #539 ) ;
#550 = VECTOR ( 'NONE', #39, 1000.000000000000000 ) ;
#551 = LINE ( 'NONE', #364, #353 ) ;
#552 = DIRECTION ( 'NONE',  ( 0.000000000000000000, 0.000000000000000000, -1.000000000000000000 ) ) ;
#553 = DIRECTION ( 'NONE',  ( 0.000000000000000000, 0.000000000000000000, -1.000000000000000000 ) ) ;
#554 = LINE ( 'NONE', #1058, #439 ) ;
#555 = CARTESIAN_POINT ( 'NONE',  ( 0.1501041302089240748, 2.000000000000000000, -1.383122703327082759 ) ) ;
#556 = DIRECTION ( 'NONE',  ( 0.7071067811865450192, 0.000000000000000000, -0.7071067811865500152 ) ) ;
#557 = VECTOR ( 'NONE', #602, 1000.000000000000114 ) ;
#558 = EDGE_CURVE ( 'NONE', #1155, #1121, #641, .T. ) ;
#559 = DIRECTION ( 'NONE',  ( 0.000000000000000000, 1.000000000000000000, 0.000000000000000000 ) ) ;
#560 = CARTESIAN_POINT ( 'NONE',  ( -13.46901206811584117, 0.000000000000000000, -13.54060717386294499 ) ) ;
#561 = VERTEX_POINT ( 'NONE', #709 ) ;
#562 = CARTESIAN_POINT ( 'NONE',  ( 0.000000000000000000, 2.000000000000000000, 0.000000000000000000 ) ) ;
#563 = APPROVAL_STATUS ( 'not_yet_approved' ) ;
#564 = ORIENTED_EDGE ( 'NONE', *, *, #1019, .F. ) ;
#565 = PERSON_AND_ORGANIZATION_ROLE ( 'creator' ) ;
#566 = EDGE_CURVE ( 'NONE', #1025, #1209, #1210, .T. ) ;
#567 = DIRECTION ( 'NONE',  ( 0.000000000000000000, 1.000000000000000000, 0.000000000000000000 ) ) ;
#568 = CARTESIAN_POINT ( 'NONE',  ( 4.651398908852252356E-15, 2.000000000000000000, 4.651398908852255512E-15 ) ) ;
#569 = CARTESIAN_POINT ( 'NONE',  ( -5.515432893255166391, 4.000000000000000000, -7.495331880577451145 ) ) ;
#570 = DIRECTION ( 'NONE',  ( -0.000000000000000000, -1.000000000000000000, -0.000000000000000000 ) ) ;
#571 = VECTOR ( 'NONE', #291, 1000.000000000000000 ) ;
#572 = VECTOR ( 'NONE', #1254, 1000.000000000000114 ) ;
#573 = CYLINDRICAL_SURFACE ( 'NONE', #287, 17.57314784211152414 ) ;
#574 = EDGE_CURVE ( 'NONE', #254, #420, #83, .T. ) ;
#575 = CARTESIAN_POINT ( 'NONE',  ( -7.495331880577491113, 4.000000000000000000, -5.515432893255113100 ) ) ;
#576 = ORIENTED_EDGE ( 'NONE', *, *, #216, .F. ) ;
#577 = CIRCLE ( 'NONE', #26, 19.50000000000000000 ) ;
#578 = VECTOR ( 'NONE', #96, 1000.000000000000000 ) ;
#579 = DIRECTION ( 'NONE',  ( -0.000000000000000000, -1.000000000000000000, -0.000000000000000000 ) ) ;
#580 = CARTESIAN_POINT ( 'NONE',  ( 12.76305017913752415, 4.000000000000000000, 14.74294916645980358 ) ) ;
#581 = EDGE_CURVE ( 'NONE', #1025, #987, #329, .T. ) ;
#582 = ORIENTED_EDGE ( 'NONE', *, *, #49, .T. ) ;
#583 = DIRECTION ( 'NONE',  ( 0.000000000000000000, 0.000000000000000000, -1.000000000000000000 ) ) ;
#584 =( NAMED_UNIT ( * ) SI_UNIT ( $, .STERADIAN. ) SOLID_ANGLE_UNIT ( ) );
#585 = UNCERTAINTY_MEASURE_WITH_UNIT (LENGTH_MEASURE( 1.000000000000000082E-05 ), #906, 'distance_accuracy_value', 'NONE');
#586 = EDGE_LOOP ( 'NONE', ( #194, #116, #87, #131 ) ) ;
#587 = CYLINDRICAL_SURFACE ( 'NONE', #104, 19.50000000000000000 ) ;
#588 = EDGE_LOOP ( 'NONE', ( #1042, #395, #95, #816 ) ) ;
#589 = DIRECTION ( 'NONE',  ( -0.000000000000000000, -1.000000000000000000, -0.000000000000000000 ) ) ;
#590 = VECTOR ( 'NONE', #105, 1000.000000000000000 ) ;
#591 = CARTESIAN_POINT ( 'NONE',  ( -5.303300858899163472, 2.000000000000000000, 7.424621202458819624 ) ) ;
#592 = VECTOR ( 'NONE', #1248, 1000.000000000000114 ) ;
#593 = ORIENTED_EDGE ( 'NONE', *, *, #1169, .T. ) ;
#594 = CARTESIAN_POINT ( 'NONE',  ( -14.80838725664729871, 0.000000000000000000, 12.68706691308774026 ) ) ;
#595 = ORIENTED_EDGE ( 'NONE', *, *, #304, .T. ) ;
#596 = DIRECTION ( 'NONE',  ( 0.000000000000000000, 0.000000000000000000, -1.000000000000000000 ) ) ;
#597 = CARTESIAN_POINT ( 'NONE',  ( -5.515432893255166391, 4.000000000000000000, -7.495331880577451145 ) ) ;
#598 = EDGE_CURVE ( 'NONE', #911, #466, #1110, .T. ) ;
#599 = AXIS2_PLACEMENT_3D ( 'NONE', #27, #809, #583 ) ;
#600 = ORIENTED_EDGE ( 'NONE', *, *, #1108, .T. ) ;
#601 = DIRECTION ( 'NONE',  ( 0.7071067811865429098, 0.000000000000000000, -0.7071067811865521247 ) ) ;
#602 = DIRECTION ( 'NONE',  ( 0.7071067811865489050, 0.000000000000000000, 0.7071067811865461294 ) ) ;
#603 = EDGE_CURVE ( 'NONE', #823, #1025, #1074, .T. ) ;
#604 = VERTEX_POINT ( 'NONE', #141 ) ;
#605 = CARTESIAN_POINT ( 'NONE',  ( 0.000000000000000000, 2.000000000000000000, 0.000000000000000000 ) ) ;
#606 = APPROVAL_DATE_TIME ( #858, #229 ) ;
#607 = LINE ( 'NONE', #1284, #557 ) ;
#608 = VERTEX_POINT ( 'NONE', #1241 ) ;
#609 = AXIS2_PLACEMENT_3D ( 'NONE', #575, #260, #951 ) ;
#610 = DIRECTION ( 'NONE',  ( 0.7071067811865426878, 0.000000000000000000, -0.7071067811865522357 ) ) ;
#611 = ORIENTED_EDGE ( 'NONE', *, *, #1206, .T. ) ;
#612 = DIRECTION ( 'NONE',  ( 0.000000000000000000, 1.000000000000000000, 0.000000000000000000 ) ) ;
#613 = CYLINDRICAL_SURFACE ( 'NONE', #1281, 1.499999999999999556 ) ;
#614 = CARTESIAN_POINT ( 'NONE',  ( 0.000000000000000000, 2.000000000000000000, 0.000000000000000000 ) ) ;
#615 = ORIENTED_EDGE ( 'NONE', *, *, #635, .F. ) ;
#616 = EDGE_LOOP ( 'NONE', ( #24, #965, #897, #74 ) ) ;
#617 = VECTOR ( 'NONE', #1064, 1000.000000000000114 ) ;
#618 = ORIENTED_EDGE ( 'NONE', *, *, #328, .F. ) ;
#619 = AXIS2_PLACEMENT_3D ( 'NONE', #192, #1285, #1271 ) ;
#620 = EDGE_CURVE ( 'NONE', #531, #1147, #37, .T. ) ;
#621 = PLANE ( 'NONE',  #250 ) ;
#622 = CARTESIAN_POINT ( 'NONE',  ( -19.15407925001487399, 4.000000000000000000, -3.478119516488947127 ) ) ;
#623 = ORIENTED_EDGE ( 'NONE', *, *, #370, .F. ) ;
#624 = CARTESIAN_POINT ( 'NONE',  ( -7.424621202458773439, 2.000000000000000000, 5.303300858899222980 ) ) ;
#625 = CARTESIAN_POINT ( 'NONE',  ( 12.76305017913752415, 2.000000000000000000, 14.74294916645980358 ) ) ;
#626 = VERTEX_POINT ( 'NONE', #511 ) ;
#627 = DIRECTION ( 'NONE',  ( -0.7071067811865426878, 0.000000000000000000, 0.7071067811865522357 ) ) ;
#628 = EDGE_CURVE ( 'NONE', #531, #694, #417, .T. ) ;
#629 = DIRECTION ( 'NONE',  ( 0.000000000000000000, 0.000000000000000000, 1.000000000000000000 ) ) ;
#630 = ORIENTED_EDGE ( 'NONE', *, *, #603, .T. ) ;
#631 = VECTOR ( 'NONE', #16, 1000.000000000000000 ) ;
#632 = EDGE_LOOP ( 'NONE', ( #424, #1203, #1023, #378 ) ) ;
#633 = CARTESIAN_POINT ( 'NONE',  ( 4.651398908852252356E-15, 4.000000000000000000, 4.651398908852255512E-15 ) ) ;
#634 = CIRCLE ( 'NONE', #1179, 19.50000000000000000 ) ;
#635 = EDGE_CURVE ( 'NONE', #496, #808, #1125, .T. ) ;
#636 = ORIENTED_EDGE ( 'NONE', *, *, #1116, .F. ) ;
#637 = CARTESIAN_POINT ( 'NONE',  ( 0.000000000000000000, 0.000000000000000000, -13.75000000000000000 ) ) ;
#638 = VERTEX_POINT ( 'NONE', #234 ) ;
#639 = CIRCLE ( 'NONE', #91, 12.61897553401446537 ) ;
#640 = ORIENTED_EDGE ( 'NONE', *, *, #94, .F. ) ;
#641 = LINE ( 'NONE', #720, #742 ) ;
#642 = EDGE_LOOP ( 'NONE', ( #886, #208 ) ) ;
#643 = CARTESIAN_POINT ( 'NONE',  ( 4.651398908852252356E-15, 4.000000000000000000, 4.651398908852255512E-15 ) ) ;
#644 = DIRECTION ( 'NONE',  ( 0.9941626175087246997, 0.000000000000000000, -0.1078920291226427852 ) ) ;
#645 = ADVANCED_BREP_SHAPE_REPRESENTATION ( 'Throttle', ( #219, #84 ), #106 ) ;
#646 = EDGE_CURVE ( 'NONE', #963, #237, #240, .T. ) ;
#647 = DIRECTION ( 'NONE',  ( -0.000000000000000000, -1.000000000000000000, 0.000000000000000000 ) ) ;
#648 = DATE_AND_TIME ( #58, #418 ) ;
#649 = CARTESIAN_POINT ( 'NONE',  ( 5.515432893255160174, 4.000000000000000000, 7.495331880577470685 ) ) ;
#650 = LINE ( 'NONE', #442, #1084 ) ;
#651 = CYLINDRICAL_SURFACE ( 'NONE', #908, 3.935437875520471973 ) ;
#652 = CARTESIAN_POINT ( 'NONE',  ( -5.515432893255166391, 2.000000000000000000, -7.495331880577451145 ) ) ;
#653 = EDGE_LOOP ( 'NONE', ( #145, #28, #146, #135 ) ) ;
#654 = CARTESIAN_POINT ( 'NONE',  ( -5.303300858899163472, 0.000000000000000000, 7.424621202458819624 ) ) ;
#655 = EDGE_CURVE ( 'NONE', #733, #932, #1034, .T. ) ;
#656 = AXIS2_PLACEMENT_3D ( 'NONE', #776, #284, #1178 ) ;
#657 = ORIENTED_EDGE ( 'NONE', *, *, #793, .F. ) ;
#658 = DIRECTION ( 'NONE',  ( -0.9941626175087246997, 0.000000000000000000, 0.1078920291226427852 ) ) ;
#659 = CARTESIAN_POINT ( 'NONE',  ( 7.495331880577489336, 4.000000000000000000, 5.515432893255137081 ) ) ;
#660 = DIRECTION ( 'NONE',  ( 0.000000000000000000, 0.000000000000000000, 1.000000000000000000 ) ) ;
#661 = ORIENTED_EDGE ( 'NONE', *, *, #779, .T. ) ;
#662 = CARTESIAN_POINT ( 'NONE',  ( 0.000000000000000000, 4.000000000000000000, 0.000000000000000000 ) ) ;
#663 = ADVANCED_FACE ( 'NONE', ( #1041, #526, #945 ), #57, .T. ) ;
#664 = VECTOR ( 'NONE', #78, 1000.000000000000000 ) ;
#665 = AXIS2_PLACEMENT_3D ( 'NONE', #1194, #117, #596 ) ;
#666 = DIRECTION ( 'NONE',  ( 0.7071067811865499042, -0.000000000000000000, 0.7071067811865452413 ) ) ;
#667 = ORIENTED_EDGE ( 'NONE', *, *, #380, .T. ) ;
#668 = CARTESIAN_POINT ( 'NONE',  ( -7.424621202458773439, 2.000000000000000000, 5.303300858899222980 ) ) ;
#669 = COORDINATED_UNIVERSAL_TIME_OFFSET ( 5, 0, .BEHIND. ) ;
#670 = DIRECTION ( 'NONE',  ( 0.000000000000000000, 1.000000000000000000, 0.000000000000000000 ) ) ;
#671 = DIRECTION ( 'NONE',  ( -0.7071067811865477948, 0.000000000000000000, -0.7071067811865473507 ) ) ;
#672 = EDGE_LOOP ( 'NONE', ( #1187, #889, #1216, #312 ) ) ;
#673 = DIRECTION ( 'NONE',  ( 0.000000000000000000, 0.000000000000000000, -1.000000000000000000 ) ) ;
#674 = AXIS2_PLACEMENT_3D ( 'NONE', #422, #337, #150 ) ;
#675 = LOCAL_TIME ( 10, 43, 44.00000000000000000, #817 ) ;
#676 = LINE ( 'NONE', #995, #70 ) ;
#677 = CARTESIAN_POINT ( 'NONE',  ( 5.303300858899176795, 2.000000000000000000, -7.424621202458806302 ) ) ;
#678 = EDGE_CURVE ( 'NONE', #638, #283, #142, .T. ) ;
#679 = FACE_OUTER_BOUND ( 'NONE', #1014, .T. ) ;
#680 = AXIS2_PLACEMENT_3D ( 'NONE', #1086, #966, #179 ) ;
#681 = VERTEX_POINT ( 'NONE', #427 ) ;
#682 = FACE_OUTER_BOUND ( 'NONE', #958, .T. ) ;
#683 = EDGE_CURVE ( 'NONE', #237, #247, #732, .T. ) ;
#684 = APPROVAL_STATUS ( 'not_yet_approved' ) ;
#685 = CARTESIAN_POINT ( 'NONE',  ( -5.515432893255166391, 4.000000000000000000, -7.495331880577451145 ) ) ;
#686 = DIRECTION ( 'NONE',  ( 0.000000000000000000, 0.000000000000000000, 1.000000000000000000 ) ) ;
#687 = PLANE ( 'NONE',  #729 ) ;
#688 = DIRECTION ( 'NONE',  ( 0.000000000000000000, 0.000000000000000000, -1.000000000000000000 ) ) ;
#689 = ORIENTED_EDGE ( 'NONE', *, *, #603, .F. ) ;
#690 = ADVANCED_FACE ( 'NONE', ( #456 ), #1076, .F. ) ;
#691 = CYLINDRICAL_SURFACE ( 'NONE', #599, 19.50000000000000000 ) ;
#692 = VECTOR ( 'NONE', #1118, 1000.000000000000114 ) ;
#693 = CARTESIAN_POINT ( 'NONE',  ( 0.000000000000000000, 2.000000000000000000, 0.000000000000000000 ) ) ;
#694 = VERTEX_POINT ( 'NONE', #1160 ) ;
#695 = DIRECTION ( 'NONE',  ( 0.000000000000000000, 1.000000000000000000, -0.000000000000000000 ) ) ;
#696 = EDGE_CURVE ( 'NONE', #1279, #1155, #991, .T. ) ;
#697 = VERTEX_POINT ( 'NONE', #1153 ) ;
#698 = CARTESIAN_POINT ( 'NONE',  ( 0.000000000000000000, 2.000000000000000000, -19.49999999999999289 ) ) ;
#699 = CARTESIAN_POINT ( 'NONE',  ( 0.000000000000000000, 0.000000000000000000, 0.000000000000000000 ) ) ;
#700 = EDGE_LOOP ( 'NONE', ( #544, #989, #1270, #112 ) ) ;
#701 = EDGE_LOOP ( 'NONE', ( #443, #564, #910, #59 ) ) ;
#702 = LINE ( 'NONE', #685, #959 ) ;
#703 = ORIENTED_EDGE ( 'NONE', *, *, #782, .T. ) ;
#704 = VECTOR ( 'NONE', #601, 1000.000000000000114 ) ;
#705 = ADVANCED_FACE ( 'NONE', ( #547 ), #186, .F. ) ;
#706 = EDGE_LOOP ( 'NONE', ( #1050, #716, #1258, #920 ) ) ;
#707 = VECTOR ( 'NONE', #1139, 1000.000000000000000 ) ;
#708 = VERTEX_POINT ( 'NONE', #862 ) ;
#709 = CARTESIAN_POINT ( 'NONE',  ( -10.67887068750157553, 2.000000000000000000, -16.31599585804125496 ) ) ;
#710 = ORIENTED_EDGE ( 'NONE', *, *, #94, .T. ) ;
#711 = VERTEX_POINT ( 'NONE', #65 ) ;
#712 = AXIS2_PLACEMENT_3D ( 'NONE', #14, #695, #396 ) ;
#713 = PERSON_AND_ORGANIZATION ( #879, #1159 ) ;
#714 = CARTESIAN_POINT ( 'NONE',  ( 0.000000000000000000, 2.000000000000000000, 1.500000000000000666 ) ) ;
#715 = APPROVAL ( #563, 'UNSPECIFIED' ) ;
#716 = ORIENTED_EDGE ( 'NONE', *, *, #411, .T. ) ;
#717 = CARTESIAN_POINT ( 'NONE',  ( 4.651398908852252356E-15, 4.000000000000000000, 4.651398908852255512E-15 ) ) ;
#718 = VERTEX_POINT ( 'NONE', #654 ) ;
#719 = PLANE ( 'NONE',  #1013 ) ;
#720 = CARTESIAN_POINT ( 'NONE',  ( -0.4073723582260539433, 4.000000000000000000, -1.443623137024807379 ) ) ;
#721 = CALENDAR_DATE ( 2026, 8, 7 ) ;
#722 = VERTEX_POINT ( 'NONE', #1167 ) ;
#723 = ADVANCED_FACE ( 'NONE', ( #1062 ), #169, .T. ) ;
#724 = DIRECTION ( 'NONE',  ( 0.000000000000000000, 0.000000000000000000, 1.000000000000000000 ) ) ;
#725 = ORIENTED_EDGE ( 'NONE', *, *, #1151, .T. ) ;
#726 = LINE ( 'NONE', #139, #307 ) ;
#727 = CARTESIAN_POINT ( 'NONE',  ( -5.515432893255166391, 4.000000000000000000, -7.495331880577451145 ) ) ;
#728 = ORIENTED_EDGE ( 'NONE', *, *, #635, .T. ) ;
#729 = AXIS2_PLACEMENT_3D ( 'NONE', #677, #200, #1080 ) ;
#730 = APPROVAL_PERSON_ORGANIZATION ( #713, #346, #812 ) ;
#731 = ORIENTED_EDGE ( 'NONE', *, *, #748, .F. ) ;
#732 = LINE ( 'NONE', #1138, #125 ) ;
#733 = VERTEX_POINT ( 'NONE', #765 ) ;
#734 = LINE ( 'NONE', #622, #550 ) ;
#735 = ADVANCED_FACE ( 'NONE', ( #88 ), #1070, .T. ) ;
#736 = DIRECTION ( 'NONE',  ( -0.000000000000000000, -1.000000000000000000, -0.000000000000000000 ) ) ;
#737 = EDGE_CURVE ( 'NONE', #998, #496, #1195, .T. ) ;
#738 = CC_DESIGN_PERSON_AND_ORGANIZATION_ASSIGNMENT ( #1049, #457, ( #128 ) ) ;
#739 = DIRECTION ( 'NONE',  ( -0.1078920291225144296, 0.000000000000000000, 0.9941626175087386885 ) ) ;
#740 = CIRCLE ( 'NONE', #226, 3.935437875520471973 ) ;
#741 = ORIENTED_EDGE ( 'NONE', *, *, #400, .T. ) ;
#742 = VECTOR ( 'NONE', #30, 1000.000000000000000 ) ;
#743 = DIRECTION ( 'NONE',  ( -0.000000000000000000, -1.000000000000000000, -0.000000000000000000 ) ) ;
#744 = VERTEX_POINT ( 'NONE', #1257 ) ;
#745 = DIRECTION ( 'NONE',  ( 0.000000000000000000, 0.000000000000000000, -1.000000000000000000 ) ) ;
#746 = APPROVAL_ROLE ( '' ) ;
#747 = FACE_OUTER_BOUND ( 'NONE', #856, .T. ) ;
#748 = EDGE_CURVE ( 'NONE', #1113, #1047, #1177, .T. ) ;
#749 = EDGE_LOOP ( 'NONE', ( #517, #1222, #103, #530, #1240, #710, #155, #595 ) ) ;
#750 = DIRECTION ( 'NONE',  ( 0.000000000000000000, -1.000000000000000000, 0.000000000000000000 ) ) ;
#751 = CALENDAR_DATE ( 2026, 8, 7 ) ;
#752 = CARTESIAN_POINT ( 'NONE',  ( 13.59992652383124678, 2.000000000000000000, 13.40911359017851723 ) ) ;
#753 = CARTESIAN_POINT ( 'NONE',  ( -5.303300858899163472, 2.000000000000000000, 7.424621202458819624 ) ) ;
#754 = CARTESIAN_POINT ( 'NONE',  ( -19.15407925001478873, 4.000000000000000000, 3.478119516491232410 ) ) ;
#755 = ADVANCED_FACE ( 'NONE', ( #1274 ), #279, .T. ) ;
#756 = ORIENTED_EDGE ( 'NONE', *, *, #628, .F. ) ;
#757 = DIRECTION ( 'NONE',  ( -0.7071067811865473507, 0.000000000000000000, 0.7071067811865477948 ) ) ;
#758 = APPROVAL_DATE_TIME ( #833, #715 ) ;
#759 = VECTOR ( 'NONE', #495, 1000.000000000000114 ) ;
#760 = ORIENTED_EDGE ( 'NONE', *, *, #1071, .T. ) ;
#761 = AXIS2_PLACEMENT_3D ( 'NONE', #1035, #345, #222 ) ;
#762 = FACE_OUTER_BOUND ( 'NONE', #1104, .T. ) ;
#763 = DIRECTION ( 'NONE',  ( -0.7071067811865499042, 0.000000000000000000, -0.7071067811865452413 ) ) ;
#764 = DIRECTION ( 'NONE',  ( 0.000000000000000000, 0.000000000000000000, 1.000000000000000000 ) ) ;
#765 = CARTESIAN_POINT ( 'NONE',  ( -14.80838725664729871, 2.000000000000000000, 12.68706691308774026 ) ) ;
#766 = ORIENTED_EDGE ( 'NONE', *, *, #937, .T. ) ;
#767 = EDGE_CURVE ( 'NONE', #998, #1090, #1055, .T. ) ;
#768 = CC_DESIGN_DATE_AND_TIME_ASSIGNMENT ( #1198, #1146, ( #86 ) ) ;
#769 = VECTOR ( 'NONE', #19, 1000.000000000000000 ) ;
#770 = CARTESIAN_POINT ( 'NONE',  ( 14.80838725664730582, 2.000000000000000000, -12.68706691308772960 ) ) ;
#771 = DIRECTION ( 'NONE',  ( 0.000000000000000000, 0.000000000000000000, -1.000000000000000000 ) ) ;
#772 = CARTESIAN_POINT ( 'NONE',  ( 1.836970198721029934E-16, 2.000000000000000000, -12.25000000000000000 ) ) ;
#773 = DIRECTION ( 'NONE',  ( -0.000000000000000000, -1.000000000000000000, -0.000000000000000000 ) ) ;
#774 = EDGE_CURVE ( 'NONE', #932, #1242, #467, .T. ) ;
#775 = ORIENTED_EDGE ( 'NONE', *, *, #803, .F. ) ;
#776 = CARTESIAN_POINT ( 'NONE',  ( 0.000000000000000000, 2.000000000000000000, 1.500000000000000666 ) ) ;
#777 = VECTOR ( 'NONE', #743, 1000.000000000000000 ) ;
#778 = VECTOR ( 'NONE', #447, 1000.000000000000000 ) ;
#779 = EDGE_CURVE ( 'NONE', #808, #932, #61, .T. ) ;
#780 = LOCAL_TIME ( 10, 43, 44.00000000000000000, #429 ) ;
#781 = CARTESIAN_POINT ( 'NONE',  ( 0.000000000000000000, 2.000000000000000000, 0.000000000000000000 ) ) ;
#782 = EDGE_CURVE ( 'NONE', #711, #708, #978, .T. ) ;
#783 = DIRECTION ( 'NONE',  ( -0.7071067811865455743, 0.000000000000000000, 0.7071067811865495711 ) ) ;
#784 = CARTESIAN_POINT ( 'NONE',  ( -16.25915344873010326, 2.000000000000000000, -10.76521848968463146 ) ) ;
#785 = AXIS2_PLACEMENT_3D ( 'NONE', #1171, #670, #347 ) ;
#786 = EDGE_CURVE ( 'NONE', #72, #466, #1148, .T. ) ;
#787 = CARTESIAN_POINT ( 'NONE',  ( -10.67887068750157553, 0.000000000000000000, -16.31599585804125496 ) ) ;
#788 = ORIENTED_EDGE ( 'NONE', *, *, #1088, .T. ) ;
#789 = CARTESIAN_POINT ( 'NONE',  ( 5.515432893255160174, 4.000000000000000000, 7.495331880577470685 ) ) ;
#790 = FACE_OUTER_BOUND ( 'NONE', #340, .T. ) ;
#791 = ORIENTED_EDGE ( 'NONE', *, *, #520, .F. ) ;
#792 = DIRECTION ( 'NONE',  ( 0.000000000000000000, 1.000000000000000000, 0.000000000000000000 ) ) ;
#793 = EDGE_CURVE ( 'NONE', #733, #36, #1172, .T. ) ;
#794 = ORIENTED_EDGE ( 'NONE', *, *, #77, .T. ) ;
#795 = CARTESIAN_POINT ( 'NONE',  ( 0.000000000000000000, 4.000000000000000000, 0.000000000000000000 ) ) ;
#796 = VECTOR ( 'NONE', #11, 1000.000000000000000 ) ;
#797 = DIRECTION ( 'NONE',  ( 0.7071067811865500152, 0.000000000000000000, 0.7071067811865451302 ) ) ;
#798 = AXIS2_PLACEMENT_3D ( 'NONE', #394, #1003, #471 ) ;
#799 = LOCAL_TIME ( 10, 43, 44.00000000000000000, #869 ) ;
#800 = LINE ( 'NONE', #201, #796 ) ;
#801 = CARTESIAN_POINT ( 'NONE',  ( -7.495331880577491113, 2.000000000000000000, -5.515432893255113100 ) ) ;
#802 = CARTESIAN_POINT ( 'NONE',  ( 0.000000000000000000, 2.000000000000000000, -15.25000000000000000 ) ) ;
#803 = EDGE_CURVE ( 'NONE', #626, #211, #255, .T. ) ;
#804 = AXIS2_PLACEMENT_3D ( 'NONE', #1150, #257, #644 ) ;
#805 = AXIS2_PLACEMENT_3D ( 'NONE', #292, #589, #990 ) ;
#806 = ORIENTED_EDGE ( 'NONE', *, *, #1262, .F. ) ;
#807 = CARTESIAN_POINT ( 'NONE',  ( -12.76305017913754369, 2.000000000000000000, -14.74294916645976983 ) ) ;
#808 = VERTEX_POINT ( 'NONE', #988 ) ;
#809 = DIRECTION ( 'NONE',  ( -0.000000000000000000, -1.000000000000000000, -0.000000000000000000 ) ) ;
#810 = EDGE_CURVE ( 'NONE', #1215, #283, #888, .T. ) ;
#811 = PLANE ( 'NONE',  #873 ) ;
#812 = APPROVAL_ROLE ( '' ) ;
#813 = ORIENTED_EDGE ( 'NONE', *, *, #969, .F. ) ;
#814 = CARTESIAN_POINT ( 'NONE',  ( 0.000000000000000000, 2.000000000000000000, 0.000000000000000000 ) ) ;
#815 = AXIS2_PLACEMENT_3D ( 'NONE', #479, #783, #113 ) ;
#816 = ORIENTED_EDGE ( 'NONE', *, *, #598, .T. ) ;
#817 = COORDINATED_UNIVERSAL_TIME_OFFSET ( 5, 0, .BEHIND. ) ;
#818 = EDGE_CURVE ( 'NONE', #963, #718, #1103, .T. ) ;
#819 = ORIENTED_EDGE ( 'NONE', *, *, #545, .T. ) ;
#820 = DIRECTION ( 'NONE',  ( -0.000000000000000000, -1.000000000000000000, -0.000000000000000000 ) ) ;
#821 = DIRECTION ( 'NONE',  ( -0.9941626175087385775, 0.000000000000000000, -0.1078920291225144018 ) ) ;
#822 = ORIENTED_EDGE ( 'NONE', *, *, #774, .T. ) ;
#823 = VERTEX_POINT ( 'NONE', #196 ) ;
#824 = VECTOR ( 'NONE', #947, 1000.000000000000000 ) ;
#825 = EDGE_CURVE ( 'NONE', #1266, #626, #1094, .T. ) ;
#826 = ORIENTED_EDGE ( 'NONE', *, *, #1101, .T. ) ;
#827 = CARTESIAN_POINT ( 'NONE',  ( -14.80838725664729871, 2.000000000000000000, 12.68706691308774026 ) ) ;
#828 = APPLICATION_PROTOCOL_DEFINITION ( 'international standard', 'config_control_design', 1994, #463 ) ;
#829 = DIRECTION ( 'NONE',  ( 0.000000000000000000, 1.000000000000000000, 0.000000000000000000 ) ) ;
#830 = DIRECTION ( 'NONE',  ( -0.7071067811865495711, 0.000000000000000000, -0.7071067811865455743 ) ) ;
#831 = ADVANCED_FACE ( 'NONE', ( #2 ), #382, .F. ) ;
#832 = CARTESIAN_POINT ( 'NONE',  ( 19.16850670578935123, 2.000000000000000000, 3.580272429593683636 ) ) ;
#833 = DATE_AND_TIME ( #721, #780 ) ;
#834 = ORIENTED_EDGE ( 'NONE', *, *, #294, .T. ) ;
#835 = CARTESIAN_POINT ( 'NONE',  ( 0.000000000000000000, 0.000000000000000000, 0.000000000000000000 ) ) ;
#836 = DIRECTION ( 'NONE',  ( -0.000000000000000000, -1.000000000000000000, -0.000000000000000000 ) ) ;
#837 = CARTESIAN_POINT ( 'NONE',  ( 16.36297268748718992, 0.000000000000000000, 10.60674902260575614 ) ) ;
#838 = VECTOR ( 'NONE', #627, 1000.000000000000114 ) ;
#839 = CIRCLE ( 'NONE', #143, 1.499999999999999556 ) ;
#840 = ORIENTED_EDGE ( 'NONE', *, *, #810, .T. ) ;
#841 = DIRECTION ( 'NONE',  ( 0.000000000000000000, -0.000000000000000000, 1.000000000000000000 ) ) ;
#842 = ORIENTED_EDGE ( 'NONE', *, *, #574, .F. ) ;
#843 = DIRECTION ( 'NONE',  ( -0.000000000000000000, -1.000000000000000000, 0.000000000000000000 ) ) ;
#844 = EDGE_CURVE ( 'NONE', #561, #876, #210, .T. ) ;
#845 = CARTESIAN_POINT ( 'NONE',  ( 4.651398908852252356E-15, 4.000000000000000000, 4.651398908852255512E-15 ) ) ;
#846 = AXIS2_PLACEMENT_3D ( 'NONE', #717, #238, #629 ) ;
#847 = ORIENTED_EDGE ( 'NONE', *, *, #109, .F. ) ;
#848 = VECTOR ( 'NONE', #821, 1000.000000000000114 ) ;
#849 = DIRECTION ( 'NONE',  ( 0.000000000000000000, -0.000000000000000000, -1.000000000000000000 ) ) ;
#850 = CARTESIAN_POINT ( 'NONE',  ( 0.000000000000000000, 2.000000000000000000, 0.000000000000000000 ) ) ;
#851 = DIRECTION ( 'NONE',  ( -0.000000000000000000, -1.000000000000000000, -0.000000000000000000 ) ) ;
#852 = FACE_OUTER_BOUND ( 'NONE', #1168, .T. ) ;
#853 = EDGE_CURVE ( 'NONE', #122, #1073, #399, .T. ) ;
#854 = DIRECTION ( 'NONE',  ( 0.000000000000000000, 0.000000000000000000, -1.000000000000000000 ) ) ;
#855 = CARTESIAN_POINT ( 'NONE',  ( 0.000000000000000000, 0.000000000000000000, 0.000000000000000000 ) ) ;
#856 = EDGE_LOOP ( 'NONE', ( #174, #640, #197, #15 ) ) ;
#857 = LINE ( 'NONE', #1276, #919 ) ;
#858 = DATE_AND_TIME ( #751, #799 ) ;
#859 = DIRECTION ( 'NONE',  ( -0.7071067811865495711, 0.000000000000000000, -0.7071067811865455743 ) ) ;
#860 = CARTESIAN_POINT ( 'NONE',  ( 10.83688036017530010, 2.000000000000000000, 16.21147815775128365 ) ) ;
#861 = PERSON_AND_ORGANIZATION_ROLE ( 'design_supplier' ) ;
#862 = CARTESIAN_POINT ( 'NONE',  ( -7.495331880577491113, 2.000000000000000000, -5.515432893255113100 ) ) ;
#863 = PERSON_AND_ORGANIZATION ( #879, #1159 ) ;
#864 = AXIS2_PLACEMENT_3D ( 'NONE', #662, #647, #871 ) ;
#865 = ORIENTED_EDGE ( 'NONE', *, *, #1181, .F. ) ;
#866 = CIRCLE ( 'NONE', #301, 19.49999999999999289 ) ;
#867 = APPLICATION_PROTOCOL_DEFINITION ( 'international standard', 'config_control_design', 1994, #12 ) ;
#868 = LINE ( 'NONE', #649, #183 ) ;
#869 = COORDINATED_UNIVERSAL_TIME_OFFSET ( 5, 0, .BEHIND. ) ;
#870 = FACE_OUTER_BOUND ( 'NONE', #632, .T. ) ;
#871 = DIRECTION ( 'NONE',  ( 0.000000000000000000, 0.000000000000000000, 1.000000000000000000 ) ) ;
#872 = EDGE_CURVE ( 'NONE', #1109, #1212, #487, .T. ) ;
#873 = AXIS2_PLACEMENT_3D ( 'NONE', #1207, #223, #610 ) ;
#874 = LINE ( 'NONE', #379, #485 ) ;
#875 = DIRECTION ( 'NONE',  ( 0.000000000000000000, 0.000000000000000000, 1.000000000000000000 ) ) ;
#876 = VERTEX_POINT ( 'NONE', #787 ) ;
#877 = ADVANCED_FACE ( 'NONE', ( #377 ), #1280, .T. ) ;
#878 = DIRECTION ( 'NONE',  ( 0.000000000000000000, 0.000000000000000000, 1.000000000000000000 ) ) ;
#879 = PERSON ( 'UNSPECIFIED', 'UNSPECIFIED', 'UNSPECIFIED', ('UNSPECIFIED'), ('UNSPECIFIED'), ('UNSPECIFIED') ) ;
#880 = DIRECTION ( 'NONE',  ( 0.000000000000000000, 1.000000000000000000, 0.000000000000000000 ) ) ;
#881 = LINE ( 'NONE', #905, #769 ) ;
#882 = VECTOR ( 'NONE', #1097, 1000.000000000000000 ) ;
#883 = VECTOR ( 'NONE', #23, 1000.000000000000114 ) ;
#884 = LINE ( 'NONE', #385, #403 ) ;
#885 = EDGE_CURVE ( 'NONE', #1073, #1215, #320, .T. ) ;
#886 = ORIENTED_EDGE ( 'NONE', *, *, #825, .F. ) ;
#887 = CARTESIAN_POINT ( 'NONE',  ( 13.59992652383124678, 0.000000000000000000, 13.40911359017851723 ) ) ;
#888 = LINE ( 'NONE', #698, #590 ) ;
#889 = ORIENTED_EDGE ( 'NONE', *, *, #1151, .F. ) ;
#890 = DIRECTION ( 'NONE',  ( 0.7071067811865489050, 0.000000000000000000, 0.7071067811865461294 ) ) ;
#891 = PERSON_AND_ORGANIZATION_ROLE ( 'design_owner' ) ;
#892 = CIRCLE ( 'NONE', #1085, 19.50000000000000000 ) ;
#893 = DIRECTION ( 'NONE',  ( 0.7071067811865429098, 0.000000000000000000, -0.7071067811865521247 ) ) ;
#894 = ADVANCED_FACE ( 'NONE', ( #682 ), #300, .F. ) ;
#895 = PLANE ( 'NONE',  #221 ) ;
#896 = DIRECTION ( 'NONE',  ( 0.000000000000000000, 0.000000000000000000, -1.000000000000000000 ) ) ;
#897 = ORIENTED_EDGE ( 'NONE', *, *, #328, .T. ) ;
#898 = EDGE_LOOP ( 'NONE', ( #1256, #927, #1054, #725 ) ) ;
#899 = LINE ( 'NONE', #801, #980 ) ;
#900 = CARTESIAN_POINT ( 'NONE',  ( -0.4073723582264433540, 4.000000000000000000, 1.443623137024697467 ) ) ;
#901 = DIRECTION ( 'NONE',  ( 0.000000000000000000, 1.000000000000000000, 0.000000000000000000 ) ) ;
#902 = CARTESIAN_POINT ( 'NONE',  ( 5.515432893255160174, 4.000000000000000000, 7.495331880577470685 ) ) ;
#903 = EDGE_CURVE ( 'NONE', #3, #361, #492, .T. ) ;
#904 = ORIENTED_EDGE ( 'NONE', *, *, #737, .F. ) ;
#905 = CARTESIAN_POINT ( 'NONE',  ( -12.76305017913754369, 4.000000000000000000, -14.74294916645976983 ) ) ;
#906 =( LENGTH_UNIT ( ) NAMED_UNIT ( * ) SI_UNIT ( .MILLI., .METRE. ) );
#907 = VECTOR ( 'NONE', #161, 1000.000000000000000 ) ;
#908 = AXIS2_PLACEMENT_3D ( 'NONE', #1143, #1157, #176 ) ;
#909 = CARTESIAN_POINT ( 'NONE',  ( -19.48435854898021091, 2.000000000000000000, 0.7808789501463498928 ) ) ;
#910 = ORIENTED_EDGE ( 'NONE', *, *, #1037, .F. ) ;
#911 = VERTEX_POINT ( 'NONE', #1087 ) ;
#912 = CARTESIAN_POINT ( 'NONE',  ( -5.303300858899163472, 2.000000000000000000, 7.424621202458819624 ) ) ;
#913 = ORIENTED_EDGE ( 'NONE', *, *, #774, .F. ) ;
#914 = CARTESIAN_POINT ( 'NONE',  ( -19.32097345274790356, 4.000000000000000000, -2.636282389693976658 ) ) ;
#915 = ADVANCED_FACE ( 'NONE', ( #1091 ), #587, .T. ) ;
#916 = PLANE ( 'NONE',  #509 ) ;
#917 = APPROVAL_DATE_TIME ( #1036, #346 ) ;
#918 = CIRCLE ( 'NONE', #846, 19.49999999999999645 ) ;
#919 = VECTOR ( 'NONE', #1180, 1000.000000000000000 ) ;
#920 = ORIENTED_EDGE ( 'NONE', *, *, #228, .F. ) ;
#921 = CARTESIAN_POINT ( 'NONE',  ( 0.000000000000000000, 2.000000000000000000, 0.000000000000000000 ) ) ;
#922 = ADVANCED_FACE ( 'NONE', ( #679 ), #1186, .T. ) ;
#923 = CYLINDRICAL_SURFACE ( 'NONE', #265, 1.499999999999999556 ) ;
#924 = CC_DESIGN_DATE_AND_TIME_ASSIGNMENT ( #648, #533, ( #128 ) ) ;
#925 = ORIENTED_EDGE ( 'NONE', *, *, #294, .F. ) ;
#926 = FACE_OUTER_BOUND ( 'NONE', #1223, .T. ) ;
#927 = ORIENTED_EDGE ( 'NONE', *, *, #1193, .F. ) ;
#928 = FACE_BOUND ( 'NONE', #588, .T. ) ;
#929 = EDGE_CURVE ( 'NONE', #1078, #697, #800, .T. ) ;
#930 = ORIENTED_EDGE ( 'NONE', *, *, #198, .T. ) ;
#931 = VECTOR ( 'NONE', #430, 1000.000000000000000 ) ;
#932 = VERTEX_POINT ( 'NONE', #594 ) ;
#933 = AXIS2_PLACEMENT_3D ( 'NONE', #484, #8, #996 ) ;
#934 = DIRECTION ( 'NONE',  ( -0.000000000000000000, -1.000000000000000000, -0.000000000000000000 ) ) ;
#935 = ORIENTED_EDGE ( 'NONE', *, *, #929, .T. ) ;
#936 = DIRECTION ( 'NONE',  ( -0.000000000000000000, -1.000000000000000000, -0.000000000000000000 ) ) ;
#937 = EDGE_CURVE ( 'NONE', #681, #1228, #190, .T. ) ;
#938 = EDGE_LOOP ( 'NONE', ( #1, #1098, #163, #383 ) ) ;
#939 = AXIS2_PLACEMENT_3D ( 'NONE', #850, #451, #673 ) ;
#940 = CARTESIAN_POINT ( 'NONE',  ( 0.000000000000000000, 2.000000000000000000, 0.000000000000000000 ) ) ;
#941 = APPROVAL_ROLE ( '' ) ;
#942 = ORIENTED_EDGE ( 'NONE', *, *, #937, .F. ) ;
#943 = DIRECTION ( 'NONE',  ( 0.000000000000000000, 0.000000000000000000, -1.000000000000000000 ) ) ;
#944 = FACE_OUTER_BOUND ( 'NONE', #672, .T. ) ;
#945 = FACE_OUTER_BOUND ( 'NONE', #1137, .T. ) ;
#946 = ORIENTED_EDGE ( 'NONE', *, *, #818, .T. ) ;
#947 = DIRECTION ( 'NONE',  ( -0.000000000000000000, -1.000000000000000000, -0.000000000000000000 ) ) ;
#948 = AXIS2_PLACEMENT_3D ( 'NONE', #855, #1251, #875 ) ;
#949 = AXIS2_PLACEMENT_3D ( 'NONE', #172, #367, #356 ) ;
#950 = ORIENTED_EDGE ( 'NONE', *, *, #162, .T. ) ;
#951 = DIRECTION ( 'NONE',  ( 0.7071067811865500152, 0.000000000000000000, 0.7071067811865451302 ) ) ;
#952 = EDGE_CURVE ( 'NONE', #247, #697, #18, .T. ) ;
#953 = DIRECTION ( 'NONE',  ( 1.000000000000000000, 0.000000000000000000, 0.000000000000000000 ) ) ;
#954 = CARTESIAN_POINT ( 'NONE',  ( 5.515432893255160174, 2.000000000000000000, 7.495331880577470685 ) ) ;
#955 = DIRECTION ( 'NONE',  ( -0.000000000000000000, -1.000000000000000000, 0.000000000000000000 ) ) ;
#956 = DIRECTION ( 'NONE',  ( -0.000000000000000000, -1.000000000000000000, -0.000000000000000000 ) ) ;
#957 = LINE ( 'NONE', #1221, #972 ) ;
#958 = EDGE_LOOP ( 'NONE', ( #521, #349, #756, #42 ) ) ;
#959 = VECTOR ( 'NONE', #474, 1000.000000000000000 ) ;
#960 = DIRECTION ( 'NONE',  ( 0.000000000000000000, 1.000000000000000000, -0.000000000000000000 ) ) ;
#961 = DIRECTION ( 'NONE',  ( 0.000000000000000000, 0.000000000000000000, -1.000000000000000000 ) ) ;
#962 = ADVANCED_FACE ( 'NONE', ( #1176 ), #687, .F. ) ;
#963 = VERTEX_POINT ( 'NONE', #591 ) ;
#964 = CARTESIAN_POINT ( 'NONE',  ( -13.46901206811584117, 2.000000000000000000, -13.54060717386294499 ) ) ;
#965 = ORIENTED_EDGE ( 'NONE', *, *, #885, .F. ) ;
#966 = DIRECTION ( 'NONE',  ( 0.7071067811865475727, -0.000000000000000000, 0.7071067811865475727 ) ) ;
#967 = CARTESIAN_POINT ( 'NONE',  ( -6.866613382850348835, 2.000000000000000000, -0.6046675695577936605 ) ) ;
#968 = CARTESIAN_POINT ( 'NONE',  ( -19.32097345274790356, 4.000000000000000000, -2.636282389693976658 ) ) ;
#969 = EDGE_CURVE ( 'NONE', #1212, #708, #110, .T. ) ;
#970 = VECTOR ( 'NONE', #934, 1000.000000000000000 ) ;
#971 = DIRECTION ( 'NONE',  ( -0.000000000000000000, -1.000000000000000000, -0.000000000000000000 ) ) ;
#972 = VECTOR ( 'NONE', #1128, 1000.000000000000000 ) ;
#973 = CIRCLE ( 'NONE', #1237, 19.49999999999999289 ) ;
#974 = CARTESIAN_POINT ( 'NONE',  ( 0.000000000000000000, 2.000000000000000000, 0.000000000000000000 ) ) ;
#975 = DIRECTION ( 'NONE',  ( -0.000000000000000000, -1.000000000000000000, -0.000000000000000000 ) ) ;
#976 = CARTESIAN_POINT ( 'NONE',  ( -5.303300858899163472, 2.000000000000000000, 7.424621202458819624 ) ) ;
#977 = EDGE_CURVE ( 'NONE', #1038, #72, #1005, .T. ) ;
#978 = LINE ( 'NONE', #444, #777 ) ;
#979 = CC_DESIGN_PERSON_AND_ORGANIZATION_ASSIGNMENT ( #242, #891, ( #195 ) ) ;
#980 = VECTOR ( 'NONE', #203, 1000.000000000000114 ) ;
#981 = DIRECTION ( 'NONE',  ( 0.7071067811865467956, 0.000000000000000000, -0.7071067811865483499 ) ) ;
#982 = CARTESIAN_POINT ( 'NONE',  ( 5.515432893255160174, 4.000000000000000000, 7.495331880577470685 ) ) ;
#983 = DIRECTION ( 'NONE',  ( -0.000000000000000000, -1.000000000000000000, -0.000000000000000000 ) ) ;
#984 = VERTEX_POINT ( 'NONE', #909 ) ;
#985 = ADVANCED_FACE ( 'NONE', ( #1021 ), #460, .T. ) ;
#986 = FACE_OUTER_BOUND ( 'NONE', #1131, .T. ) ;
#987 = VERTEX_POINT ( 'NONE', #1245 ) ;
#988 = CARTESIAN_POINT ( 'NONE',  ( -16.25915344873010326, 0.000000000000000000, -10.76521848968463146 ) ) ;
#989 = ORIENTED_EDGE ( 'NONE', *, *, #354, .F. ) ;
#990 = DIRECTION ( 'NONE',  ( 0.000000000000000000, 0.000000000000000000, -1.000000000000000000 ) ) ;
#991 = CIRCLE ( 'NONE', #864, 1.500000000000000666 ) ;
#992 = EDGE_CURVE ( 'NONE', #3, #1038, #868, .T. ) ;
#993 = CIRCLE ( 'NONE', #949, 19.49999999999999289 ) ;
#994 = DIRECTION ( 'NONE',  ( 0.000000000000000000, 0.000000000000000000, -1.000000000000000000 ) ) ;
#995 = CARTESIAN_POINT ( 'NONE',  ( 5.515432893255160174, 2.000000000000000000, 7.495331880577470685 ) ) ;
#996 = DIRECTION ( 'NONE',  ( 0.000000000000000000, 0.000000000000000000, 1.000000000000000000 ) ) ;
#997 = CARTESIAN_POINT ( 'NONE',  ( 0.000000000000000000, 0.000000000000000000, 0.000000000000000000 ) ) ;
#998 = VERTEX_POINT ( 'NONE', #151 ) ;
#999 = VERTEX_POINT ( 'NONE', #1259 ) ;
#1000 = PLANE ( 'NONE',  #388 ) ;
#1001 = CIRCLE ( 'NONE', #445, 1.500000000000000666 ) ;
#1002 = ORIENTED_EDGE ( 'NONE', *, *, #566, .T. ) ;
#1003 = DIRECTION ( 'NONE',  ( 0.000000000000000000, 1.000000000000000000, 0.000000000000000000 ) ) ;
#1004 = DIRECTION ( 'NONE',  ( 0.7071067811865499042, -0.000000000000000000, 0.7071067811865452413 ) ) ;
#1005 = LINE ( 'NONE', #1030, #759 ) ;
#1006 = EDGE_LOOP ( 'NONE', ( #493, #618, #1229, #434 ) ) ;
#1007 = EDGE_CURVE ( 'NONE', #604, #408, #535, .T. ) ;
#1008 = DIRECTION ( 'NONE',  ( -0.000000000000000000, -1.000000000000000000, -0.000000000000000000 ) ) ;
#1009 = EDGE_LOOP ( 'NONE', ( #826, #1127 ) ) ;
#1010 = DIRECTION ( 'NONE',  ( -0.000000000000000000, -1.000000000000000000, -0.000000000000000000 ) ) ;
#1011 = DIRECTION ( 'NONE',  ( -0.000000000000000000, -1.000000000000000000, -0.000000000000000000 ) ) ;
#1012 = AXIS2_PLACEMENT_3D ( 'NONE', #73, #671, #757 ) ;
#1013 = AXIS2_PLACEMENT_3D ( 'NONE', #982, #7, #1154 ) ;
#1014 = EDGE_LOOP ( 'NONE', ( #271, #636, #507, #930 ) ) ;
#1015 = ORIENTED_EDGE ( 'NONE', *, *, #1088, .F. ) ;
#1016 = EDGE_CURVE ( 'NONE', #458, #987, #866, .T. ) ;
#1017 = CARTESIAN_POINT ( 'NONE',  ( 7.424621202458785874, 2.000000000000000000, -5.303300858899208770 ) ) ;
#1018 = EDGE_CURVE ( 'NONE', #254, #295, #1236, .T. ) ;
#1019 = EDGE_CURVE ( 'NONE', #823, #458, #180, .T. ) ;
#1020 = VECTOR ( 'NONE', #658, 1000.000000000000000 ) ;
#1021 = FACE_OUTER_BOUND ( 'NONE', #333, .T. ) ;
#1022 = AXIS2_PLACEMENT_3D ( 'NONE', #597, #118, #797 ) ;
#1023 = ORIENTED_EDGE ( 'NONE', *, *, #977, .F. ) ;
#1024 = ORIENTED_EDGE ( 'NONE', *, *, #1068, .T. ) ;
#1025 = VERTEX_POINT ( 'NONE', #770 ) ;
#1026 = ORIENTED_EDGE ( 'NONE', *, *, #598, .F. ) ;
#1027 = PERSON_AND_ORGANIZATION ( #879, #1159 ) ;
#1028 = DIRECTION ( 'NONE',  ( 0.000000000000000000, 1.000000000000000000, 0.000000000000000000 ) ) ;
#1029 = EDGE_CURVE ( 'NONE', #1209, #122, #1267, .T. ) ;
#1030 = CARTESIAN_POINT ( 'NONE',  ( 7.495331880577489336, 4.000000000000000000, 5.515432893255137081 ) ) ;
#1031 = CARTESIAN_POINT ( 'NONE',  ( 0.000000000000000000, 2.000000000000000000, -1.500000000000000666 ) ) ;
#1032 = ORIENTED_EDGE ( 'NONE', *, *, #1108, .F. ) ;
#1033 = ORIENTED_EDGE ( 'NONE', *, *, #646, .T. ) ;
#1034 = LINE ( 'NONE', #827, #1235 ) ;
#1035 = CARTESIAN_POINT ( 'NONE',  ( -6.866613382850348835, 4.000000000000000000, -0.6046675695577936605 ) ) ;
#1036 = DATE_AND_TIME ( #236, #675 ) ;
#1037 = EDGE_CURVE ( 'NONE', #35, #823, #1102, .T. ) ;
#1038 = VERTEX_POINT ( 'NONE', #659 ) ;
#1039 = AXIS2_PLACEMENT_3D ( 'NONE', #940, #612, #1224 ) ;
#1040 = CARTESIAN_POINT ( 'NONE',  ( 7.495331880577489336, 4.000000000000000000, 5.515432893255137081 ) ) ;
#1041 = FACE_BOUND ( 'NONE', #706, .T. ) ;
#1042 = ORIENTED_EDGE ( 'NONE', *, *, #1071, .F. ) ;
#1043 = LINE ( 'NONE', #262, #578 ) ;
#1044 = FACE_OUTER_BOUND ( 'NONE', #616, .T. ) ;
#1045 = CARTESIAN_POINT ( 'NONE',  ( -0.4073723582260539433, 2.000000000000000000, -1.443623137024807379 ) ) ;
#1046 = AXIS2_PLACEMENT_3D ( 'NONE', #845, #567, #157 ) ;
#1047 = VERTEX_POINT ( 'NONE', #54 ) ;
#1048 = LINE ( 'NONE', #519, #848 ) ;
#1049 = PERSON_AND_ORGANIZATION ( #879, #1159 ) ;
#1050 = ORIENTED_EDGE ( 'NONE', *, *, #969, .T. ) ;
#1051 = CARTESIAN_POINT ( 'NONE',  ( 14.74294916645985687, 4.000000000000000000, 12.76305017913746376 ) ) ;
#1052 = DIRECTION ( 'NONE',  ( 0.000000000000000000, 0.000000000000000000, 1.000000000000000000 ) ) ;
#1053 = EDGE_CURVE ( 'NONE', #1147, #1275, #153, .T. ) ;
#1054 = ORIENTED_EDGE ( 'NONE', *, *, #1181, .T. ) ;
#1055 = LINE ( 'NONE', #465, #907 ) ;
#1056 = ORIENTED_EDGE ( 'NONE', *, *, #370, .T. ) ;
#1057 = CARTESIAN_POINT ( 'NONE',  ( -19.15407925001478873, 4.000000000000000000, 3.478119516491232410 ) ) ;
#1058 = CARTESIAN_POINT ( 'NONE',  ( -5.515432893255166391, 4.000000000000000000, -7.495331880577451145 ) ) ;
#1059 = LINE ( 'NONE', #555, #1134 ) ;
#1060 = VERTEX_POINT ( 'NONE', #837 ) ;
#1061 = VECTOR ( 'NONE', #1130, 1000.000000000000000 ) ;
#1062 = FACE_OUTER_BOUND ( 'NONE', #130, .T. ) ;
#1063 = CARTESIAN_POINT ( 'NONE',  ( 0.1501041302090783403, 2.000000000000000000, 1.383122703326839398 ) ) ;
#1064 = DIRECTION ( 'NONE',  ( -0.7071067811865426878, 0.000000000000000000, 0.7071067811865522357 ) ) ;
#1065 = CARTESIAN_POINT ( 'NONE',  ( 19.16850670578935123, 0.000000000000000000, 3.580272429593683636 ) ) ;
#1066 = ORIENTED_EDGE ( 'NONE', *, *, #903, .F. ) ;
#1067 = AXIS2_PLACEMENT_3D ( 'NONE', #108, #1272, #193 ) ;
#1068 = EDGE_CURVE ( 'NONE', #1215, #561, #993, .T. ) ;
#1069 = LINE ( 'NONE', #355, #824 ) ;
#1070 = CYLINDRICAL_SURFACE ( 'NONE', #397, 19.49999999999999289 ) ;
#1071 = EDGE_CURVE ( 'NONE', #1228, #466, #1095, .T. ) ;
#1072 = CARTESIAN_POINT ( 'NONE',  ( -0.4073723582264433540, 4.000000000000000000, 1.443623137024697467 ) ) ;
#1073 = VERTEX_POINT ( 'NONE', #453 ) ;
#1074 = CIRCLE ( 'NONE', #281, 19.49999999999999645 ) ;
#1075 = CALENDAR_DATE ( 2026, 8, 7 ) ;
#1076 = PLANE ( 'NONE',  #1012 ) ;
#1077 = VECTOR ( 'NONE', #414, 1000.000000000000114 ) ;
#1078 = VERTEX_POINT ( 'NONE', #860 ) ;
#1079 = ORIENTED_EDGE ( 'NONE', *, *, #793, .T. ) ;
#1080 = DIRECTION ( 'NONE',  ( -0.7071067811865430208, 0.000000000000000000, 0.7071067811865521247 ) ) ;
#1081 = PRODUCT_RELATED_PRODUCT_CATEGORY ( 'detail', '', ( #195 ) ) ;
#1082 = EDGE_LOOP ( 'NONE', ( #225, #319, #1219, #29 ) ) ;
#1083 = CARTESIAN_POINT ( 'NONE',  ( -13.46901206811584117, 2.000000000000000000, -13.54060717386294499 ) ) ;
#1084 = VECTOR ( 'NONE', #836, 1000.000000000000000 ) ;
#1085 = AXIS2_PLACEMENT_3D ( 'NONE', #699, #494, #405 ) ;
#1086 = CARTESIAN_POINT ( 'NONE',  ( 7.424621202458785874, 2.000000000000000000, -5.303300858899208770 ) ) ;
#1087 = CARTESIAN_POINT ( 'NONE',  ( 7.495331880577489336, 2.000000000000000000, 5.515432893255138858 ) ) ;
#1088 = EDGE_CURVE ( 'NONE', #1038, #911, #258, .T. ) ;
#1089 = LINE ( 'NONE', #504, #1120 ) ;
#1090 = VERTEX_POINT ( 'NONE', #360 ) ;
#1091 = FACE_OUTER_BOUND ( 'NONE', #586, .T. ) ;
#1092 = ORIENTED_EDGE ( 'NONE', *, *, #154, .F. ) ;
#1093 = FACE_OUTER_BOUND ( 'NONE', #1149, .T. ) ;
#1094 = CIRCLE ( 'NONE', #798, 1.499999999999999556 ) ;
#1095 = CIRCLE ( 'NONE', #40, 19.49999999999999645 ) ;
#1096 = CARTESIAN_POINT ( 'NONE',  ( -12.68706691308763723, 2.000000000000000000, 14.80838725664739286 ) ) ;
#1097 = DIRECTION ( 'NONE',  ( -0.000000000000000000, -1.000000000000000000, -0.000000000000000000 ) ) ;
#1098 = ORIENTED_EDGE ( 'NONE', *, *, #818, .F. ) ;
#1099 = LINE ( 'NONE', #1199, #1144 ) ;
#1100 = CARTESIAN_POINT ( 'NONE',  ( -14.74294916645986220, 2.000000000000000000, -12.76305017913743356 ) ) ;
#1101 = EDGE_CURVE ( 'NONE', #136, #211, #839, .T. ) ;
#1102 = LINE ( 'NONE', #1031, #883 ) ;
#1103 = LINE ( 'NONE', #912, #1261 ) ;
#1104 = EDGE_LOOP ( 'NONE', ( #168, #1220, #13, #324 ) ) ;
#1105 = CARTESIAN_POINT ( 'NONE',  ( 0.000000000000000000, 0.000000000000000000, -1.500000000000000666 ) ) ;
#1106 = ADVANCED_FACE ( 'NONE', ( #543 ), #651, .T. ) ;
#1107 = CYLINDRICAL_SURFACE ( 'NONE', #483, 19.50000000000000000 ) ;
#1108 = EDGE_CURVE ( 'NONE', #1109, #420, #554, .T. ) ;
#1109 = VERTEX_POINT ( 'NONE', #727 ) ;
#1110 = LINE ( 'NONE', #227, #692 ) ;
#1111 = VECTOR ( 'NONE', #1008, 1000.000000000000000 ) ;
#1112 = AXIS2_PLACEMENT_3D ( 'NONE', #252, #739, #71 ) ;
#1113 = VERTEX_POINT ( 'NONE', #968 ) ;
#1114 = VERTEX_POINT ( 'NONE', #754 ) ;
#1115 = ORIENTED_EDGE ( 'NONE', *, *, #1206, .F. ) ;
#1116 = EDGE_CURVE ( 'NONE', #561, #998, #62, .T. ) ;
#1117 = ORIENTED_EDGE ( 'NONE', *, *, #678, .F. ) ;
#1118 = DIRECTION ( 'NONE',  ( 0.7071067811865495711, 0.000000000000000000, 0.7071067811865455743 ) ) ;
#1119 = CIRCLE ( 'NONE', #785, 19.49999999999999645 ) ;
#1120 = VECTOR ( 'NONE', #890, 1000.000000000000114 ) ;
#1121 = VERTEX_POINT ( 'NONE', #1045 ) ;
#1122 = DIRECTION ( 'NONE',  ( -0.9941626175087385775, 0.000000000000000000, 0.1078920291225144573 ) ) ;
#1123 = ORIENTED_EDGE ( 'NONE', *, *, #646, .F. ) ;
#1124 = ADVANCED_FACE ( 'NONE', ( #944 ), #348, .F. ) ;
#1125 = LINE ( 'NONE', #350, #970 ) ;
#1126 = FACE_OUTER_BOUND ( 'NONE', #898, .T. ) ;
#1127 = ORIENTED_EDGE ( 'NONE', *, *, #520, .T. ) ;
#1128 = DIRECTION ( 'NONE',  ( -0.000000000000000000, -1.000000000000000000, -0.000000000000000000 ) ) ;
#1129 = EDGE_LOOP ( 'NONE', ( #248, #390, #214, #913, #187, #623, #1250, #1115, #1117, #1204, #311, #1273, #488, #498, #371, #1173, #358, #806 ) ) ;
#1130 = DIRECTION ( 'NONE',  ( -0.000000000000000000, -1.000000000000000000, -0.000000000000000000 ) ) ;
#1131 = EDGE_LOOP ( 'NONE', ( #661, #537, #576, #10, #731, #505, #925, #728 ) ) ;
#1132 = EDGE_CURVE ( 'NONE', #711, #254, #433, .T. ) ;
#1133 = AXIS2_PLACEMENT_3D ( 'NONE', #964, #960, #276 ) ;
#1134 = VECTOR ( 'NONE', #147, 1000.000000000000114 ) ;
#1135 = CYLINDRICAL_SURFACE ( 'NONE', #506, 19.49999999999999289 ) ;
#1136 = DIRECTION ( 'NONE',  ( 0.000000000000000000, 0.000000000000000000, -1.000000000000000000 ) ) ;
#1137 = EDGE_LOOP ( 'NONE', ( #834, #950, #448, #331, #351, #630, #1002, #1192, #149, #48, #1024, #177, #55 ) ) ;
#1138 = CARTESIAN_POINT ( 'NONE',  ( -12.68706691308763723, 2.000000000000000000, 14.80838725664739286 ) ) ;
#1139 = DIRECTION ( 'NONE',  ( -0.000000000000000000, -1.000000000000000000, -0.000000000000000000 ) ) ;
#1140 = EDGE_CURVE ( 'NONE', #626, #1266, #499, .T. ) ;
#1141 = CLOSED_SHELL ( 'NONE', ( #1277, #1106, #877, #663, #538, #1247, #501, #1255, #915, #894, #318, #32, #735, #336, #831, #962, #66, #922, #512, #690, #132, #17, #1175, #723, #289, #9, #755, #705, #475, #985, #60, #1200, #85, #1161, #101, #170, #1124, #386 ) ) ;
#1142 = CARTESIAN_POINT ( 'NONE',  ( -5.515432893255166391, 2.000000000000000000, -7.495331880577451145 ) ) ;
#1143 = CARTESIAN_POINT ( 'NONE',  ( -13.46901206811584117, 2.000000000000000000, -13.54060717386294499 ) ) ;
#1144 = VECTOR ( 'NONE', #1004, 1000.000000000000114 ) ;
#1145 = CARTESIAN_POINT ( 'NONE',  ( -7.495331880577491113, 4.000000000000000000, -5.515432893255113100 ) ) ;
#1146 = DATE_TIME_ROLE ( 'creation_date' ) ;
#1147 = VERTEX_POINT ( 'NONE', #1065 ) ;
#1148 = LINE ( 'NONE', #362, #217 ) ;
#1149 = EDGE_LOOP ( 'NONE', ( #865, #290, #138, #412, #1174, #819 ) ) ;
#1150 = CARTESIAN_POINT ( 'NONE',  ( 0.1501041302090783403, 4.000000000000000000, 1.383122703326839398 ) ) ;
#1151 = EDGE_CURVE ( 'NONE', #744, #608, #734, .T. ) ;
#1152 = EDGE_LOOP ( 'NONE', ( #1208, #847, #261, #582 ) ) ;
#1153 = CARTESIAN_POINT ( 'NONE',  ( 10.83688036017530010, 0.000000000000000000, 16.21147815775128365 ) ) ;
#1154 = DIRECTION ( 'NONE',  ( -0.7071067811865466846, 0.000000000000000000, 0.7071067811865483499 ) ) ;
#1155 = VERTEX_POINT ( 'NONE', #1234 ) ;
#1156 = DIRECTION ( 'NONE',  ( 0.7071067811865452413, 0.000000000000000000, -0.7071067811865499042 ) ) ;
#1157 = DIRECTION ( 'NONE',  ( -0.000000000000000000, -1.000000000000000000, -0.000000000000000000 ) ) ;
#1158 = AXIS2_PLACEMENT_3D ( 'NONE', #997, #792, #1191 ) ;
#1159 = ORGANIZATION ( 'UNSPECIFIED', 'UNSPECIFIED', '' ) ;
#1160 = CARTESIAN_POINT ( 'NONE',  ( 0.000000000000000000, 2.000000000000000000, 1.500000000000000666 ) ) ;
#1161 = ADVANCED_FACE ( 'NONE', ( #1126 ), #528, .T. ) ;
#1162 = ORIENTED_EDGE ( 'NONE', *, *, #188, .T. ) ;
#1163 = CARTESIAN_POINT ( 'NONE',  ( 0.000000000000000000, 0.000000000000000000, 0.000000000000000000 ) ) ;
#1164 = CARTESIAN_POINT ( 'NONE',  ( 0.000000000000000000, 0.000000000000000000, -15.25000000000000000 ) ) ;
#1165 = AXIS2_PLACEMENT_3D ( 'NONE', #1040, #425, #830 ) ;
#1166 = CIRCLE ( 'NONE', #330, 1.500000000000000666 ) ;
#1167 = CARTESIAN_POINT ( 'NONE',  ( 7.424621202458785874, 0.000000000000000000, -5.303300858899208770 ) ) ;
#1168 = EDGE_LOOP ( 'NONE', ( #79, #1092, #534, #935 ) ) ;
#1169 = EDGE_CURVE ( 'NONE', #64, #531, #634, .T. ) ;
#1170 = CARTESIAN_POINT ( 'NONE',  ( 19.16850670578934768, 2.000000000000000000, -3.580272429593702288 ) ) ;
#1171 = CARTESIAN_POINT ( 'NONE',  ( 0.000000000000000000, 2.000000000000000000, 0.000000000000000000 ) ) ;
#1172 = LINE ( 'NONE', #668, #381 ) ;
#1173 = ORIENTED_EDGE ( 'NONE', *, *, #1053, .F. ) ;
#1174 = ORIENTED_EDGE ( 'NONE', *, *, #696, .T. ) ;
#1175 = ADVANCED_FACE ( 'NONE', ( #513 ), #923, .F. ) ;
#1176 = FACE_OUTER_BOUND ( 'NONE', #1006, .T. ) ;
#1177 = CIRCLE ( 'NONE', #548, 19.49999999999999645 ) ;
#1178 = DIRECTION ( 'NONE',  ( 0.9941626175087386885, 0.000000000000000000, 0.1078920291225135414 ) ) ;
#1179 = AXIS2_PLACEMENT_3D ( 'NONE', #614, #829, #724 ) ;
#1180 = DIRECTION ( 'NONE',  ( -0.000000000000000000, -1.000000000000000000, -0.000000000000000000 ) ) ;
#1181 = EDGE_CURVE ( 'NONE', #1113, #744, #202, .T. ) ;
#1182 = CARTESIAN_POINT ( 'NONE',  ( 0.000000000000000000, 2.000000000000000000, 0.000000000000000000 ) ) ;
#1183 = AXIS2_PLACEMENT_3D ( 'NONE', #753, #1156, #763 ) ;
#1184 = CIRCLE ( 'NONE', #619, 17.57314784211152414 ) ;
#1185 = CYLINDRICAL_SURFACE ( 'NONE', #805, 19.49999999999999645 ) ;
#1186 = CYLINDRICAL_SURFACE ( 'NONE', #263, 3.935437875520471973 ) ;
#1187 = ORIENTED_EDGE ( 'NONE', *, *, #1214, .T. ) ;
#1188 = ORIENTED_EDGE ( 'NONE', *, *, #786, .T. ) ;
#1189 = CARTESIAN_POINT ( 'NONE',  ( 0.000000000000000000, 0.000000000000000000, 0.000000000000000000 ) ) ;
#1190 = PLANE ( 'NONE',  #1022 ) ;
#1191 = DIRECTION ( 'NONE',  ( 0.000000000000000000, 0.000000000000000000, 1.000000000000000000 ) ) ;
#1192 = ORIENTED_EDGE ( 'NONE', *, *, #1029, .T. ) ;
#1193 = EDGE_CURVE ( 'NONE', #1113, #549, #503, .T. ) ;
#1194 = CARTESIAN_POINT ( 'NONE',  ( -13.46901206811584117, 0.000000000000000000, -13.54060717386294499 ) ) ;
#1195 = CIRCLE ( 'NONE', #1133, 3.935437875520471973 ) ;
#1196 = AXIS2_PLACEMENT_3D ( 'NONE', #253, #269, #660 ) ;
#1197 = DIRECTION ( 'NONE',  ( -0.000000000000000000, -1.000000000000000000, -0.000000000000000000 ) ) ;
#1198 = DATE_AND_TIME ( #1075, #398 ) ;
#1199 = CARTESIAN_POINT ( 'NONE',  ( -5.303300858899163472, 0.000000000000000000, 7.424621202458819624 ) ) ;
#1200 = ADVANCED_FACE ( 'NONE', ( #335 ), #719, .T. ) ;
#1201 = EDGE_LOOP ( 'NONE', ( #1162, #334, #1123, #946 ) ) ;
#1202 = EDGE_LOOP ( 'NONE', ( #327, #148, #41, #256 ) ) ;
#1203 = ORIENTED_EDGE ( 'NONE', *, *, #56, .T. ) ;
#1204 = ORIENTED_EDGE ( 'NONE', *, *, #280, .F. ) ;
#1205 = DIRECTION ( 'NONE',  ( 0.000000000000000000, 0.000000000000000000, 1.000000000000000000 ) ) ;
#1206 = EDGE_CURVE ( 'NONE', #283, #876, #973, .T. ) ;
#1207 = CARTESIAN_POINT ( 'NONE',  ( -5.303300858899163472, 2.000000000000000000, 7.424621202458819624 ) ) ;
#1208 = ORIENTED_EDGE ( 'NONE', *, *, #419, .T. ) ;
#1209 = VERTEX_POINT ( 'NONE', #159 ) ;
#1210 = LINE ( 'NONE', #1017, #288 ) ;
#1211 = AXIS2_PLACEMENT_3D ( 'NONE', #752, #264, #994 ) ;
#1212 = VERTEX_POINT ( 'NONE', #652 ) ;
#1213 = FACE_OUTER_BOUND ( 'NONE', #1201, .T. ) ;
#1214 = EDGE_CURVE ( 'NONE', #1121, #608, #1059, .T. ) ;
#1215 = VERTEX_POINT ( 'NONE', #232 ) ;
#1216 = ORIENTED_EDGE ( 'NONE', *, *, #545, .F. ) ;
#1217 = DIRECTION ( 'NONE',  ( 0.000000000000000000, 0.000000000000000000, -1.000000000000000000 ) ) ;
#1218 = CIRCLE ( 'NONE', #665, 3.935437875520471973 ) ;
#1219 = ORIENTED_EDGE ( 'NONE', *, *, #277, .F. ) ;
#1220 = ORIENTED_EDGE ( 'NONE', *, *, #1233, .F. ) ;
#1221 = CARTESIAN_POINT ( 'NONE',  ( -7.424621202458773439, 2.000000000000000000, 5.303300858899222980 ) ) ;
#1222 = ORIENTED_EDGE ( 'NONE', *, *, #235, .F. ) ;
#1223 = EDGE_LOOP ( 'NONE', ( #515, #173, #98, #522 ) ) ;
#1224 = DIRECTION ( 'NONE',  ( 0.000000000000000000, -0.000000000000000000, 1.000000000000000000 ) ) ;
#1225 = EDGE_CURVE ( 'NONE', #36, #1242, #957, .T. ) ;
#1226 = ORIENTED_EDGE ( 'NONE', *, *, #977, .T. ) ;
#1227 = CARTESIAN_POINT ( 'NONE',  ( 16.36297268748718992, 2.000000000000000000, 10.60674902260575614 ) ) ;
#1228 = VERTEX_POINT ( 'NONE', #625 ) ;
#1229 = ORIENTED_EDGE ( 'NONE', *, *, #853, .F. ) ;
#1230 = DIRECTION ( 'NONE',  ( 0.000000000000000000, 1.000000000000000000, 0.000000000000000000 ) ) ;
#1231 = SHAPE_DEFINITION_REPRESENTATION ( #1286, #645 ) ;
#1232 = ORIENTED_EDGE ( 'NONE', *, *, #277, .T. ) ;
#1233 = EDGE_CURVE ( 'NONE', #1209, #722, #239, .T. ) ;
#1234 = CARTESIAN_POINT ( 'NONE',  ( -0.4073723582260539433, 4.000000000000000000, -1.443623137024807379 ) ) ;
#1235 = VECTOR ( 'NONE', #43, 1000.000000000000000 ) ;
#1236 = LINE ( 'NONE', #273, #707 ) ;
#1237 = AXIS2_PLACEMENT_3D ( 'NONE', #308, #404, #224 ) ;
#1238 = LINE ( 'NONE', #1142, #4 ) ;
#1239 = CARTESIAN_POINT ( 'NONE',  ( 7.495331880577489336, 4.000000000000000000, 5.515432893255137081 ) ) ;
#1240 = ORIENTED_EDGE ( 'NONE', *, *, #696, .F. ) ;
#1241 = CARTESIAN_POINT ( 'NONE',  ( -19.15407925001487399, 2.000000000000000000, -3.478119516488947127 ) ) ;
#1242 = VERTEX_POINT ( 'NONE', #546 ) ;
#1243 = CARTESIAN_POINT ( 'NONE',  ( -6.866613382850348835, 4.000000000000000000, -0.6046675695577936605 ) ) ;
#1244 = EDGE_CURVE ( 'NONE', #1078, #64, #477, .T. ) ;
#1245 = CARTESIAN_POINT ( 'NONE',  ( 14.80838725664730582, 0.000000000000000000, -12.68706691308772960 ) ) ;
#1246 = FACE_OUTER_BOUND ( 'NONE', #1152, .T. ) ;
#1247 = ADVANCED_FACE ( 'NONE', ( #111, #393 ), #895, .F. ) ;
#1248 = DIRECTION ( 'NONE',  ( -0.9941626175087386885, -0.000000000000000000, -0.1078920291225135414 ) ) ;
#1249 = VECTOR ( 'NONE', #309, 1000.000000000000114 ) ;
#1250 = ORIENTED_EDGE ( 'NONE', *, *, #198, .F. ) ;
#1251 = DIRECTION ( 'NONE',  ( 0.000000000000000000, 1.000000000000000000, 0.000000000000000000 ) ) ;
#1252 = CYLINDRICAL_SURFACE ( 'NONE', #1211, 3.935437875520471973 ) ;
#1253 = CARTESIAN_POINT ( 'NONE',  ( -5.303300858899163472, 0.000000000000000000, 7.424621202458819624 ) ) ;
#1254 = DIRECTION ( 'NONE',  ( -0.7071067811865500152, 0.000000000000000000, -0.7071067811865451302 ) ) ;
#1255 = ADVANCED_FACE ( 'NONE', ( #852 ), #1252, .T. ) ;
#1256 = ORIENTED_EDGE ( 'NONE', *, *, #162, .F. ) ;
#1257 = CARTESIAN_POINT ( 'NONE',  ( -19.15407925001487399, 4.000000000000000000, -3.478119516488947127 ) ) ;
#1258 = ORIENTED_EDGE ( 'NONE', *, *, #184, .T. ) ;
#1259 = CARTESIAN_POINT ( 'NONE',  ( 5.303300858899176795, 0.000000000000000000, -7.424621202458806302 ) ) ;
#1260 = CARTESIAN_POINT ( 'NONE',  ( -1.928568816076461800, 4.000000000000000000, 9.141992718397773388E-13 ) ) ;
#1261 = VECTOR ( 'NONE', #205, 1000.000000000000000 ) ;
#1262 = EDGE_CURVE ( 'NONE', #697, #1060, #323, .T. ) ;
#1263 = APPROVAL_PERSON_ORGANIZATION ( #90, #229, #746 ) ;
#1264 = ORIENTED_EDGE ( 'NONE', *, *, #1007, .T. ) ;
#1265 = DIRECTION ( 'NONE',  ( 0.000000000000000000, 0.000000000000000000, -1.000000000000000000 ) ) ;
#1266 = VERTEX_POINT ( 'NONE', #802 ) ;
#1267 = LINE ( 'NONE', #123, #1077 ) ;
#1268 = CARTESIAN_POINT ( 'NONE',  ( 7.424621202458785874, 0.000000000000000000, -5.303300858899208770 ) ) ;
#1269 = DIRECTION ( 'NONE',  ( 0.7071067811865473507, -0.000000000000000000, -0.7071067811865477948 ) ) ;
#1270 = ORIENTED_EDGE ( 'NONE', *, *, #1029, .F. ) ;
#1271 = DIRECTION ( 'NONE',  ( 0.000000000000000000, 0.000000000000000000, 1.000000000000000000 ) ) ;
#1272 = DIRECTION ( 'NONE',  ( 0.000000000000000000, 1.000000000000000000, 0.000000000000000000 ) ) ;
#1273 = ORIENTED_EDGE ( 'NONE', *, *, #375, .F. ) ;
#1274 = FACE_OUTER_BOUND ( 'NONE', #653, .T. ) ;
#1275 = VERTEX_POINT ( 'NONE', #213 ) ;
#1276 = CARTESIAN_POINT ( 'NONE',  ( 12.68706691308764789, 2.000000000000000000, -14.80838725664737332 ) ) ;
#1277 = ADVANCED_FACE ( 'NONE', ( #316 ), #613, .F. ) ;
#1278 = DIRECTION ( 'NONE',  ( 0.000000000000000000, -0.000000000000000000, 1.000000000000000000 ) ) ;
#1279 = VERTEX_POINT ( 'NONE', #900 ) ;
#1280 = CYLINDRICAL_SURFACE ( 'NONE', #459, 19.49999999999999289 ) ;
#1281 = AXIS2_PLACEMENT_3D ( 'NONE', #6, #1011, #297 ) ;
#1282 = EDGE_LOOP ( 'NONE', ( #160, #840, #611, #100 ) ) ;
#1283 = CC_DESIGN_SECURITY_CLASSIFICATION ( #128, ( #20 ) ) ;
#1284 = CARTESIAN_POINT ( 'NONE',  ( 5.515432893255160174, 4.000000000000000000, 7.495331880577470685 ) ) ;
#1285 = DIRECTION ( 'NONE',  ( 0.000000000000000000, 1.000000000000000000, -0.000000000000000000 ) ) ;
#1286 = PRODUCT_DEFINITION_SHAPE ( 'NONE', 'NONE',  #86 ) ;
#1287 = CC_DESIGN_PERSON_AND_ORGANIZATION_ASSIGNMENT ( #472, #525, ( #20 ) ) ;
ENDSEC;
END-ISO-10303-21;
